<svg width="18" height="18" viewBox="0 0 18 18" fill="none" xmlns="http://www.w3.org/2000/svg">
<path d="M11.0729 15.1906C10.165 15.9067 9.0926 16.069 8.12607 16.0025C7.25368 15.9131 6.62975 15.6099 6.24197 15.1495C5.7412 14.5549 5.70171 13.6849 6.14793 13.1514C6.24052 13.04 6.35308 12.977 6.47933 13.0669C6.60699 13.1578 6.55919 13.2689 6.49203 13.3962C6.39249 13.586 6.28913 13.7925 6.26785 13.9999C6.21138 14.5522 6.5892 15.071 7.2036 15.333C7.9774 15.6629 8.77552 15.6282 9.57037 15.433C10.3141 15.2505 10.9345 14.8791 11.3278 14.2136C11.7225 13.5458 11.6903 12.7949 11.2521 12.2568C11.0366 11.9925 10.7607 11.8205 10.422 11.743C10.2767 11.7099 10.2129 11.6124 10.2461 11.4782C10.2789 11.3471 10.3916 11.314 10.5202 11.3324C10.5647 11.3385 10.6087 11.3517 10.651 11.3657C11.4232 11.6191 11.8919 12.1469 12.0307 12.9135C12.2012 13.8532 11.8114 14.608 11.0729 15.1906Z" fill="#03031E"/>
<path fill-rule="evenodd" clip-rule="evenodd" d="M4.2639 14.6444C4.63848 15.9299 5.55012 16.7141 6.84525 17.1593C7.52241 17.392 8.193 17.6117 8.91304 17.6812C10.8143 17.8648 12.8247 16.8297 13.6197 15.2014C14.2277 13.9563 14.2304 12.7017 13.53 11.4743C13.4051 11.2554 13.2835 11.0349 13.1653 10.8128C12.8331 10.1877 12.8724 9.57363 13.2252 8.96866C13.6194 8.29271 14.155 7.72567 14.7069 7.17281C15.1871 6.69164 15.7001 6.24897 16.2744 5.86865C16.5219 5.70451 16.7464 5.50804 16.9709 5.31151C17.0766 5.21895 17.1824 5.12632 17.2906 5.03711C17.3211 5.01171 17.3602 4.98387 17.3977 4.98005C17.6409 4.95498 17.6986 4.89012 17.6554 4.65536L17.6404 4.57342C17.5362 4.00419 17.432 3.43477 17.3186 2.86725C17.2368 2.45638 17.1433 2.04756 17.0427 1.64086C17.0201 1.55012 16.9665 1.44634 16.8934 1.39057C16.4039 1.01917 15.9088 0.654422 15.4137 0.289748L15.1152 0.0697807C15.0026 -0.0132391 14.891 -0.0264485 14.76 0.0533203C14.2907 0.338081 13.8199 0.620474 13.3492 0.90285C12.46 1.43621 11.5709 1.96951 10.6921 2.51859L10.644 2.54863C9.7171 3.1276 8.78525 3.70965 7.92689 4.37667C7.55919 4.6625 7.16262 4.89385 6.7666 5.12487C6.54585 5.25365 6.32526 5.38234 6.10996 5.52029C4.72392 6.40926 3.83177 7.62422 3.43663 9.17669C3.35151 9.51172 3.31167 9.85771 3.27181 10.2038C3.25074 10.3867 3.22967 10.5697 3.2019 10.7511C3.18997 10.8279 3.15484 10.9183 3.09898 10.9698C2.684 11.3492 2.29021 11.7374 2.10778 12.2863C1.86592 13.0129 1.88331 13.7039 2.35789 14.3421C2.66598 14.757 3.07625 15.0012 3.61623 14.9094C3.7695 14.8823 3.91494 14.8109 4.06047 14.7395C4.128 14.7063 4.19554 14.6732 4.2639 14.6444ZM16.8082 4.62218L16.7469 4.67094C16.6988 4.70909 16.6604 4.73961 16.6222 4.77068C16.3905 4.95977 16.1573 5.14722 15.9241 5.33466C15.3778 5.77379 14.8315 6.21295 14.3051 6.67322C13.6058 7.28506 12.9789 7.96621 12.4848 8.75366C12.0862 9.38916 12.0636 10.0256 12.4511 10.6693C12.5943 10.9067 12.7443 11.1404 12.8977 11.3716C13.142 11.739 13.3148 12.1311 13.3728 12.5683C13.5963 14.247 12.7193 15.7967 11.0985 16.5517C9.83914 17.1387 8.5318 17.1762 7.19649 16.8319C6.33633 16.6097 5.63118 16.1684 5.10908 15.4661C4.64643 14.8436 4.46087 14.1651 4.71409 13.4121C4.90125 12.8552 5.25165 12.407 5.70546 12.029C6.28354 11.5476 6.97328 11.2678 7.67161 11.0053C8.11833 10.8375 8.36702 10.5374 8.40181 10.0646C8.52405 8.39864 8.41345 6.75397 7.9308 5.14423C7.87529 4.95839 7.90377 4.85547 8.06978 4.73977C10.1855 3.26051 12.399 1.93107 14.6566 0.668338C14.6762 0.657491 14.6975 0.6498 14.7213 0.641183C14.7345 0.636431 14.7485 0.631378 14.7633 0.625377C14.8041 0.854178 14.8444 1.08194 14.8845 1.3089C15.005 1.98965 15.1241 2.66313 15.2502 3.3355C15.2773 3.48086 15.2389 3.5608 15.1253 3.65086C13.6747 4.80138 12.2262 5.95449 10.7776 7.10771L9.41045 8.19593C9.19649 8.36612 9.15073 8.48907 9.25728 8.60919C9.36204 8.72706 9.48118 8.7079 9.69057 8.54066L15.3626 4.00428C15.4142 3.96304 15.4662 3.92235 15.5233 3.87769L15.6013 3.81653C16.0013 4.0831 16.3964 4.34703 16.8082 4.62218ZM7.60984 5.66337C7.61507 5.67878 7.61999 5.69227 7.62447 5.70456C7.63272 5.72721 7.63948 5.74577 7.644 5.76468C7.97876 7.19449 8.06297 8.64188 7.95559 10.1017C7.93949 10.3209 7.82044 10.4895 7.60557 10.5818C7.06483 10.8139 6.52416 11.0455 5.9697 11.2829C5.96742 11.2591 5.96468 11.234 5.96184 11.2078C5.95553 11.1498 5.9487 11.0871 5.94535 11.0243C5.93541 10.8471 5.92734 10.6698 5.91926 10.4924C5.90268 10.128 5.88607 9.76329 5.8533 9.40018C5.84534 9.31168 5.83672 9.22322 5.82811 9.1348C5.77308 8.57002 5.71817 8.00638 5.83465 7.44101C5.96502 6.80771 6.26881 6.27325 6.85078 5.93633C7.00501 5.84673 7.18252 5.79418 7.36219 5.74098C7.44497 5.71648 7.5282 5.69183 7.60984 5.66337ZM5.20799 6.75017L5.20275 6.85825C5.19883 6.93809 5.19544 7.00715 5.19307 7.076C5.14598 8.54403 5.30962 9.99649 5.54324 11.4432C5.56159 11.5577 5.54232 11.6193 5.45074 11.6925C4.93711 12.1013 4.55628 12.6052 4.32836 13.2135C4.30917 13.265 4.29066 13.3172 4.27113 13.3722L4.24408 13.4481C3.04445 11.9233 3.58413 8.1128 5.20799 6.75017ZM17.14 4.27712C17.1245 4.28374 17.109 4.29035 17.0941 4.29703C16.9953 4.23032 16.8963 4.16375 16.7974 4.09717C16.4478 3.86186 16.0981 3.62657 15.7528 3.38538C15.701 3.34899 15.6732 3.26163 15.6611 3.19343C15.5899 2.80613 15.5219 2.41828 15.4539 2.03029C15.4238 1.85834 15.3936 1.68626 15.3632 1.5143C15.323 1.28716 15.2814 1.06018 15.2399 0.833265L15.2109 0.674805C15.4289 0.7994 15.6268 0.939014 15.8224 1.07698C15.9287 1.152 16.0344 1.22654 16.1422 1.29791C16.4907 1.52915 16.6853 1.82561 16.7495 2.23929C16.8242 2.72359 16.9225 3.20429 17.0207 3.68505C17.061 3.88231 17.1013 4.07958 17.14 4.27712ZM3.13454 11.4571C3.25506 12.3743 3.52358 13.2089 3.9845 13.9827C4.00951 14.0247 3.99109 14.1148 3.95931 14.1613C3.70016 14.5388 3.16997 14.5889 2.81644 14.2677C2.54955 14.0251 2.37861 13.7271 2.3394 13.3707C2.25699 12.6103 2.55502 11.9953 3.13454 11.4571Z" fill="#03031E"/>
<path d="M1.35725 9.4497C1.41777 9.46028 1.47826 9.47113 1.53877 9.48198C1.68048 9.50739 1.82227 9.53282 1.96476 9.55486C2.10597 9.57638 2.23183 9.54595 2.25638 9.38749C2.28039 9.23299 2.1638 9.1833 2.0336 9.16116C1.60941 9.08945 1.18494 9.01974 0.760474 8.95002C0.619978 8.92707 0.490526 8.94896 0.460041 9.10515C0.42777 9.27071 0.5553 9.32029 0.692174 9.33924C0.851159 9.36165 1.01023 9.3815 1.1694 9.40136L1.17055 9.40151C1.23386 9.40941 1.29719 9.41731 1.36053 9.42538L1.35725 9.4497Z" fill="#03031E"/>
<path d="M1.8046 7.87089C1.79268 7.8432 1.78005 7.81385 1.76483 7.78322C1.78463 7.76375 1.80315 7.74142 1.82089 7.72005C1.85853 7.67468 1.8926 7.63362 1.92766 7.63328C2.02051 7.63147 2.14206 7.65604 2.20266 7.71578C2.37082 7.88131 2.52577 8.05902 2.68071 8.23671C2.71741 8.27881 2.75413 8.32092 2.79101 8.36286C2.90371 8.49134 2.91361 8.65672 2.80764 8.72856C2.66801 8.82238 2.55034 8.76144 2.45204 8.65347L2.41363 8.61122C2.23437 8.41403 2.0551 8.21684 1.88289 8.01439C1.8496 7.97542 1.82855 7.92652 1.8046 7.87089Z" fill="#03031E"/>
<path d="M0.722119 10.9645C0.746497 10.9651 0.763287 10.9662 0.775371 10.967C0.792589 10.9681 0.800253 10.9686 0.806698 10.9661C0.886118 10.9367 0.965694 10.9075 1.04528 10.8784C1.3312 10.7736 1.61742 10.6688 1.89683 10.5495C1.94264 10.5301 1.96709 10.3762 1.93995 10.3076C1.91778 10.2522 1.78626 10.186 1.73124 10.2042C1.37904 10.3194 1.03103 10.4498 0.690482 10.5943C0.635819 10.6177 0.595821 10.7403 0.603302 10.812C0.607419 10.8576 0.653089 10.8993 0.689065 10.9322C0.702211 10.9442 0.714062 10.9551 0.722119 10.9645Z" fill="#03031E"/>
</svg>
