<svg width="27" height="25" viewBox="0 0 27 25" fill="none" xmlns="http://www.w3.org/2000/svg">
<path fill-rule="evenodd" clip-rule="evenodd" d="M9.70209 3.48485C9.65933 3.51571 9.61754 3.54638 9.57625 3.5767C9.50183 3.63132 9.429 3.68479 9.3549 3.73609C9.32985 3.75338 9.30501 3.77111 9.28015 3.78884C9.19677 3.84832 9.11325 3.9079 9.02154 3.95155C8.75116 4.08052 8.46619 4.13271 8.20734 3.93664C7.95155 3.7428 7.96768 3.46919 8.02913 3.19484C8.04142 3.14042 8.05602 3.08525 8.0806 3.03604C8.17968 2.83848 8.15971 2.7028 7.96461 2.53878C7.66351 2.2853 7.61282 1.92745 7.75953 1.56587C7.89548 1.23113 8.15895 1.05444 8.53455 1.04326C8.58141 1.04177 8.62749 1.03655 8.61828 0.982129C8.67837 0.902189 8.73489 0.818411 8.7914 0.734632C8.91619 0.549636 9.04099 0.364626 9.20435 0.22095C9.65062 -0.17045 10.1545 -0.0258185 10.3481 0.528105C10.4871 0.926214 10.7283 1.15211 11.1776 1.16851C11.4833 1.17895 11.7445 1.29972 11.8298 1.61881C11.9189 1.95205 11.7414 2.16826 11.4603 2.32854C11.2084 2.47168 11.1024 2.6931 11.1546 2.96597C11.2237 3.32754 11.2214 3.66303 10.8512 3.87252C10.5593 4.03728 10.1883 3.92993 9.84265 3.60935C9.8131 3.58067 9.78179 3.55368 9.7428 3.52006L9.70209 3.48485ZM11.299 1.65683C11.1891 1.63336 11.0794 1.61721 10.9725 1.60149C10.7364 1.56676 10.5147 1.53414 10.3381 1.42944C10.1621 1.3256 10.0327 1.14727 9.90492 0.97126C9.84924 0.894539 9.79388 0.818259 9.73512 0.74878C9.59609 1.34147 9.2489 1.81861 8.39322 1.85141C8.79802 2.16378 9.07531 2.44857 9.00387 2.93913C9.45552 2.6111 9.87261 2.62899 10.3112 2.87278C10.3258 2.22268 10.7759 1.92894 11.299 1.65683Z" fill="#BCBCBC"/>
<path fill-rule="evenodd" clip-rule="evenodd" d="M5.69103 3.67867C5.34461 3.96569 5.13415 4.33174 5.07193 4.69705C4.96627 4.72598 4.86139 4.74785 4.75968 4.76906C4.54422 4.814 4.34298 4.85597 4.17862 4.95575C3.57718 5.31807 3.60637 6.17989 4.21779 6.6123C4.38293 6.72935 4.40598 6.82179 4.34837 7.00146C4.26618 7.25568 4.19398 7.52184 4.17631 7.7865C4.15404 8.12646 4.38985 8.3434 4.74087 8.35906C5.10342 8.37471 5.4099 8.23977 5.68873 8.02134C6.2364 7.59268 6.24021 7.59558 6.7788 8.00521L6.7902 8.01388C7.07364 8.22934 7.38933 8.3024 7.73038 8.14435C8.07219 7.98555 8.12596 7.69331 8.096 7.36677C8.09342 7.33958 8.0926 7.31213 8.09178 7.28469C8.09064 7.24668 8.08951 7.20867 8.08371 7.17144C8.01151 6.71145 8.17588 6.3864 8.61448 6.16648C8.96397 5.99128 9.09225 5.72289 9.03694 5.44481C8.97626 5.14064 8.75274 4.95575 8.36561 4.88939C8.34335 4.88565 8.3211 4.88118 8.29882 4.87672C8.24576 4.86607 8.19258 4.8554 8.13901 4.85435C7.55909 4.84541 7.23725 4.5472 7.05751 4.02608C6.824 3.34765 6.25329 3.21346 5.69103 3.67867ZM7.23955 7.25867C6.40922 6.66896 6.25329 6.67567 5.15719 7.35484C5.35921 6.75097 5.1979 6.30216 4.69479 5.95624C4.62105 5.9048 4.55269 5.75196 4.58034 5.68189C4.6103 5.60733 4.75393 5.53576 4.85072 5.53204C5.37534 5.51116 5.73712 5.28527 5.94374 4.81111C6.07279 4.51514 6.23025 4.2311 6.44916 3.94705C6.45696 3.97206 6.46542 3.99699 6.47387 4.02194C6.4929 4.07806 6.51197 4.13431 6.52367 4.19159C6.66577 4.89834 7.20499 5.31285 7.95467 5.29943C8.08429 5.2969 8.21428 5.3061 8.34413 5.31529C8.40509 5.3196 8.46606 5.32392 8.52691 5.32702C8.53076 5.34417 8.53441 5.36114 8.53806 5.37811C8.5417 5.39506 8.54535 5.41202 8.54919 5.42915C8.52568 5.44685 8.50293 5.46664 8.48015 5.48646C8.42998 5.53012 8.37969 5.57387 8.32106 5.59541C7.52683 5.88243 7.16658 6.43486 7.23955 7.25867Z" fill="#BCBCBC"/>
<path fill-rule="evenodd" clip-rule="evenodd" d="M2.69646 6.72191C2.35926 9.11131 4.83182 11.1906 7.08316 11.0534C7.66306 11.018 8.23992 10.9366 8.81634 10.8553C9.00572 10.8286 9.19505 10.8019 9.38443 10.7768C9.60488 10.7477 9.99816 10.8924 10.118 11.0787C10.2708 11.3166 10.171 11.6036 9.91059 11.7385C9.74698 11.8228 9.58491 11.9227 9.45049 12.0449C8.12012 13.2527 6.58158 14.0318 4.74425 14.1578C2.07352 14.3412 0.207001 12.7487 0.0188126 10.2124C-0.0664481 9.05912 0.140175 7.9468 0.596435 6.88518C0.721786 6.59416 0.906542 6.3252 1.0897 6.05857C1.12988 6.00009 1.17001 5.94166 1.20939 5.88319C1.44213 5.53802 1.82772 5.38891 2.20179 5.24726C2.26094 5.2249 2.44529 5.33971 2.46142 5.41351C2.53221 5.73231 2.58546 6.05475 2.63872 6.37726C2.6577 6.49218 2.67668 6.60713 2.69646 6.72191ZM1.8905 6.07975C1.87276 6.08703 1.86243 6.09127 1.85768 6.09865C1.03964 7.42046 0.541899 8.8131 0.707812 10.3936C0.896 12.1806 2.19872 13.3832 4.05141 13.4003C5.47934 13.4137 6.70218 12.8881 7.7929 12.0293C7.8036 12.0208 7.80845 12.006 7.81504 11.9859C7.81887 11.9743 7.82329 11.9608 7.82977 11.9458C6.10919 12.0144 4.57681 11.585 3.33553 10.413C2.07429 9.22165 1.6741 7.74104 1.93219 6.06137C1.91522 6.06961 1.90143 6.07527 1.8905 6.07975Z" fill="#BCBCBC"/>
<path fill-rule="evenodd" clip-rule="evenodd" d="M1.69496 22.4828L1.69115 22.4758C1.49775 22.1205 1.30877 21.7733 1.12174 21.4305C1.06074 21.4605 1.00218 21.4923 0.944745 21.5235C0.819915 21.5912 0.70037 21.6561 0.572538 21.6944C0.315988 21.7704 0.153147 21.593 0.246857 21.3492C0.292176 21.2314 0.377437 21.1211 0.467306 21.0294C0.647792 20.8455 0.836235 20.6684 1.0246 20.4914C1.07753 20.4416 1.13045 20.3919 1.18319 20.342C1.2239 20.3032 1.27229 20.2697 1.32145 20.2421C1.51348 20.1347 1.74007 20.0542 1.90368 20.2279C2.07958 20.4151 1.97819 20.6283 1.82149 20.8042C1.78865 20.8412 1.75491 20.8778 1.72096 20.9146L1.68938 20.9488C1.91724 21.2935 2.14338 21.6351 2.37008 21.9776L2.38153 21.9949C2.57821 22.2921 2.77534 22.5899 2.97443 22.8909C3.96761 22.3885 4.90163 21.8077 5.7842 21.1509C8.92194 18.8159 11.1333 15.8219 12.5183 12.2367C12.9238 11.1877 13.3002 10.135 13.3279 8.99811C13.3332 8.79533 13.4323 8.70139 13.6535 8.69916C13.897 8.69692 14.0806 8.71407 14.1152 9.01377C14.1278 9.12311 14.1391 9.23308 14.1504 9.34322C14.1924 9.75349 14.2347 10.166 14.351 10.5563C15.5562 14.5955 17.7253 18.0398 21.0989 20.7267C22.0436 21.4789 23.0506 22.1409 24.1398 22.7232C24.481 22.1144 24.8208 21.5095 25.1574 20.9103L25.2321 20.7774C25.1731 20.7335 25.1147 20.6907 25.0569 20.6484C24.9272 20.5535 24.8004 20.4608 24.6783 20.3629C24.5124 20.2294 24.4478 20.0609 24.5692 19.8686C24.6829 19.6882 24.8649 19.6576 25.0493 19.7307L25.1485 19.7702C25.5849 19.944 26.0221 20.1181 26.4434 20.3219C26.7998 20.4948 26.9081 20.7535 26.7906 20.9936C26.6915 21.1956 26.425 21.259 26.0732 21.1628C26.052 21.1571 26.0315 21.1496 26.0021 21.1388C25.9814 21.1312 25.9563 21.122 25.9234 21.1106L24.8911 23.1109C24.9916 23.1592 25.0899 23.2068 25.187 23.2537C25.4043 23.3589 25.6147 23.4607 25.8266 23.5597C25.9621 23.6226 26.0998 23.6811 26.2374 23.7396C26.3018 23.7669 26.3662 23.7943 26.4304 23.8221C26.8467 24.0033 26.9726 24.2269 26.8428 24.5527C26.7007 24.9113 26.2998 25.0858 25.9196 24.9441C25.8423 24.915 25.7676 24.8785 25.6931 24.842C25.5957 24.7944 25.4984 24.7468 25.3957 24.716C25.2221 24.6638 25.0355 24.6414 24.8534 24.6325C24.4361 24.6124 24.0189 24.5987 23.6016 24.5849C23.4451 24.5798 23.2886 24.5746 23.1321 24.5691C22.2165 24.5373 21.3011 24.5015 20.3857 24.4657C18.2992 24.3842 16.2126 24.3026 14.1252 24.2679C11.0243 24.2165 7.92493 24.3343 4.83097 24.5639C4.14197 24.6153 3.45066 24.6384 2.75936 24.6504C2.34996 24.6578 1.96897 24.71 1.59874 24.9024C1.23696 25.091 0.898219 24.9963 0.679306 24.7048C0.435814 24.3797 0.514161 24.0458 0.887465 23.8735C1.15816 23.7493 1.43089 23.6307 1.71283 23.5081L1.71349 23.5078C1.85615 23.4458 2.00117 23.3827 2.14948 23.3174C1.99461 23.0332 1.84347 22.7556 1.69496 22.4828ZM13.8978 12.0644C13.8978 12.0929 13.8975 12.1214 13.8972 12.1498C13.8966 12.2138 13.8959 12.2776 13.8986 12.341C13.9199 12.9754 13.9428 13.6098 13.9657 14.2442C14.0159 15.6398 14.0663 17.0357 14.1006 18.4312C14.1296 19.5879 14.125 20.7453 14.1205 21.9026L14.119 22.2886C14.1167 22.9789 14.0069 23.134 13.5606 23.2965L16.1987 23.356C18.4981 23.4078 20.8255 23.4603 23.1405 23.512C18.7269 20.7423 15.6514 16.9141 13.8978 12.0644ZM13.2057 13.1462L13.1028 13.1283C11.2109 17.6909 8.1016 21.2538 3.77327 23.8243C6.64525 23.6633 9.48958 23.5038 12.3631 23.342C12.3402 23.2868 12.3185 23.2318 12.297 23.1772C12.25 23.0577 12.2037 22.9402 12.1473 22.8276C11.8949 22.3289 11.6404 21.8312 11.3858 21.3335L11.3851 21.3319C11.1882 20.9469 10.9913 20.5619 10.7954 20.1765C10.6049 19.8015 10.6256 19.7396 10.9713 19.4824C12.1803 18.5826 12.8785 17.3383 13.1704 15.9442C13.3003 15.3243 13.2677 14.6722 13.235 14.02C13.2204 13.7278 13.2057 13.4355 13.2057 13.1462ZM11.4521 20.0035L13.0413 22.3683C13.0733 21.5667 13.1058 20.744 13.1386 19.9122L13.1388 19.9066C13.1635 19.2813 13.1884 18.6509 13.2134 18.0204C13.2019 18.0174 13.1903 18.0147 13.1788 18.0119C13.1673 18.0091 13.1558 18.0063 13.1443 18.0033C12.718 18.7988 12.145 19.4749 11.4521 20.0035Z" fill="#BCBCBC"/>
<path fill-rule="evenodd" clip-rule="evenodd" d="M10.747 8.55308C10.7841 8.52612 10.8215 8.49895 10.8594 8.4717C10.8841 8.49426 10.907 8.51533 10.9287 8.53532C10.9774 8.58007 11.0202 8.61944 11.0637 8.65809C11.3671 8.92424 11.7389 9.00252 12.0139 8.85938C12.2843 8.71847 12.391 8.42325 12.3142 7.99979C12.2597 7.70009 12.3511 7.46674 12.623 7.30943C12.8934 7.15287 13.0662 6.94562 12.9871 6.62206C12.908 6.30074 12.6629 6.17027 12.3472 6.16431C11.8971 6.15536 11.6352 5.92723 11.5131 5.52689C11.3264 4.91332 10.705 4.82535 10.2572 5.2913C10.1244 5.42986 10.024 5.59744 9.91812 5.77405C9.86849 5.85686 9.81767 5.94166 9.76177 6.02639C9.38923 6.02266 9.05357 6.16729 8.90225 6.5736C8.76629 6.9404 8.8408 7.28856 9.13422 7.54726C9.31396 7.70456 9.32625 7.8395 9.23407 8.02514C9.20949 8.07509 9.19413 8.13025 9.18261 8.18468C9.12346 8.45828 9.10349 8.73413 9.36312 8.92573C9.62351 9.11733 9.90848 9.06738 10.1789 8.93691C10.2696 8.89372 10.3523 8.83452 10.4348 8.77546C10.4606 8.75703 10.4863 8.73862 10.5122 8.72071C10.591 8.66651 10.6684 8.61024 10.747 8.55308ZM12.4241 6.65114C11.9563 6.91431 11.467 7.1991 11.4654 7.85739C11.0284 7.62032 10.6113 7.60317 10.1681 7.91405C10.205 7.44885 9.98068 7.13722 9.60661 6.87032C10.4016 6.80471 10.7473 6.32758 10.8901 5.74085C10.9471 5.80786 11.0012 5.88185 11.056 5.95664C11.1827 6.12985 11.3125 6.30739 11.4885 6.41257C11.6663 6.5187 11.8878 6.5554 12.1164 6.59329C12.2186 6.61023 12.3222 6.62741 12.4241 6.65114Z" fill="#BCBCBC"/>
</svg>
