<svg width="44" height="17" viewBox="0 0 44 17" fill="none" xmlns="http://www.w3.org/2000/svg">
<path d="M0.00222901 5.66245C0.386733 4.56132 1.19586 4.08097 2.32708 4.06202C2.49314 4.05868 2.65698 4.00853 2.82304 3.99627C4.69206 3.85807 6.46746 3.40781 8.1147 2.47943C8.84024 2.0704 9.60256 1.72491 10.3493 1.35155C11.6488 0.701794 13.023 0.296114 14.4763 0.274939C16.7465 0.242618 19.0179 0.239275 21.287 0.279397C23.0112 0.309488 24.586 0.87677 26.0348 1.80738C27.5572 2.78592 29.0819 3.75888 30.6188 4.71512C30.8417 4.85332 31.1292 4.94248 31.3911 4.95362C34.0837 5.06285 36.7485 5.35262 39.3319 6.16509C39.848 6.32781 40.3606 6.51727 40.8499 6.74686C42.1026 7.33309 42.7446 8.34617 42.7936 9.71924C42.8215 10.5261 42.8159 11.3353 42.7914 12.1433C42.7568 13.279 42.0591 14.0948 41.0539 14.2229C40.6081 14.2798 40.2871 14.0881 40.2191 13.7259C40.1511 13.3626 40.3796 13.0672 40.8321 12.997C41.2645 12.9301 41.4484 12.6582 41.5219 12.2715C41.5453 12.1489 41.5453 12.0218 41.5453 11.897C41.5476 11.1347 41.5465 10.3712 41.5465 9.55318C41.104 9.55318 40.7039 9.55987 40.3049 9.55095C39.8078 9.53981 39.5348 9.30576 39.5415 8.91234C39.5482 8.52227 39.819 8.30939 40.325 8.30048C40.4877 8.29713 40.6504 8.30048 40.8131 8.30048C40.8243 8.26481 40.8365 8.23026 40.8477 8.1946C40.6426 8.07535 40.4464 7.93269 40.2302 7.83907C38.5172 7.09236 36.7106 6.67776 34.8639 6.51393C32.8979 6.33895 30.9197 6.2353 28.9459 6.21413C24.8233 6.16955 20.6997 6.20075 16.576 6.20075C16.4646 6.20075 16.3531 6.20187 16.2417 6.20075C15.7112 6.19072 15.4214 5.97228 15.418 5.57998C15.4147 5.18433 15.7078 4.95362 16.2305 4.94917C16.6897 4.94471 17.15 4.94805 17.6092 4.94805C17.7462 4.94805 17.8844 4.94805 18.0561 4.94805C18.0561 3.79677 18.0561 2.67892 18.0561 1.55773C18.0093 1.54101 17.9703 1.51315 17.9324 1.51427C16.4166 1.55885 14.8987 1.56108 13.3874 1.66695C12.4523 1.73271 12.4557 1.80181 12.2495 2.69453C12.0846 3.41115 11.9252 4.13001 11.7513 4.90236C11.9575 4.91908 12.1291 4.94248 12.3008 4.94582C12.6764 4.95474 13.0542 4.93468 13.4275 4.96588C13.7597 4.99375 13.958 5.20439 13.9703 5.54654C13.9826 5.88424 13.8176 6.14169 13.481 6.16955C11.8906 6.29772 10.3493 6.22639 9.15342 4.93914C8.83133 4.59253 8.52372 4.0832 8.13142 3.99515C7.7536 3.91156 7.27436 4.27043 6.84305 4.44541C5.60149 4.95028 4.28415 5.08291 2.97238 5.2434C2.62688 5.28575 2.28027 5.31807 1.93701 5.37714C1.46111 5.45961 1.26719 5.69477 1.25605 6.17289C1.25047 6.42031 1.25493 6.66773 1.25493 6.91627C1.78878 7.03217 2.58008 6.74129 2.56559 7.60169C2.55221 8.42419 1.78321 8.13442 1.27388 8.23472C1.27388 8.93909 1.22372 9.63454 1.28948 10.32C1.34409 10.8906 1.73863 11.2639 2.29588 11.4267C3.06934 11.6529 3.84615 11.8702 4.66977 12.1054C4.8258 10.6877 5.44546 9.56098 6.68814 8.83098C7.50284 8.35286 8.38552 8.20798 9.3061 8.35398C10.3872 8.52561 11.2509 9.07729 11.8962 9.96332C12.5437 10.8527 12.7243 11.8602 12.5995 12.9613C18.6913 12.9613 24.7442 12.9613 30.8327 12.9613C30.8327 12.7128 30.8305 12.4687 30.8327 12.2246C30.855 10.0202 32.6772 8.25144 34.8706 8.30494C37.1197 8.35955 38.8739 10.2219 38.7736 12.4487C38.6978 14.1282 37.5309 15.6183 35.9238 16.0875C34.2866 16.5645 32.5558 15.9716 31.5683 14.5673C31.3945 14.3199 31.2184 14.2363 30.9219 14.2363C24.7921 14.2452 18.6635 14.2452 12.5337 14.2363C12.2328 14.2363 12.0667 14.3377 11.8918 14.5762C11.018 15.7654 9.82769 16.3517 8.35432 16.2257C6.77841 16.0909 5.65499 15.2583 5.01638 13.8117C4.90159 13.552 4.7567 13.4239 4.49368 13.3536C3.82163 13.1753 3.16408 12.9357 2.48534 12.7919C1.19363 12.5178 0.329893 11.8145 0 10.5105C0.00222901 8.89339 0.00222901 7.27736 0.00222901 5.66245ZM28.4299 4.91907C28.441 4.89344 28.4522 4.86892 28.4644 4.84329C27.438 4.18908 26.4093 3.53932 25.3862 2.87953C24.3798 2.22978 23.2998 1.75389 22.1084 1.61792C21.2068 1.51427 20.294 1.51315 19.3678 1.46523C19.3678 2.67781 19.3678 3.78451 19.3678 4.91796C22.4049 4.91908 25.4174 4.91907 28.4299 4.91907ZM11.3835 12.2793C11.3869 10.7758 10.1988 9.57324 8.69647 9.55764C7.18743 9.54204 5.94699 10.7624 5.94476 12.2681C5.94253 13.7671 7.19078 15.0131 8.68421 15.0009C10.1732 14.9886 11.3802 13.7716 11.3835 12.2793ZM34.7792 9.55764C33.2612 9.5699 32.0721 10.7903 32.0888 12.3172C32.1055 13.8028 33.3471 15.0209 34.8249 15.0009C36.3295 14.9808 37.5499 13.7281 37.5276 12.2302C37.503 10.7412 36.2737 9.54538 34.7792 9.55764ZM11.0146 2.42704C10.395 2.73688 9.86113 3.00324 9.51006 3.17822C9.84775 3.57498 10.1955 3.98623 10.57 4.42758C10.7171 3.76668 10.8564 3.14033 11.0146 2.42704Z" fill="black"/>
<path d="M21.6166 12.2499C19.9757 12.2499 18.3356 12.2499 16.6947 12.2492C16.5829 12.2492 16.4688 12.2513 16.3603 12.2321C16.1148 12.188 15.99 12.0387 16.0006 11.8303C16.0104 11.6354 16.1376 11.4975 16.3733 11.4648C16.4737 11.4513 16.5764 11.4505 16.6775 11.4505C19.9586 11.4498 23.2404 11.4498 26.5214 11.4505C26.6128 11.4505 26.7058 11.4505 26.7963 11.4605C27.0605 11.4897 27.2016 11.6347 27.2 11.8559C27.1984 12.065 27.0581 12.2044 26.8118 12.2385C26.7123 12.252 26.6087 12.2499 26.5068 12.2499C24.8773 12.2499 23.2469 12.2499 21.6166 12.2499Z" fill="black"/>
<path d="M11.7195 13.9374C11.7396 14.5941 10.2778 16.0532 9.78697 15.9663C9.55961 15.9262 9.26939 15.7416 9.18112 15.545C9.09018 15.3457 9.12362 14.9779 9.25869 14.8094C9.63317 14.3453 10.0611 13.9107 10.5279 13.5402C10.7031 13.4011 11.0762 13.3878 11.3009 13.472C11.5069 13.5496 11.6353 13.8358 11.7195 13.9374Z" fill="black"/>
<path d="M43.0694 15.1906C43.0534 15.8405 42.4101 16.2257 41.9594 15.87C41.4405 15.4607 40.9777 14.9685 40.5511 14.4617C40.3104 14.1768 40.3893 13.7649 40.7022 13.5803C40.9323 13.4439 41.3803 13.3637 41.5501 13.4934C42.0731 13.8946 42.5157 14.4042 42.9731 14.887C43.0534 14.9712 43.0534 15.133 43.0694 15.1906Z" fill="black"/>
</svg>
