<svg width="329" height="405" viewBox="0 0 329 405" fill="none" xmlns="http://www.w3.org/2000/svg">
<path d="M1.29004 144.337L58.6736 143.034C58.6736 143.034 53.3892 133.917 38.6526 135.592C24.5858 137.192 23.7299 131.387 16.5104 130.828C9.3282 130.27 3.48565 135.927 1.29004 144.337Z" fill="#F5F5F5"/>
<path d="M269.675 175.373H323.747C323.747 175.373 318.946 166.665 305.028 167.968C291.743 169.159 291.073 163.651 284.3 162.981C277.527 162.311 271.908 167.484 269.675 175.373Z" fill="#F5F5F5"/>
<path d="M33.9639 115.869H75.2339C75.2339 115.869 71.5869 109.207 60.9438 110.175C50.8217 111.105 50.3007 106.937 45.128 106.416C39.9925 105.895 35.6757 109.84 33.9639 115.869Z" fill="#F5F5F5"/>
<path d="M269.712 202.688H296.692C296.692 202.688 294.311 198.334 287.352 198.967C280.728 199.562 280.393 196.808 277.006 196.473C273.657 196.138 270.829 198.743 269.712 202.688Z" fill="#F5F5F5"/>
<path d="M256.204 127.963H283.221C283.221 127.963 280.802 123.646 273.881 124.279C267.219 124.874 266.884 122.12 263.535 121.785C260.149 121.451 257.358 124.055 256.204 127.963Z" fill="#FAFAFA"/>
<path d="M273.21 273.171C273.099 272.092 272.206 271.273 271.089 271.273L255.199 271.31C253.896 271.31 252.892 272.501 253.152 273.803C253.338 274.808 254.231 275.515 255.273 275.478L271.126 275.515C272.354 275.515 273.322 274.399 273.21 273.171Z" fill="#263238"/>
<path d="M307.856 399.214C307.447 401.967 309.382 404.535 312.136 404.945C314.927 405.354 317.494 403.456 317.904 400.665C318.313 397.911 316.378 395.343 313.624 394.934C310.833 394.525 308.265 396.423 307.856 399.214Z" fill="#263238"/>
<path d="M311.838 399.958L308.749 393.594L310.349 392.552L313.364 399.214L311.838 399.958Z" fill="#455A64"/>
<path d="M283.22 321.362L264.018 271.273L260.371 273.096L278.978 322.739L283.22 321.362Z" fill="#263238"/>
<path d="M299.185 398.73L327.542 387.491C328.584 387.082 329.105 385.891 328.695 384.812L300.487 313.845C298.254 308.263 291.928 305.509 286.346 307.742L274.438 312.468C268.856 314.701 266.102 321.027 268.335 326.609L296.543 397.613C296.952 398.655 298.143 399.176 299.185 398.73Z" fill="#E8505B"/>
<path d="M296.468 397.949C296.468 397.949 296.431 397.8 296.32 397.502C296.22 397.204 296.059 396.795 295.836 396.274C295.426 395.12 294.794 393.52 294.012 391.436C292.375 387.231 290.03 381.165 287.128 373.722C284.225 366.242 280.727 357.311 276.894 347.45C274.959 342.5 272.912 337.327 270.828 331.931C270.307 330.592 269.774 329.24 269.228 327.875C268.67 326.535 268.484 325.084 268.633 323.633C268.968 320.73 271.014 318.051 273.805 316.972C276.596 315.892 279.871 316.451 282.104 318.348C283.183 319.316 284.076 320.507 284.56 321.847C285.081 323.236 285.614 324.6 286.16 325.94C288.244 331.299 290.291 336.472 292.226 341.421C296.134 351.283 299.632 360.177 302.571 367.657C305.511 375.099 307.893 381.128 309.568 385.333C310.386 387.38 311.056 389.017 311.503 390.134C311.726 390.655 311.9 391.064 312.024 391.362C312.135 391.659 312.21 391.771 312.21 391.771C312.21 391.771 312.135 391.622 312.061 391.362C311.937 391.064 311.776 390.642 311.577 390.096C311.168 388.98 310.535 387.343 309.717 385.259C308.116 381.053 305.772 375.025 302.869 367.545C299.929 360.065 296.468 351.171 292.598 341.272C290.7 336.323 288.654 331.15 286.532 325.791C286.011 324.427 285.49 323.062 284.969 321.698C284.448 320.284 283.555 319.018 282.402 318.014C280.057 316.004 276.559 315.409 273.619 316.562C270.679 317.716 268.558 320.544 268.186 323.596C268.037 325.084 268.223 326.647 268.819 328.024C269.364 329.388 269.898 330.753 270.419 332.118C272.54 337.476 274.587 342.649 276.522 347.598C280.392 357.46 283.89 366.354 286.83 373.834C289.807 381.277 292.189 387.305 293.826 391.511C294.682 393.557 295.315 395.158 295.761 396.274C295.985 396.82 296.158 397.241 296.282 397.539C296.394 397.8 296.468 397.949 296.468 397.949Z" fill="#263238"/>
<path d="M294.645 347.487C294.682 347.673 298.403 346.221 302.906 344.249C307.446 342.239 311.056 340.49 310.982 340.304C310.944 340.081 307.223 341.57 302.72 343.542C298.18 345.551 294.57 347.3 294.645 347.487Z" fill="#263238"/>
<path d="M269.563 271.273L266.251 264.723C265.879 263.979 265.246 263.421 264.502 263.086L259.292 260.927L245.225 241.874L243.923 256.462L252.891 265.691C252.891 265.691 258.473 277.487 263.051 276.892C263.051 276.892 262.902 275.18 262.158 273.841C260.669 271.273 262.232 271.273 262.455 271.273L266.251 271.31L269.563 271.273Z" fill="#FFBE9D"/>
<path d="M246.64 261.188C247.049 261.821 250.547 266.547 250.547 266.547L260.372 259.402L256.799 255.904L246.64 261.188Z" fill="#E8505B"/>
<path d="M262.158 273.84C262.158 273.84 264.688 275.292 265.023 276.557V277.264L261.972 276.818L262.158 273.84Z" fill="#FFBE9D"/>
<path d="M265.581 275.255C265.172 274.845 264.726 274.436 264.539 273.878C264.391 273.357 264.577 272.65 265.135 272.464C265.656 272.278 266.214 272.65 266.623 273.022C267.144 273.493 267.641 274.002 268.112 274.548C268.521 274.994 268.893 275.515 268.745 276.111C268.633 276.557 268.186 276.892 267.703 276.892C267.256 276.929 266.772 276.706 266.437 276.371C266.102 276.073 265.842 275.664 265.656 275.217" fill="#FFBE9D"/>
<path d="M268.186 275.031C267.74 274.622 267.33 274.213 267.144 273.654C266.958 273.133 267.182 272.426 267.74 272.24C268.261 272.054 268.782 272.426 269.228 272.798C269.749 273.27 270.246 273.778 270.717 274.324C271.089 274.771 271.498 275.292 271.35 275.887C271.238 276.334 270.791 276.669 270.308 276.669C269.824 276.706 269.377 276.483 269.042 276.148C268.707 275.85 268.447 275.441 268.261 274.994" fill="#FFBE9D"/>
<path d="M260.371 263.83C260.371 263.756 261.041 263.793 261.785 264.463C262.157 264.835 262.381 265.356 262.678 265.914C262.939 266.472 263.237 267.142 263.199 267.924C263.125 268.742 262.678 269.338 262.381 269.859C262.046 270.38 261.897 270.901 261.785 271.347C261.525 272.24 261.711 272.836 261.674 272.836C261.636 272.873 261.339 272.278 261.488 271.31C261.599 270.826 261.748 270.268 262.083 269.71C262.381 269.152 262.753 268.556 262.79 267.924C262.864 267.254 262.604 266.621 262.343 266.063C262.083 265.505 261.86 264.946 261.599 264.649C261.301 264.314 260.929 264.128 260.743 264.016C260.52 263.867 260.371 263.867 260.371 263.83Z" fill="#EB996E"/>
<path d="M154.424 196.66L144.004 230.04L174.706 262.081L202.839 254.787L154.424 196.66Z" fill="#F5F5F5"/>
<path d="M154.424 196.659C154.424 196.659 154.511 196.759 154.685 196.957C154.858 197.156 155.094 197.429 155.392 197.776C156.024 198.52 156.955 199.637 158.108 201.051C160.527 203.879 163.988 208.047 168.342 213.22C177.013 223.602 189.145 238.116 202.988 254.638L203.174 254.899L202.876 254.973C197.778 256.276 192.457 257.653 187.023 259.067C182.855 260.183 178.762 261.225 174.743 262.267L174.631 262.304L174.557 262.23C162.983 250.098 152.452 239.083 143.893 230.115L143.855 230.077V229.966C147.093 219.769 149.735 211.433 151.596 205.628C152.489 202.725 153.196 200.493 153.717 198.967C153.94 198.222 154.114 197.652 154.238 197.255C154.362 196.858 154.424 196.659 154.424 196.659C154.089 197.85 150.405 209.759 144.153 230.077L144.116 229.929C152.712 238.86 163.244 249.875 174.854 261.97L174.668 261.895C178.65 260.853 182.744 259.811 186.912 258.695C192.345 257.281 197.666 255.904 202.765 254.601L202.69 254.899C188.996 238.376 176.938 223.863 168.305 213.443C163.988 208.233 160.527 204.065 158.146 201.162C156.955 199.711 156.024 198.595 155.392 197.85C155.094 197.478 154.858 197.193 154.685 196.994C154.536 196.771 154.449 196.659 154.424 196.659Z" fill="#263238"/>
<path d="M155.392 218.653C156.843 216.159 160.676 215.415 162.983 217.164C164.881 218.653 165.774 221.481 168.081 222.225C169.756 222.746 171.58 221.965 173.329 222.262C175.338 222.635 176.827 224.495 177.422 226.43C178.018 228.403 177.831 230.524 177.683 232.571L167.709 232.682L155.392 218.653Z" fill="#E0E0E0"/>
<path d="M136.934 199.711L201.611 266.361L175.264 263.681L138.385 224.756L136.934 199.711Z" fill="#F5F5F5"/>
<path d="M136.934 199.711C137.008 200.679 137.529 209.275 138.534 224.756L138.497 224.681C147.912 234.617 160.788 248.163 175.413 263.57L175.264 263.495C181.813 264.165 188.549 264.835 195.508 265.542C197.592 265.765 199.676 265.951 201.648 266.175L201.462 266.51C165.514 229.259 138.385 201.2 136.934 199.711C138.385 201.2 165.625 229.147 201.76 266.212L202.132 266.621L201.611 266.547C199.639 266.361 197.555 266.137 195.471 265.914C188.512 265.244 181.776 264.537 175.226 263.867H175.189L175.115 263.83C160.564 248.424 147.688 234.804 138.311 224.867L138.273 224.83V224.793C137.455 209.275 137.008 200.679 136.934 199.711Z" fill="#263238"/>
<path d="M162.239 226.207C160.267 228.514 160.564 232.161 162.239 234.692C163.951 237.222 166.779 238.748 169.607 239.865C171.915 240.758 174.743 241.316 176.641 239.753" fill="#E0E0E0"/>
<path d="M158.89 222.56C159.001 223.118 158.294 223.565 157.736 223.491C157.178 223.453 156.657 223.118 156.099 223.081C154.536 223.007 153.68 224.867 152.415 225.761C150.926 226.803 148.619 226.356 147.614 224.83C146.758 223.491 146.795 221.555 145.456 220.737C144.711 220.29 143.781 220.365 142.925 220.513C142.069 220.662 141.213 220.923 140.357 220.774C139.501 220.662 138.645 219.992 138.645 219.099L138.162 218.392L137.083 200.009L158.89 222.56Z" fill="#E0E0E0"/>
<path d="M190.41 265.021C191.861 265.244 193.275 264.5 193.498 263.049C193.722 261.597 192.568 260.034 191.079 259.848C189.777 259.699 188.4 260.444 187.135 260.072C185.683 259.588 185.088 257.913 184.753 256.462C184.381 255.011 183.86 253.336 182.446 252.74C180.139 251.81 177.72 254.787 175.301 254.117C173.477 253.634 172.808 251.475 171.393 250.284C170.277 249.317 168.602 248.982 167.225 249.466C165.811 249.912 164.955 250.731 164.658 252.182L175.338 263.458L190.41 265.021Z" fill="#E0E0E0"/>
<path d="M172.733 377.667L170.054 392.962C170.054 392.962 153.605 395.418 152.824 398.209L182.371 404.423L187.47 380.718L172.733 377.667Z" fill="#E8505B"/>
<g opacity="0.6">
<path d="M179.469 393.631C179.99 393.892 180.25 394.599 180.027 395.157C179.766 395.715 179.022 395.976 178.464 395.715C177.943 395.455 177.608 394.599 177.906 394.078C178.241 393.557 179.097 393.296 179.58 393.669" fill="white"/>
</g>
<path opacity="0.6" d="M182.371 404.423L182.855 402.042L154.312 396.943C154.312 396.943 152.898 397.241 152.824 398.209L182.371 404.423Z" fill="white"/>
<path d="M169.607 392.701C169.607 392.85 170.314 393.073 170.909 393.706C171.542 394.301 171.765 395.008 171.914 394.971C172.063 394.971 172.026 394.041 171.282 393.334C170.537 392.589 169.607 392.589 169.607 392.701Z" fill="#263238"/>
<path d="M166.258 393.334C166.183 393.483 166.779 393.855 167.114 394.562C167.523 395.269 167.486 395.939 167.635 395.976C167.784 396.05 168.044 395.194 167.598 394.338C167.114 393.445 166.295 393.222 166.258 393.334Z" fill="#263238"/>
<path d="M163.727 396.683C163.839 396.757 164.211 396.05 163.988 395.194C163.802 394.338 163.169 393.855 163.095 393.966C162.983 394.078 163.318 394.599 163.504 395.306C163.653 396.013 163.578 396.646 163.727 396.683Z" fill="#263238"/>
<path d="M170.612 389.277C170.649 389.426 171.356 389.389 172.175 389.612C172.956 389.798 173.552 390.208 173.626 390.133C173.738 390.022 173.254 389.352 172.286 389.128C171.356 388.868 170.574 389.166 170.612 389.277Z" fill="#263238"/>
<path opacity="0.3" d="M172.212 380.681L171.728 383.398L186.279 386.338L186.8 383.919L172.212 380.681Z" fill="black"/>
<path d="M171.207 386.226C171.207 386.263 171.765 386.486 172.696 386.524C173.142 386.524 173.738 386.486 174.333 386.375C174.631 386.3 174.941 386.213 175.263 386.114C175.449 386.04 175.598 386.003 175.784 385.854C176.008 385.742 176.156 385.37 176.045 385.072C175.933 384.849 175.673 384.663 175.449 384.626C175.263 384.588 175.077 384.588 174.891 384.588C174.544 384.588 174.221 384.626 173.924 384.7C173.291 384.849 172.77 385.072 172.361 385.333C171.542 385.816 171.207 386.3 171.244 386.337C171.281 386.412 171.728 386.003 172.51 385.63C172.919 385.444 173.44 385.258 173.998 385.184C174.296 385.134 174.593 385.097 174.891 385.072C175.226 385.072 175.487 385.109 175.561 385.296C175.561 385.333 175.561 385.37 175.487 385.444C175.412 385.519 175.263 385.556 175.114 385.63C174.817 385.754 174.519 385.841 174.221 385.891C173.663 386.04 173.142 386.114 172.696 386.151C171.802 386.226 171.207 386.151 171.207 386.226Z" fill="#263238"/>
<path d="M171.356 386.449C171.393 386.486 171.803 386.04 172.063 385.11C172.175 384.663 172.249 384.068 172.175 383.435C172.15 383.137 172.088 382.815 171.989 382.467C171.877 382.132 171.765 381.723 171.207 381.537C170.91 381.463 170.649 381.649 170.5 381.798C170.351 381.984 170.314 382.17 170.24 382.319C170.128 382.653 170.054 382.988 170.016 383.323C169.979 383.956 170.128 384.551 170.351 384.998C170.761 385.854 171.319 386.152 171.356 386.114C171.393 386.04 170.947 385.668 170.686 384.849C170.537 384.44 170.426 383.919 170.5 383.361C170.525 383.088 170.599 382.802 170.723 382.505C170.835 382.207 170.984 381.984 171.096 382.021C171.244 382.058 171.468 382.356 171.505 382.616C171.604 382.914 171.679 383.212 171.728 383.509C171.803 384.068 171.765 384.589 171.691 385.035C171.542 385.928 171.282 386.412 171.356 386.449Z" fill="#263238"/>
<path d="M269.712 378.597L263.348 370.261L263.013 369.815L252.147 377.89L262.195 388.98L261.823 400.181C256.24 401.595 255.385 404.423 255.385 404.423L267.032 404.386L277.638 383.993L269.712 378.597Z" fill="#E8505B"/>
<path opacity="0.6" d="M277.638 383.993L267.032 404.386L255.384 404.423L256.687 402.674L266.176 402.116L275.963 382.84L277.638 383.993Z" fill="white"/>
<path d="M261.897 395.046C262.008 395.157 262.678 394.785 263.571 394.785C264.465 394.785 265.134 395.195 265.209 395.083C265.32 394.971 264.688 394.301 263.571 394.264C262.492 394.264 261.785 394.934 261.897 395.046Z" fill="#263238"/>
<path d="M262.083 392.255C262.195 392.329 262.716 391.659 263.646 391.473C264.576 391.287 265.32 391.696 265.395 391.585C265.432 391.547 265.32 391.324 264.986 391.175C264.651 390.989 264.13 390.84 263.571 390.952C262.976 391.064 262.529 391.399 262.306 391.696C262.083 391.994 262.046 392.217 262.083 392.255Z" fill="#263238"/>
<path d="M262.009 388.682C262.157 388.757 262.53 388.087 263.348 387.789C264.167 387.491 264.874 387.789 264.948 387.64C264.986 387.603 264.837 387.417 264.502 387.305C264.204 387.194 263.683 387.119 263.162 387.305C262.678 387.491 262.306 387.863 262.157 388.161C261.971 388.459 261.934 388.645 262.009 388.682Z" fill="#263238"/>
<path d="M258.883 385.928C259.031 385.966 259.366 385.296 260.073 384.849C260.78 384.365 261.525 384.291 261.525 384.142C261.562 384.03 260.669 383.807 259.813 384.403C258.92 384.998 258.734 385.928 258.883 385.928Z" fill="#263238"/>
<path d="M257.357 383.546C257.431 383.584 257.804 383.1 258.399 382.318C258.721 381.847 259.044 381.376 259.367 380.904C259.553 380.644 259.776 380.383 259.925 379.974C259.962 379.751 259.962 379.49 259.85 379.267C259.701 379.006 259.404 378.858 259.143 378.895C258.622 378.969 258.325 379.23 258.064 379.453C257.766 379.713 257.543 379.974 257.357 380.272C256.948 380.83 256.799 381.463 256.724 381.946C256.613 382.988 256.948 383.584 256.985 383.546C257.096 383.509 256.91 382.914 257.096 382.021C257.171 381.537 257.394 381.016 257.729 380.532C257.903 380.284 258.114 380.048 258.362 379.825C258.622 379.639 258.92 379.416 259.18 379.416C259.292 379.416 259.329 379.416 259.404 379.527C259.441 379.602 259.441 379.713 259.441 379.825C259.367 380.086 259.143 380.383 258.957 380.644C258.659 381.14 258.362 381.624 258.064 382.095C257.58 382.951 257.32 383.509 257.357 383.546Z" fill="#263238"/>
<path d="M256.947 383.881C257.022 383.881 256.947 383.249 256.315 382.579C255.719 381.909 254.38 381.202 252.891 381.946C252.779 382.021 252.668 382.207 252.705 382.356C252.705 382.505 252.779 382.653 252.817 382.728C252.966 382.914 253.114 382.988 253.263 383.1C253.536 383.274 253.809 383.423 254.082 383.547C254.64 383.807 255.161 383.956 255.608 383.993C256.501 384.105 257.059 383.919 257.059 383.844C257.059 383.77 256.501 383.807 255.682 383.621C255.273 383.547 254.789 383.398 254.268 383.137C254.02 383.013 253.784 382.864 253.561 382.691C253.412 382.579 253.3 382.505 253.226 382.43C253.189 382.319 253.189 382.356 253.226 382.319C253.263 382.281 253.412 382.244 253.561 382.207C253.71 382.157 253.859 382.132 254.008 382.132C254.28 382.108 254.553 382.12 254.826 382.17C255.347 382.281 255.757 382.542 256.092 382.84C256.687 383.361 256.873 383.919 256.947 383.881Z" fill="#263238"/>
<path opacity="0.6" d="M268.335 383.658C268.335 384.44 268.93 385.035 269.712 385.035C270.493 385.035 271.089 384.44 271.089 383.658C271.089 382.877 270.493 382.281 269.712 382.281C268.93 382.281 268.335 382.877 268.335 383.658Z" fill="white"/>
<path opacity="0.3" d="M253.152 379.007L255.385 381.463L264.8 372.159L263.497 370.447L253.152 379.007Z" fill="black"/>
<path d="M224.162 184.9C230.34 182.741 237.15 182.444 243.476 184.044C246.304 184.751 249.207 185.905 251.03 188.212C253.152 190.928 253.449 194.613 253.784 198.036C254.454 205.07 255.719 211.991 257.617 218.764C259.217 224.421 261.19 229.966 262.046 235.771C262.902 241.576 262.529 247.754 259.552 252.815C255.012 260.63 245.337 264.091 236.294 264.239C231.53 264.314 226.693 263.607 222.45 261.411C218.245 259.216 214.747 255.345 213.705 250.731" fill="#E8505B"/>
<g opacity="0.5">
<path d="M224.162 184.9C230.34 182.741 237.15 182.444 243.476 184.044C246.304 184.751 249.207 185.905 251.03 188.212C253.152 190.928 253.449 194.613 253.784 198.036C254.454 205.07 255.719 211.991 257.617 218.764C259.217 224.421 261.19 229.966 262.046 235.771C262.902 241.576 262.529 247.754 259.552 252.815C255.012 260.63 245.337 264.091 236.294 264.239C231.53 264.314 226.693 263.607 222.45 261.411C218.245 259.216 214.747 255.345 213.705 250.731" fill="black"/>
</g>
<path d="M236.591 192.045C236.517 192.119 237.819 192.938 239.159 194.947C239.829 195.952 240.499 197.217 241.169 198.669C241.839 200.12 242.546 201.72 243.588 203.32C244.592 204.883 245.858 206.26 247.309 207.042C248.723 207.898 250.323 208.084 251.514 207.898C252.779 207.674 253.673 207.153 254.156 206.67C254.417 206.446 254.603 206.223 254.677 206.074C254.777 205.925 254.826 205.839 254.826 205.814C254.789 205.814 254.566 206.112 254.045 206.521C253.524 206.93 252.668 207.414 251.477 207.563C250.323 207.712 248.872 207.488 247.532 206.67C246.193 205.888 244.965 204.586 243.96 203.06C242.992 201.534 242.285 199.897 241.578 198.483C240.871 197.031 240.164 195.729 239.42 194.761C238.713 193.757 238.006 193.05 237.447 192.64C236.926 192.194 236.591 192.045 236.591 192.045Z" fill="#E0E0E0"/>
<path d="M249.654 261.783C249.678 261.758 249.691 261.56 249.691 261.188C249.666 260.741 249.654 260.183 249.654 259.513C249.616 258.062 249.542 255.978 249.43 253.373C249.207 248.2 248.798 241.055 248.165 233.203C247.57 225.314 246.825 218.169 246.267 213.033C245.97 210.466 245.709 208.382 245.523 206.968C245.424 206.273 245.349 205.715 245.3 205.293C245.225 204.921 245.188 204.735 245.188 204.735C245.163 204.735 245.163 204.921 245.188 205.293C245.238 205.739 245.287 206.298 245.337 206.968C245.486 208.456 245.672 210.54 245.932 213.071C246.416 218.243 247.086 225.351 247.681 233.24C248.314 241.092 248.761 248.237 249.095 253.41C249.244 255.941 249.356 258.025 249.468 259.513C249.517 260.208 249.554 260.766 249.579 261.188C249.604 261.56 249.629 261.758 249.654 261.783Z" fill="#E0E0E0"/>
<path d="M247.793 230.114C247.793 230.263 250.658 230.226 254.119 229.779C257.617 229.37 260.371 228.7 260.371 228.551C260.334 228.44 257.543 228.886 254.082 229.296C250.621 229.742 247.793 230.003 247.793 230.114Z" fill="#E0E0E0"/>
<path d="M250.1 230.04C250.026 230.04 249.84 230.561 249.728 231.417C249.654 231.826 249.579 232.347 249.542 232.943C249.542 233.24 249.542 233.575 249.728 233.91C249.877 234.245 250.249 234.543 250.696 234.543C250.919 234.543 251.142 234.468 251.291 234.282C251.44 234.096 251.477 233.873 251.514 233.724C251.552 233.352 251.44 233.017 251.365 232.757C251.217 232.198 251.031 231.715 250.882 231.305C250.51 230.487 250.175 230.077 250.1 230.114C250.063 230.152 250.286 230.635 250.547 231.417C250.696 231.826 250.844 232.31 250.956 232.868C250.993 233.129 251.068 233.426 251.031 233.65C251.031 233.91 250.882 234.059 250.696 234.059C250.175 234.059 249.989 233.464 249.989 232.943C249.989 232.384 250.026 231.863 250.063 231.454C250.1 230.598 250.175 230.077 250.1 230.04Z" fill="#E0E0E0"/>
<path d="M218.022 187.616L247.905 184.118C251.849 183.672 254.64 180.099 254.194 176.192L253.524 170.647C253.077 166.739 249.542 163.948 245.597 164.395L215.715 167.893C211.807 168.34 209.016 171.875 209.463 175.82L210.096 181.364C210.579 185.272 214.115 188.063 218.022 187.616Z" fill="#455A64"/>
<path d="M245.113 164.842C245.113 164.842 245.027 164.805 244.853 164.73C244.63 164.693 244.332 164.619 243.96 164.619C243.178 164.581 242.025 164.805 240.908 165.661C239.792 166.479 238.527 167.633 237.82 169.382C237.038 171.057 236.815 173.103 236.964 175.187C237.075 177.308 237.857 179.281 238.973 180.732C240.09 182.221 241.578 183.114 242.881 183.56C244.22 183.97 245.337 184.007 246.118 183.895C246.49 183.858 246.788 183.784 246.974 183.709C247.173 183.66 247.272 183.622 247.272 183.598C247.272 183.56 246.863 183.672 246.081 183.709C245.337 183.746 244.258 183.672 242.992 183.225C241.764 182.779 240.387 181.886 239.345 180.472C238.266 179.058 237.559 177.197 237.447 175.15C237.299 173.141 237.522 171.168 238.229 169.531C238.899 167.931 240.052 166.777 241.094 165.921C242.136 165.102 243.216 164.842 243.96 164.805C244.704 164.767 245.113 164.916 245.113 164.842Z" fill="#263238"/>
<path d="M228.033 166.367L232.647 165.921C231.419 166.256 230.377 167.112 229.67 168.191C229 169.27 228.628 170.498 228.405 171.763C227.586 177.048 230.414 182.779 234.954 185.644L231.233 186.128C231.233 186.128 220.59 176.601 228.033 166.367Z" fill="#263238"/>
<path d="M222.823 176.117C225.167 176.787 227.847 176.266 229.782 174.74C231.717 173.252 232.87 170.796 232.833 168.34C232.759 166.032 231.717 163.688 232.424 161.529C232.945 160.041 234.173 158.85 234.62 157.361C235.215 155.091 233.875 152.784 232.573 150.849C231.717 149.584 230.861 148.319 229.707 147.351C228.516 146.421 226.953 145.825 225.502 146.123" fill="#263238"/>
<path d="M201.686 146.309C201.797 148.058 200.644 149.584 199.49 150.886C198.374 152.189 197.071 153.529 196.811 155.278C196.401 158.292 199.379 161.12 198.746 164.134C198.411 165.772 197.108 167.037 196.848 168.675C196.625 170.275 197.481 171.8 198.523 172.991C199.565 174.219 200.867 175.224 201.797 176.489C202.765 177.866 203.286 179.504 203.993 181.029C204.7 182.555 205.63 184.044 207.119 184.862C209.315 186.053 212.441 185.495 214.152 187.356C215.79 189.179 217.799 189.44 219.809 190.817" fill="#263238"/>
<path d="M228.256 148.951C228.293 147.388 226.842 146.197 225.391 145.602C223.939 145.044 222.302 144.821 220.999 143.927C219.846 143.183 219.064 141.955 218.097 140.988C215.715 138.531 211.957 137.527 208.682 138.42C205.407 139.35 202.69 142.104 201.872 145.416C201.313 147.649 201.686 150.291 203.435 151.78C205.481 153.491 208.533 153.119 211.138 152.561C213.743 152.04 216.72 151.519 218.915 153.045C220.218 153.975 220.962 155.464 221.781 156.878C222.6 158.255 223.604 159.706 225.13 160.227C226.656 160.748 228.74 159.855 228.777 158.217" fill="#263238"/>
<path d="M222.079 149.286C223.418 149.435 224.46 150.589 224.423 151.966L222.86 187.43C222.786 191.598 216.683 193.943 212.18 193.868C207.64 193.757 207.491 191.524 207.454 187.542C207.342 180.881 207.379 178.387 207.379 178.425C207.379 178.425 201.648 177.457 200.457 170.014C199.899 166.293 200.085 160.19 200.42 155.241C200.718 150.738 203.695 145.267 208.161 145.751L222.079 149.286Z" fill="#FFBE9D"/>
<path d="M201.834 159.483C201.797 160.004 202.244 160.413 202.765 160.45C203.286 160.487 203.732 160.115 203.732 159.594C203.769 159.073 203.36 158.664 202.839 158.627C202.281 158.589 201.834 158.999 201.834 159.483Z" fill="#263238"/>
<path d="M201.723 158.404C201.834 158.515 202.579 157.994 203.621 157.994C204.625 157.994 205.407 158.515 205.519 158.366C205.556 158.329 205.444 158.106 205.109 157.845C204.774 157.622 204.216 157.399 203.583 157.399C202.951 157.399 202.393 157.622 202.095 157.883C201.797 158.106 201.686 158.329 201.723 158.404Z" fill="#263238"/>
<path d="M212.105 159.743C212.068 160.264 212.478 160.673 212.999 160.711C213.52 160.748 213.966 160.376 214.003 159.855C214.003 159.371 213.594 158.924 213.073 158.887C212.552 158.85 212.105 159.259 212.105 159.743Z" fill="#263238"/>
<path d="M211.845 158.59C211.994 158.738 212.701 158.18 213.743 158.217C214.747 158.18 215.529 158.738 215.641 158.59C215.678 158.552 215.566 158.329 215.231 158.069C214.896 157.845 214.375 157.585 213.705 157.622C213.073 157.622 212.552 157.845 212.217 158.069C211.919 158.329 211.808 158.552 211.845 158.59Z" fill="#263238"/>
<path d="M208.086 166.256C208.124 166.181 207.454 166.07 206.412 165.921C206.151 165.921 205.928 165.846 205.891 165.66C205.816 165.474 205.928 165.214 206.04 164.879C206.288 164.259 206.548 163.601 206.821 162.907C207.937 160.041 208.719 157.697 208.607 157.659C208.458 157.622 207.491 159.892 206.412 162.72C206.164 163.44 205.915 164.122 205.667 164.767C205.556 165.065 205.407 165.4 205.519 165.772C205.593 165.995 205.779 166.107 205.965 166.181C206.114 166.219 206.263 166.219 206.412 166.219C207.454 166.293 208.086 166.293 208.086 166.256Z" fill="#263238"/>
<path d="M207.379 178.425C207.379 178.425 212.366 178.759 217.352 175.782C217.352 175.782 214.933 180.918 207.453 180.174L207.379 178.425Z" fill="#EB996E"/>
<path d="M208.533 168.712C208.905 168.228 209.538 167.967 210.208 168.042C210.654 168.079 211.101 168.302 211.361 168.675C211.622 169.047 211.696 169.53 211.436 169.903C211.175 170.275 210.58 170.386 210.096 170.238C209.612 170.089 209.166 169.754 208.793 169.456C208.682 169.344 208.57 169.27 208.496 169.121C208.421 169.009 208.384 168.861 208.496 168.749" fill="#EB996E"/>
<path d="M211.138 166.963C210.952 166.963 210.952 168.079 209.984 168.861C209.054 169.642 207.863 169.531 207.826 169.679C207.826 169.754 208.123 169.903 208.607 169.903C209.091 169.94 209.835 169.754 210.393 169.27C210.989 168.786 211.249 168.154 211.287 167.707C211.324 167.223 211.212 166.963 211.138 166.963Z" fill="#263238"/>
<path d="M211.398 156.803C211.51 157.064 212.514 156.952 213.743 157.101C214.933 157.213 215.938 157.585 216.087 157.324C216.161 157.213 215.975 156.952 215.603 156.655C215.194 156.394 214.561 156.134 213.854 156.059C213.11 155.985 212.477 156.096 212.031 156.282C211.584 156.431 211.361 156.654 211.398 156.803Z" fill="#263238"/>
<path d="M202.132 155.427C202.281 155.65 203.025 155.389 203.844 155.389C204.7 155.352 205.444 155.538 205.593 155.315C205.667 155.203 205.555 154.943 205.258 154.72C204.923 154.496 204.402 154.347 203.844 154.347C203.248 154.385 202.727 154.571 202.43 154.831C202.132 155.055 202.02 155.315 202.132 155.427Z" fill="#263238"/>
<path d="M227.288 173.847C225.242 174.257 223.009 173.624 221.483 172.21C219.92 170.796 219.139 168.6 219.399 166.516C219.622 164.693 220.627 162.832 219.995 161.083C219.139 158.776 215.938 158.069 215.082 155.799C214.599 154.459 215.045 152.896 214.45 151.593C213.929 150.365 212.663 149.658 211.398 149.212C210.133 148.765 208.793 148.468 207.751 147.649C206.672 146.83 206.039 145.267 206.709 144.114C212.254 144.783 217.762 146.123 223.009 148.095C224.237 148.542 225.502 149.1 226.246 150.179C226.991 151.296 226.953 152.784 226.879 154.161C226.581 160.86 226.271 167.558 225.949 174.257" fill="#263238"/>
<path d="M231.308 180.062C231.271 180.062 231.42 179.318 230.936 178.201C230.675 177.643 230.266 177.01 229.633 176.378C229.038 175.745 228.219 175.187 227.252 174.666C226.247 174.145 225.13 173.661 223.977 172.991C222.86 172.359 221.67 171.428 220.888 170.126C220.516 169.456 220.293 168.674 220.293 167.893C220.293 167.074 220.442 166.293 220.628 165.511C220.776 164.73 220.925 163.948 220.776 163.167C220.628 162.385 220.107 161.753 219.4 161.343C218.692 160.934 217.874 160.674 217.129 160.339C216.385 159.966 215.604 159.483 215.194 158.701C214.785 157.957 214.673 157.138 214.636 156.357C214.599 155.575 214.636 154.831 214.636 154.087C214.636 153.342 214.562 152.673 214.338 152.04C214.115 151.407 213.706 150.849 213.222 150.514C212.18 149.733 210.989 149.472 209.91 149.212C208.831 148.914 207.826 148.616 207.082 148.095C206.338 147.574 205.928 146.83 205.742 146.235C205.556 145.602 205.668 145.081 205.779 144.783C205.891 144.486 206.04 144.337 206.04 144.337C206.04 144.374 205.928 144.486 205.854 144.821C205.742 145.118 205.705 145.602 205.891 146.197C206.077 146.756 206.486 147.425 207.193 147.909C207.938 148.393 208.905 148.691 209.984 148.951C211.026 149.212 212.292 149.435 213.408 150.254C213.966 150.626 214.413 151.221 214.673 151.891C214.934 152.598 214.971 153.342 215.008 154.087C215.008 154.831 214.971 155.575 215.008 156.32C215.046 157.101 215.157 157.845 215.529 158.515C215.901 159.185 216.571 159.632 217.278 159.966C218.023 160.339 218.841 160.562 219.586 161.008C219.958 161.269 220.33 161.529 220.59 161.902C220.888 162.237 221.074 162.683 221.149 163.092C221.335 163.986 221.149 164.804 221 165.586C220.814 166.367 220.665 167.149 220.665 167.893C220.665 168.637 220.851 169.344 221.223 169.94C221.93 171.205 223.046 172.061 224.163 172.731C225.279 173.363 226.396 173.884 227.363 174.443C228.331 174.964 229.187 175.559 229.819 176.229C230.415 176.862 230.824 177.531 231.047 178.127C231.308 178.722 231.345 179.206 231.345 179.541C231.345 179.727 231.345 179.839 231.345 179.913C231.32 180.012 231.308 180.062 231.308 180.062Z" fill="#263238"/>
<path d="M209.538 185.16C209.562 185.185 209.451 185.222 209.203 185.272C209.079 185.322 208.917 185.346 208.719 185.346C208.545 185.396 208.334 185.421 208.086 185.421C207.156 185.421 205.705 185.16 204.253 184.193C203.546 183.709 202.839 183.039 202.318 182.146C201.76 181.253 201.5 180.174 201.313 179.095C201.127 177.978 200.941 176.824 200.346 175.783C199.788 174.741 198.709 174.071 197.704 173.178C196.699 172.322 196.066 171.056 195.88 169.828C195.694 168.563 195.992 167.298 196.587 166.33C197.146 165.325 197.815 164.507 198.15 163.576C198.448 162.646 198.522 161.753 198.448 160.897C198.299 159.222 197.815 157.92 197.518 157.027C197.183 156.134 196.997 155.65 197.034 155.65C197.034 155.65 197.096 155.762 197.22 155.985C197.319 156.208 197.468 156.543 197.667 156.99C198.001 157.883 198.522 159.148 198.746 160.897C198.82 161.753 198.783 162.721 198.448 163.688C198.113 164.693 197.443 165.549 196.885 166.479C196.327 167.447 196.104 168.6 196.252 169.754C196.438 170.945 197.034 172.061 197.964 172.917C198.895 173.736 200.048 174.48 200.681 175.596C201.313 176.713 201.462 177.941 201.686 179.02C201.872 180.137 202.095 181.141 202.579 181.997C203.063 182.853 203.732 183.486 204.402 183.97C205.779 184.937 207.156 185.235 208.086 185.235C209.017 185.272 209.538 185.123 209.538 185.16Z" fill="#263238"/>
<path d="M231.233 149.584C231.233 149.584 231.308 149.696 231.345 149.919C231.382 150.105 231.345 150.477 231.085 150.812C230.787 151.11 230.34 151.445 229.745 151.482C229.112 151.482 228.48 151.221 227.847 150.924C227.214 150.589 226.507 150.291 225.651 150.254C224.833 150.217 223.939 150.328 223.009 150.514C222.116 150.663 221.111 150.886 220.032 150.886C218.99 150.886 217.836 150.589 216.981 149.77C216.162 148.989 215.678 147.984 215.231 147.053C214.785 146.123 214.376 145.193 213.817 144.486C212.701 142.96 210.803 142.551 209.501 142.923C208.124 143.258 207.305 144.188 206.896 144.821C206.486 145.49 206.375 145.937 206.337 145.937C206.337 145.937 206.362 145.825 206.412 145.602C206.449 145.416 206.561 145.118 206.784 144.746C207.156 144.076 207.975 143.034 209.426 142.662C210.133 142.439 210.989 142.439 211.845 142.699C212.664 142.923 213.482 143.481 214.078 144.262C214.71 145.044 215.12 145.937 215.566 146.867C216.013 147.798 216.497 148.765 217.241 149.472C218.022 150.217 219.064 150.514 220.032 150.514C221.037 150.514 222.042 150.291 222.972 150.142C223.902 149.993 224.833 149.882 225.689 149.956C226.544 149.993 227.326 150.328 227.959 150.663C228.591 150.998 229.187 151.259 229.745 151.259C230.266 151.259 230.712 150.961 230.973 150.7C231.233 150.403 231.308 150.105 231.271 149.919C231.271 149.696 231.196 149.621 231.233 149.584Z" fill="#455A64"/>
<path d="M227.065 147.463C224.609 146.904 222.749 144.486 222.823 141.992C222.86 139.462 224.87 137.155 227.326 136.708C228.517 136.485 229.894 136.782 230.601 137.75C231.27 138.68 231.233 140.057 232.089 140.839C233.057 141.62 234.471 141.285 235.662 141.546C237.56 141.955 238.788 144.002 238.602 145.9C238.378 147.798 236.927 149.435 235.141 150.179C233.354 150.886 231.345 150.812 229.521 150.254C227.661 149.733 225.986 148.765 224.349 147.76" fill="#263238"/>
<path d="M236.034 142.067C236.071 142.067 235.922 142.625 235.476 143.406C235.029 144.225 234.173 145.192 232.982 145.974C231.754 146.718 230.489 147.016 229.596 147.09C228.666 147.165 228.107 147.016 228.107 146.979C228.107 146.904 228.703 146.942 229.559 146.83C230.452 146.681 231.606 146.346 232.759 145.639C233.913 144.932 234.731 144.002 235.252 143.257C235.736 142.55 235.96 142.029 236.034 142.067Z" fill="#455A64"/>
<path d="M232.089 150.291C231.977 150.402 230.824 148.505 228.554 147.202C226.246 145.862 224.051 145.825 224.051 145.714C224.051 145.676 224.609 145.602 225.502 145.714C226.358 145.825 227.549 146.197 228.74 146.867C229.893 147.537 230.786 148.393 231.345 149.1C231.903 149.77 232.126 150.291 232.089 150.291Z" fill="#E8505B"/>
<path d="M177.832 231.38L165.812 229.035L167.97 232.124L162.797 234.692L158.48 232.682C158.48 232.682 158.815 233.612 159.746 235.213C160.713 236.776 161.941 238.041 162.76 238.078C163.988 238.19 164.211 238.19 162.76 238.078C162.76 238.078 163.021 239.567 164.36 240.981C165.179 241.837 167.263 243.176 169.793 242.506L177.906 239.567L177.832 231.38Z" fill="#FFBE9D"/>
<path d="M165.663 237.408C165.737 237.483 165.067 238.115 164.025 238.227C162.946 238.339 162.165 237.892 162.202 237.818C162.239 237.706 163.021 237.967 163.951 237.855C164.919 237.743 165.626 237.334 165.663 237.408Z" fill="#EB996E"/>
<path d="M167.263 239.976C167.337 240.051 166.816 240.646 165.923 240.869C165.03 241.093 164.286 240.832 164.323 240.758C164.323 240.646 165.03 240.72 165.812 240.497C166.593 240.311 167.189 239.902 167.263 239.976Z" fill="#EB996E"/>
<path d="M170.277 230.859C170.314 230.933 169.868 231.119 169.235 231.491C168.602 231.864 167.784 232.459 166.816 233.129C165.849 233.761 164.881 234.245 164.137 234.431C163.392 234.655 162.909 234.617 162.909 234.543C162.909 234.506 163.355 234.431 164.062 234.171C164.769 233.947 165.663 233.426 166.593 232.794C167.523 232.161 168.416 231.566 169.123 231.231C169.793 230.896 170.277 230.822 170.277 230.859Z" fill="#EB996E"/>
<path d="M243.477 251.401C243.477 251.401 243.886 251.661 244.928 253.485C248.054 259.104 249.319 272.575 237.448 284.595C222.116 300.113 204.142 325.53 204.142 325.53L190.038 385.184L168.714 380.569L179.692 318.534L209.798 262.676L243.477 251.401Z" fill="#263238"/>
<path d="M266.996 366.875L234.136 316.599L224.2 273.245L198.82 285.712L211.547 329.736L252.148 380.272L266.996 366.875Z" fill="#263238"/>
<path d="M190.038 385.184C190.013 385.184 190.025 385.085 190.075 384.886C190.125 384.663 190.187 384.378 190.261 384.031C190.447 383.249 190.67 382.17 191.005 380.756C191.638 377.89 192.606 373.76 193.796 368.698C196.178 358.502 199.453 344.472 203.1 328.991C203.398 327.801 203.695 326.573 203.956 325.456V325.419L203.993 325.382C213.296 313.511 221.781 302.942 227.996 295.462C231.122 291.741 233.689 288.763 235.476 286.754C236.369 285.712 237.113 284.968 237.597 284.447C237.82 284.199 238.006 284 238.155 283.851C238.279 283.727 238.341 283.665 238.341 283.665C238.341 283.665 238.279 283.74 238.155 283.888C238.031 284.037 237.857 284.236 237.634 284.484C237.188 285.042 236.48 285.786 235.587 286.828C233.838 288.875 231.308 291.889 228.219 295.648C222.042 303.165 213.594 313.734 204.291 325.642L204.328 325.568C204.067 326.684 203.77 327.875 203.472 329.066C199.788 344.584 196.476 358.576 194.057 368.773C192.829 373.834 191.824 377.927 191.154 380.793C190.782 382.17 190.522 383.286 190.336 384.031C190.236 384.403 190.162 384.688 190.112 384.886C190.063 385.085 190.038 385.184 190.038 385.184Z" fill="#455A64"/>
<path d="M228.517 267.254C228.554 267.291 228.368 267.403 228.033 267.552C227.661 267.7 227.14 267.886 226.507 268.035C225.168 268.333 223.232 268.482 221.223 267.886C219.213 267.291 217.65 266.137 216.683 265.17C216.236 264.686 215.864 264.277 215.678 263.942C215.455 263.644 215.38 263.458 215.38 263.421C215.455 263.384 215.901 264.091 216.869 264.984C217.836 265.877 219.399 266.956 221.335 267.514C223.27 268.073 225.13 267.998 226.433 267.775C227.735 267.514 228.517 267.179 228.517 267.254Z" fill="#455A64"/>
<path d="M246.639 253.931C233.801 260.704 212.961 264.723 206.263 262.007L206.039 237.26C206.039 237.26 196.922 222.188 196.885 216.494C196.81 208.27 207.044 189.589 207.044 189.589L222.376 185.495C225.986 185.495 228.926 186.314 231.27 187.579C237.187 190.705 240.388 197.292 239.718 203.953L235.847 228.589L246.639 253.931Z" fill="#FF3131"/>
<g opacity="0.3">
<path d="M230.191 187.542C231.084 187.393 231.382 188.845 230.749 189.514C230.116 190.147 229.112 190.184 228.256 190.296C224.237 190.929 221.148 194.352 219.697 198.111C218.245 201.907 218.096 206.037 217.873 210.056C217.65 214.113 217.241 218.243 215.343 221.816C211.807 215.564 211.249 207.712 213.891 201.013C216.496 194.352 222.264 188.956 229.074 186.761" fill="black"/>
</g>
<path d="M231.27 187.579C231.27 187.579 229.037 183.932 221.632 185.495C216.719 186.575 205.89 196.957 208.905 213.629C211.919 230.301 219.994 236.218 219.994 236.218C219.994 236.218 212.589 210.689 216.719 199.525C220.813 188.398 231.27 187.579 231.27 187.579Z" fill="#263238"/>
<g opacity="0.3">
<path d="M206.337 242.544C209.388 243.511 212.328 244.739 215.491 245.186C218.692 245.595 222.004 245.447 224.981 244.181C229.074 242.432 232.089 238.711 233.652 234.543C235.215 230.412 235.438 225.835 235.029 221.406C232.238 224.867 232.573 229.966 230.191 233.724C228.702 236.069 226.283 237.669 223.79 238.934C218.394 241.651 212.366 242.656 206.337 242.544Z" fill="black"/>
</g>
<path d="M215.529 217.239C215.529 217.239 214.524 236.032 237.448 232.31L239.755 237.743C239.755 237.743 215.678 242.842 212.254 222.858L215.529 217.239Z" fill="#263238"/>
<path d="M236.406 193.906C238.415 196.771 238.936 200.381 238.118 203.767L232.387 229.333C229.968 236.515 222.972 240.907 218.618 241.465L177.906 245.782V230.599L215.715 224.979L217.464 204.288C217.613 201.497 218.99 196.511 220.776 194.352C222.748 191.933 225.8 188.659 230.749 189.515C233.801 189.998 235.103 192.045 236.406 193.906Z" fill="#FF3131"/>
<path d="M237.596 204.772C237.596 204.772 237.584 204.971 237.559 205.368C237.51 205.74 237.435 206.285 237.336 207.005C237.15 208.419 236.852 210.466 236.406 212.996C235.959 215.564 235.364 218.541 234.582 221.853C234.21 223.528 233.801 225.277 233.317 227.063C232.796 228.849 232.2 230.673 231.307 232.459C230.451 234.208 229.261 235.808 227.884 237.074C226.507 238.339 224.944 239.306 223.381 240.013C220.292 241.465 217.203 242.023 214.636 242.284C212.068 242.544 209.984 242.544 208.57 242.581C207.875 242.581 207.317 242.581 206.895 242.581C206.523 242.556 206.337 242.544 206.337 242.544C206.337 242.519 206.523 242.507 206.895 242.507C207.317 242.482 207.875 242.457 208.57 242.432C209.984 242.358 212.068 242.321 214.636 242.023C217.166 241.688 220.18 241.13 223.232 239.679C224.758 238.971 226.283 238.004 227.623 236.776C228.963 235.548 230.116 234.022 230.972 232.273C231.828 230.524 232.461 228.701 232.945 226.951C233.428 225.165 233.875 223.453 234.247 221.779C235.029 218.467 235.661 215.49 236.145 212.959C236.629 210.429 236.964 208.382 237.187 206.968C237.311 206.298 237.41 205.752 237.485 205.33C237.534 204.958 237.572 204.772 237.596 204.772Z" fill="#263238"/>
<path d="M216.794 229.333C216.682 229.37 216.273 228.366 215.864 227.138C215.454 225.872 215.231 224.83 215.343 224.793C215.417 224.756 215.826 225.761 216.236 226.989C216.645 228.254 216.906 229.296 216.794 229.333Z" fill="#263238"/>
<path d="M219.102 228.738C219.064 228.85 218.022 228.217 217.018 227.138C216.013 226.096 215.455 225.054 215.529 224.979C215.603 224.905 216.311 225.835 217.315 226.877C218.283 227.919 219.176 228.663 219.102 228.738Z" fill="#263238"/>
<path d="M181.441 230.078C181.441 230.053 181.503 230.04 181.627 230.04C181.751 230.016 181.925 229.978 182.148 229.929C182.619 229.854 183.264 229.743 184.083 229.594C185.795 229.333 188.288 228.961 191.34 228.477C197.48 227.547 206.039 226.245 215.678 224.793L215.491 224.979C215.64 223.565 215.789 222.077 215.938 220.551C216.422 215.192 216.943 210.057 217.166 205.405C217.389 203.06 217.799 200.865 218.431 198.855C219.101 196.883 219.92 195.059 221.111 193.72C223.53 191.078 226.209 189.701 228.219 189.44C229.186 189.291 229.968 189.403 230.489 189.477C230.749 189.515 230.935 189.589 231.084 189.626C231.208 189.651 231.27 189.676 231.27 189.701C231.27 189.775 230.191 189.291 228.219 189.589C226.283 189.887 223.678 191.264 221.334 193.906C220.18 195.208 219.362 196.995 218.766 198.967C218.134 200.939 217.724 203.098 217.538 205.442C217.315 210.094 216.794 215.229 216.31 220.588C216.161 222.114 216.012 223.602 215.901 225.016L215.864 225.165H215.715C206.076 226.579 197.554 227.808 191.377 228.738C188.288 229.147 185.832 229.519 184.12 229.743C183.277 229.842 182.619 229.929 182.148 230.003C181.95 230.028 181.776 230.053 181.627 230.078C181.503 230.078 181.441 230.078 181.441 230.078Z" fill="#263238"/>
<path d="M204.737 242.432C204.662 242.47 204.216 239.009 203.806 234.766C203.36 230.487 203.099 227.063 203.211 227.026C203.322 227.026 203.769 230.45 204.178 234.729C204.588 238.972 204.848 242.432 204.737 242.432Z" fill="#FAFAFA"/>
<path d="M234.545 219.36C234.545 219.434 233.577 219.434 231.977 219.434C230.377 219.397 228.144 219.323 225.725 219.248C223.269 219.136 221.074 219.062 219.473 218.95C217.873 218.839 216.906 218.764 216.906 218.727C216.906 218.653 217.911 218.653 219.511 218.69C221.074 218.69 223.306 218.764 225.725 218.839C228.181 218.95 230.377 219.062 231.977 219.136C233.577 219.248 234.545 219.323 234.545 219.36Z" fill="#FAFAFA"/>
<path d="M208.719 214.559C208.719 214.596 208.086 214.671 207.007 214.783C205.965 214.857 204.514 214.894 202.914 214.857C201.313 214.82 199.862 214.708 198.82 214.596C197.778 214.485 197.146 214.373 197.146 214.299C197.146 214.262 197.815 214.299 198.857 214.336C199.899 214.373 201.351 214.448 202.951 214.485C204.514 214.522 205.965 214.485 207.007 214.485C208.049 214.485 208.719 214.485 208.719 214.559Z" fill="#FAFAFA"/>
<path d="M212.068 196.883C212.031 196.957 210.468 196.139 208.421 195.394C206.412 194.613 204.7 194.166 204.7 194.055C204.737 193.98 206.486 194.241 208.57 195.022C210.617 195.804 212.142 196.771 212.068 196.883Z" fill="#FAFAFA"/>
<path d="M241.653 243.288C241.653 243.313 241.541 243.375 241.318 243.474C241.045 243.573 240.71 243.71 240.313 243.884C239.457 244.218 238.229 244.702 236.666 245.223C233.54 246.302 229.186 247.642 224.274 248.796C219.399 249.912 214.859 250.582 211.584 250.954C209.947 251.14 208.644 251.289 207.714 251.326C207.292 251.351 206.945 251.376 206.672 251.401C206.424 251.425 206.3 251.425 206.3 251.401C206.3 251.376 206.411 251.351 206.635 251.326C206.932 251.301 207.292 251.252 207.714 251.177C208.607 251.103 209.947 250.917 211.584 250.694C214.822 250.247 219.325 249.503 224.2 248.386C229.075 247.27 233.466 246.005 236.592 244.963C238.155 244.479 239.42 244.032 240.276 243.735C240.673 243.611 241.008 243.499 241.281 243.4C241.504 243.325 241.628 243.288 241.653 243.288Z" fill="#FAFAFA"/>
<path d="M239.196 198.781C239.196 198.892 234.805 198.855 229.409 198.669C224.013 198.483 219.622 198.26 219.622 198.148C219.622 198.036 224.013 198.111 229.409 198.297C234.842 198.446 239.196 198.669 239.196 198.781Z" fill="#FAFAFA"/>
<path d="M186.763 244.665C186.651 244.665 186.428 241.353 186.279 237.222C186.13 233.129 186.093 229.78 186.205 229.78C186.316 229.78 186.502 233.129 186.688 237.222C186.837 241.316 186.874 244.665 186.763 244.665Z" fill="#FAFAFA"/>
<path d="M103.516 168.526C110.065 167.298 117.024 168.042 123.202 170.61C125.956 171.764 128.709 173.364 130.198 175.969C131.947 179.058 131.649 182.816 131.463 186.351C131.091 193.571 131.352 200.79 132.208 207.935C132.952 213.89 134.143 219.807 134.105 225.798C134.105 231.827 132.766 238.041 129.007 242.693C123.202 249.912 112.856 251.922 103.702 250.694C98.8641 250.061 94.0635 248.61 90.1189 245.744C86.2114 242.879 83.2343 238.451 82.8994 233.576" fill="#455A64"/>
<path d="M114.977 177.681C114.903 177.718 116.094 178.76 117.136 180.993C117.694 182.109 118.178 183.486 118.624 185.049C119.108 186.612 119.555 188.398 120.336 190.147C121.118 191.896 122.234 193.459 123.574 194.501C124.876 195.543 126.439 195.99 127.705 195.99C129.007 195.953 129.975 195.543 130.57 195.134C130.868 194.948 131.054 194.762 131.203 194.613C131.327 194.489 131.376 194.414 131.351 194.39C131.314 194.352 131.054 194.65 130.458 194.985C129.9 195.32 128.933 195.655 127.705 195.618C126.514 195.618 125.062 195.171 123.834 194.129C122.606 193.124 121.564 191.636 120.783 189.961C120.039 188.249 119.555 186.5 119.071 184.937C118.587 183.374 118.029 181.96 117.471 180.844C116.875 179.727 116.28 178.909 115.796 178.388C115.312 177.867 114.977 177.643 114.977 177.681Z" fill="#263238"/>
<path d="M117.62 250.247C117.62 250.247 117.657 250.049 117.731 249.652C117.781 249.23 117.855 248.672 117.955 247.977C118.141 246.489 118.364 244.368 118.662 241.725C119.22 236.441 119.89 229.147 120.448 221.072C121.043 212.996 121.378 205.702 121.602 200.381C121.676 197.739 121.75 195.58 121.75 194.129C121.775 193.434 121.788 192.864 121.788 192.417C121.788 192.02 121.775 191.822 121.75 191.822C121.726 191.822 121.701 192.02 121.676 192.417C121.651 192.839 121.614 193.397 121.564 194.092C121.49 195.655 121.378 197.776 121.229 200.381C120.969 205.665 120.522 212.996 119.964 221.035C119.406 229.11 118.773 236.404 118.29 241.688C118.066 244.293 117.88 246.414 117.769 247.94C117.694 248.635 117.644 249.205 117.62 249.652C117.595 250.049 117.595 250.247 117.62 250.247Z" fill="#263238"/>
<path d="M120.56 217.909C120.523 218.057 123.425 218.467 126.998 218.541C130.608 218.653 133.51 218.392 133.51 218.244C133.51 218.132 130.608 218.132 127.035 218.057C123.463 217.946 120.56 217.797 120.56 217.909Z" fill="#263238"/>
<path d="M122.867 218.206C122.83 218.169 122.569 218.653 122.271 219.509C122.16 219.955 122.011 220.439 121.899 221.035C121.862 221.332 121.788 221.667 121.899 222.039C122.011 222.411 122.346 222.784 122.792 222.858C123.016 222.895 123.276 222.821 123.462 222.672C123.611 222.486 123.723 222.3 123.76 222.114C123.834 221.742 123.797 221.407 123.76 221.146C123.723 220.551 123.611 220.03 123.462 219.583C123.239 218.727 122.941 218.244 122.904 218.244C122.83 218.281 122.978 218.802 123.127 219.658C123.202 220.104 123.276 220.588 123.313 221.183C123.313 221.444 123.351 221.742 123.276 222.002C123.239 222.263 123.053 222.411 122.867 222.374C122.346 222.263 122.234 221.63 122.346 221.109C122.42 220.551 122.532 220.03 122.606 219.62C122.792 218.764 122.941 218.243 122.867 218.206Z" fill="#263238"/>
<path d="M96.7056 170.35L127.853 171.354C131.798 171.503 135.073 168.414 135.222 164.47L135.408 158.404C135.557 154.459 132.468 151.184 128.523 151.036L97.3755 150.031C93.4308 149.882 90.1188 152.971 90.0071 156.915L89.8211 162.981C89.6722 166.926 92.761 170.201 96.7056 170.35Z" fill="#263238"/>
<path d="M127.779 151.445C127.779 151.42 127.692 151.358 127.519 151.259C127.333 151.185 127.035 151.073 126.626 150.999C125.844 150.85 124.616 150.924 123.388 151.631C122.16 152.264 120.671 153.269 119.704 154.906C118.662 156.469 118.104 158.516 117.955 160.674C117.732 162.832 118.215 164.916 119.146 166.591C120.039 168.228 121.416 169.382 122.681 170.015C123.946 170.647 125.1 170.871 125.881 170.871C126.253 170.871 126.588 170.871 126.774 170.833C126.973 170.784 127.072 170.759 127.072 170.759C127.072 170.722 126.663 170.759 125.881 170.685C125.137 170.61 124.021 170.35 122.83 169.717C121.639 169.084 120.374 167.931 119.518 166.368C118.662 164.768 118.253 162.795 118.439 160.711C118.587 158.627 119.108 156.655 120.076 155.129C121.006 153.566 122.383 152.599 123.537 151.929C124.728 151.222 125.844 151.11 126.626 151.185C127.37 151.259 127.742 151.482 127.779 151.445Z" fill="#455A64"/>
<path d="M110.251 150.366L114.978 150.589C113.675 150.775 112.521 151.482 111.628 152.45C110.772 153.417 110.214 154.645 109.805 155.873C108.167 161.121 110.14 167.335 114.308 170.908L110.475 170.871C110.475 170.871 101.134 159.595 110.251 150.366Z" fill="#455A64"/>
<path d="M87.1046 141.434C85.1695 136.782 85.0579 128.633 88.035 124.353C90.9749 120.074 96.5197 117.245 101.618 116.166C102.437 115.98 103.367 115.868 104.186 116.203C104.967 116.538 105.563 117.506 105.228 118.287C106.232 117.655 107.274 117.022 108.465 116.724C109.656 116.464 110.996 116.65 111.852 117.469C112.708 118.324 112.857 119.887 111.926 120.706C113.34 120.185 115.052 120.557 116.094 121.674C117.136 122.753 117.434 124.502 116.838 125.879C116.28 127.219 115.089 128.707 114.01 129.675C112.931 130.642 112.782 131.647 112.931 133.098" fill="#263238"/>
<path d="M88.3328 132.875L86.9931 161.492C86.7698 166.367 90.64 170.461 95.515 170.424C100.055 170.424 103.814 166.851 104.037 162.311C104.111 160.153 104.223 158.329 104.223 158.106C104.223 158.106 111.554 157.771 112.41 150.589C112.819 147.128 113.117 139.871 113.303 133.359C113.489 126.325 108.242 120.334 101.246 119.59L100.539 119.515C93.0217 119.143 88.4816 125.321 88.3328 132.875Z" fill="#FFBE9D"/>
<path d="M104.26 158.032C104.26 158.032 99.6459 157.883 95.1431 154.347C95.1431 154.347 96.5944 158.85 103.851 158.962L104.26 158.032Z" fill="#EB996E"/>
<path d="M110.661 137.936C110.624 138.494 110.14 138.904 109.582 138.866C108.987 138.829 108.577 138.383 108.615 137.824C108.652 137.266 109.136 136.857 109.731 136.894C110.289 136.931 110.699 137.378 110.661 137.936Z" fill="#263238"/>
<path d="M111.368 136.708C111.22 136.82 110.513 136.187 109.396 136.038C108.28 135.927 107.424 136.41 107.312 136.262C107.275 136.187 107.424 135.964 107.796 135.741C108.168 135.517 108.801 135.331 109.471 135.406C110.178 135.48 110.736 135.815 111.034 136.113C111.331 136.41 111.443 136.671 111.368 136.708Z" fill="#263238"/>
<path d="M99.7946 137.155C99.7574 137.676 99.2364 138.122 98.6782 138.085C98.12 138.048 97.6735 137.564 97.7107 137.043C97.7479 136.485 98.2689 136.076 98.8271 136.113C99.3853 136.15 99.8318 136.597 99.7946 137.155Z" fill="#263238"/>
<path d="M100.465 135.74C100.316 135.852 99.6088 135.219 98.4923 135.071C97.4131 134.959 96.52 135.443 96.4084 135.294C96.3712 135.219 96.52 134.996 96.8922 134.773C97.2643 134.55 97.8969 134.364 98.604 134.438C99.2738 134.512 99.832 134.847 100.13 135.145C100.427 135.443 100.539 135.703 100.465 135.74Z" fill="#263238"/>
<path d="M103.591 144.374C103.591 144.3 104.298 144.263 105.414 144.263C105.712 144.263 105.972 144.225 106.047 144.039C106.159 143.853 106.047 143.518 105.972 143.183C105.774 142.464 105.563 141.72 105.34 140.95C104.521 137.75 103.963 135.145 104.075 135.108C104.223 135.071 105.005 137.638 105.824 140.839C106.022 141.608 106.208 142.352 106.382 143.072C106.456 143.407 106.605 143.779 106.419 144.188C106.307 144.411 106.084 144.523 105.898 144.56C105.712 144.597 105.563 144.597 105.414 144.56C104.298 144.523 103.591 144.449 103.591 144.374Z" fill="#263238"/>
<path d="M100.242 144.784C100.428 144.821 100.316 146.012 101.246 146.979C102.177 147.947 103.479 147.947 103.479 148.096C103.479 148.17 103.144 148.319 102.623 148.282C102.065 148.244 101.321 147.984 100.762 147.389C100.167 146.793 99.981 146.049 100.018 145.565C100.018 145.081 100.167 144.784 100.242 144.784Z" fill="#263238"/>
<path d="M101.209 131.424C101.06 131.721 99.9808 131.461 98.6783 131.498C97.3758 131.461 96.2594 131.721 96.1106 131.461C96.0734 131.312 96.2594 131.052 96.7432 130.791C97.1898 130.568 97.8968 130.345 98.6783 130.345C99.4598 130.345 100.167 130.568 100.613 130.791C101.06 131.052 101.283 131.312 101.209 131.424Z" fill="#263238"/>
<path d="M111.294 133.47C111.07 133.694 110.363 133.359 109.433 133.247C108.503 133.098 107.721 133.21 107.572 132.95C107.498 132.801 107.647 132.577 108.019 132.354C108.391 132.168 108.949 132.019 109.582 132.131C110.214 132.205 110.735 132.503 111.033 132.801C111.331 133.061 111.405 133.359 111.294 133.47Z" fill="#263238"/>
<path d="M88.3329 138.271C88.2212 138.197 83.5695 136.262 83.1602 141.211C82.788 146.16 87.8491 145.491 87.8491 145.379C87.8863 145.23 88.3329 138.271 88.3329 138.271Z" fill="#FFBE9D"/>
<path d="M86.5095 143.369C86.4723 143.369 86.3978 143.444 86.249 143.481C86.1001 143.555 85.8396 143.555 85.6163 143.444C85.0954 143.22 84.7232 142.364 84.7604 141.471C84.7976 141.025 84.9093 140.578 85.0953 140.243C85.2814 139.908 85.5419 139.685 85.8024 139.648C86.0629 139.611 86.249 139.76 86.2862 139.908C86.3606 140.057 86.3234 140.169 86.3234 140.169C86.3606 140.169 86.435 140.094 86.435 139.871C86.3978 139.797 86.3606 139.648 86.249 139.573C86.1373 139.462 85.9513 139.387 85.7652 139.387C85.3931 139.387 85.0209 139.722 84.8349 140.094C84.6116 140.467 84.4627 140.95 84.4255 141.434C84.3883 142.439 84.8349 143.406 85.5047 143.667C85.8396 143.779 86.1373 143.704 86.3234 143.593C86.4723 143.481 86.5095 143.369 86.5095 143.369Z" fill="#EB996E"/>
<path d="M117.136 124.279C117.248 130.717 109.135 132.764 105.972 128.93C104.484 127.144 103.256 124.986 101.134 124.056C99.6832 123.46 98.0085 123.609 96.5944 124.204C96.5696 124.204 96.5572 124.204 96.5572 124.204C94.436 125.135 93.0591 127.368 92.5753 129.638C91.8683 132.764 92.166 135.592 91.124 138.42C90.9752 138.829 90.7891 139.276 90.4169 139.499C89.8215 139.909 88.9656 139.462 88.519 138.867C87.812 137.936 87.6259 136.708 87.5143 135.517C87.3282 132.838 87.5515 130.084 88.4446 127.516C89.3005 124.986 90.8263 122.641 92.9847 120.967C95.6641 118.92 99.1622 118.101 102.511 118.511C105.861 118.92 108.987 120.52 111.443 122.827C112.596 123.907 113.601 125.172 114.085 126.66" fill="#263238"/>
<path d="M112.187 120.334C112.187 120.334 112.447 120.297 112.894 120.409C113.303 120.557 113.899 120.855 114.42 121.45C114.978 122.046 115.424 122.939 115.462 124.018C115.536 125.135 115.089 126.288 114.271 127.219C113.489 128.149 112.447 128.782 111.442 129.079C110.438 129.414 109.507 129.489 108.726 129.489C107.907 129.489 107.275 129.377 106.865 129.303C106.419 129.191 106.195 129.117 106.195 129.117C106.233 129.042 107.163 129.265 108.689 129.228C109.47 129.191 110.4 129.079 111.331 128.782C112.298 128.447 113.229 127.851 113.973 126.958C114.717 126.102 115.164 125.023 115.127 124.055C115.089 123.051 114.717 122.195 114.233 121.637C113.75 121.041 113.229 120.706 112.819 120.557C112.447 120.409 112.187 120.371 112.187 120.334Z" fill="#455A64"/>
<path d="M109.061 117.841C109.061 117.804 109.247 117.766 109.545 117.952C109.805 118.101 110.14 118.473 110.215 119.069C110.289 119.627 110.066 120.297 109.694 120.929C109.322 121.525 108.838 122.158 108.205 122.716C106.977 123.832 105.526 124.428 104.484 124.688C103.442 124.949 102.772 124.874 102.772 124.837C102.772 124.762 103.405 124.725 104.409 124.428C105.414 124.13 106.754 123.497 107.945 122.418C108.54 121.897 109.024 121.302 109.396 120.743C109.768 120.148 109.991 119.59 109.954 119.106C109.917 118.585 109.657 118.25 109.433 118.064C109.21 117.878 109.061 117.841 109.061 117.841Z" fill="#455A64"/>
<path d="M88.1467 188.137L90.454 171.242L57.1849 177.904L26.9302 167.409L18.7432 175.82L50.933 192.417C53.8357 193.794 57.0733 194.203 60.1992 193.571L88.1467 188.137Z" fill="#FFBE9D"/>
<path d="M26.9301 167.409C26.9301 167.409 15.3566 161.865 14.6123 161.678C14.0169 161.53 5.2717 161.083 1.28983 160.86C-0.273142 160.785 -0.496424 163.13 1.06655 163.353C1.11617 163.353 1.16579 163.353 1.21541 163.353C3.44823 163.539 8.32322 164.656 8.32322 164.656L6.0904 169.865C5.86712 170.424 6.05319 171.019 6.49975 171.354L13.2354 176.341C15.0217 177.159 17.1429 176.973 18.7431 175.82L21.7202 176.415L26.9301 167.409Z" fill="#FFBE9D"/>
<path d="M6.05322 170.163C6.2765 171.168 8.58376 173.14 10.37 173.14C10.7421 173.14 11.1515 173.029 11.412 172.768C11.7097 172.508 11.8213 172.061 11.6725 171.689C11.5609 171.466 11.3748 171.317 11.1515 171.168C9.83662 170.151 8.52173 169.121 7.20685 168.079" fill="#FFBE9D"/>
<path d="M7.20685 168.079C7.24406 168.042 7.87669 168.489 8.88146 169.196C9.40246 169.593 9.97307 170.027 10.5933 170.498C10.9282 170.721 11.2259 170.945 11.5981 171.28C11.7841 171.466 11.933 171.726 11.933 171.987C11.933 172.284 11.8586 172.545 11.6725 172.768C11.3004 173.215 10.7794 173.326 10.2956 173.326C9.81181 173.326 9.40246 173.177 8.99311 173.029C8.24883 172.694 7.6162 172.247 7.16963 171.838C6.72307 171.391 6.38815 171.019 6.23929 170.684C6.05322 170.386 6.05322 170.163 6.05322 170.163C6.09044 170.163 6.16486 170.349 6.35093 170.61C6.537 170.87 6.87192 171.242 7.3557 171.614C7.80227 171.987 8.4349 172.396 9.14196 172.694C9.5141 172.843 9.88623 172.954 10.2956 172.954C10.7049 172.954 11.1143 172.843 11.3748 172.545C11.5981 172.21 11.5981 171.801 11.3376 171.54C11.0399 171.28 10.6677 171.019 10.37 170.759C9.77459 170.287 9.21639 169.841 8.6954 169.419C7.76505 168.637 7.16963 168.154 7.20685 168.079Z" fill="#EB996E"/>
<path d="M15.4309 173.178C15.3937 173.215 15.1704 173.066 14.9099 172.694C14.6866 172.322 14.4261 171.726 14.4261 171.019C14.3889 170.349 14.5378 169.754 14.761 169.345C14.9843 168.972 15.1704 168.786 15.2076 168.824C15.3192 168.861 14.7238 169.754 14.7982 171.019C14.8355 172.284 15.5053 173.103 15.4309 173.178Z" fill="#EB996E"/>
<path d="M10.7794 170.498C11.1515 171.056 11.8586 171.317 12.4912 171.13C13.1238 170.944 13.5704 170.349 13.5704 169.679C13.5704 168.86 12.9005 168.153 12.2679 167.595C11.3003 166.727 10.3328 165.858 9.36523 164.99" fill="#FFBE9D"/>
<path d="M9.36513 164.99C9.40235 164.953 9.88612 165.288 10.5932 165.884C10.9901 166.231 11.3995 166.591 11.8212 166.963C12.305 167.372 12.826 167.781 13.3098 168.414C13.5331 168.712 13.6819 169.047 13.7563 169.419C13.8308 169.791 13.7191 170.163 13.5703 170.461C13.2354 171.093 12.5655 171.391 12.0817 171.354C11.5607 171.317 11.1886 171.056 11.0025 170.87C10.8165 170.684 10.7793 170.535 10.7793 170.498C10.8165 170.498 10.8909 170.61 11.1142 170.759C11.3002 170.907 11.6352 171.056 12.0817 171.056C12.4911 171.056 12.9749 170.796 13.2354 170.312C13.5331 169.828 13.3842 169.158 12.9749 168.637C12.5655 168.079 12.0445 167.67 11.598 167.223C11.1762 166.826 10.7793 166.454 10.4071 166.107C9.73727 165.437 9.32792 165.028 9.36513 164.99Z" fill="#EB996E"/>
<path d="M15.7659 164.544C13.4214 165.102 11.1886 166.032 9.14187 167.298C9.03023 167.372 8.88138 167.484 8.84416 167.595C8.80695 167.819 8.9558 168.005 9.10466 168.116C9.70008 168.6 10.5188 168.675 11.3003 168.6C12.0445 168.563 12.7888 168.377 13.5703 168.377C14.91 168.414 16.1008 169.047 17.4033 169.382C18.6686 169.754 20.2316 169.754 21.0875 168.749" fill="#FFBE9D"/>
<path d="M21.0876 168.749C21.1124 168.749 21.0752 168.811 20.9759 168.935C20.9015 169.009 20.7154 169.158 20.4922 169.307C20.0456 169.605 19.2269 169.791 18.2965 169.717C17.329 169.642 16.2498 169.158 15.0962 168.823C14.5008 168.675 13.8681 168.526 13.2355 168.563C12.5656 168.6 11.8958 168.786 11.1515 168.823C10.4445 168.861 9.66297 168.749 9.03034 168.302C8.88149 168.191 8.73263 168.042 8.6582 167.819C8.6582 167.707 8.6582 167.521 8.73263 167.446C8.80706 167.335 8.88149 167.26 8.95591 167.223C9.25362 167.037 9.51412 166.888 9.77461 166.702C10.891 166.107 11.933 165.66 12.7889 165.325C13.6821 164.99 14.4263 164.804 14.9473 164.693C15.4683 164.544 15.7288 164.507 15.766 164.544C15.766 164.618 14.6124 164.879 12.9006 165.586C12.0447 165.921 11.0399 166.405 9.96068 167.037C9.70019 167.186 9.43969 167.335 9.1792 167.521C9.06755 167.595 9.03034 167.67 9.03034 167.744C9.06755 167.819 9.14198 167.93 9.25362 168.005C9.77461 168.377 10.4445 168.451 11.1515 168.414C11.8214 168.377 12.5284 168.228 13.1983 168.191C13.9053 168.154 14.5752 168.302 15.2078 168.488C16.3987 168.861 17.4034 169.344 18.3338 169.419C19.2269 169.568 19.9712 169.419 20.4177 169.196C20.9015 168.972 21.0876 168.712 21.0876 168.749Z" fill="#EB996E"/>
<path d="M57.7056 183.746C57.594 183.784 57.2218 182.481 57.1474 180.769C57.1102 179.095 57.4451 177.755 57.5195 177.755C57.6312 177.792 57.4823 179.132 57.5568 180.769C57.594 182.407 57.8173 183.746 57.7056 183.746Z" fill="#EB996E"/>
<path d="M86.8065 163.39L77.3542 173.996C77.3542 173.996 72.3304 210.726 71.9582 213.629C71.5861 216.494 70.6557 225.723 70.6557 228.254C70.6557 230.784 68.5718 248.796 68.5718 248.796C68.5718 248.796 108.614 257.132 115.312 248.796L113.228 233.352L115.052 195.059C115.052 195.059 118.029 168.451 104.036 162.311C104.036 162.311 95.1424 167.633 86.8065 163.39Z" fill="#FF3131"/>
<path d="M110.437 166.07C110.437 166.07 107.683 163.353 98.8637 165.623C89.5602 168.042 84.648 176.713 86.9553 201.348C88.8904 221.667 96.8913 224.607 96.8913 224.607C96.8913 224.607 92.5001 193.943 93.2816 181.141C94.212 164.953 110.437 168.972 110.437 168.972C112.744 168.228 110.437 166.07 110.437 166.07Z" fill="#263238"/>
<path d="M86.8067 163.39L78.6569 165.623L60.3105 176.862L65.5205 193.459L76.3124 192.268L86.8067 163.39Z" fill="#FF3131"/>
<path d="M76.2007 174.889C76.3124 174.889 75.8286 180.843 75.1588 188.137C74.4889 195.468 73.8191 201.385 73.7446 201.348C73.633 201.348 74.0796 195.431 74.7494 188.1C75.4565 180.806 76.0891 174.889 76.2007 174.889Z" fill="#263238"/>
<path d="M113.564 226.468C113.564 226.468 110.959 234.841 101.73 221.034C92.5378 207.191 93.8031 213.368 93.8031 213.368L91.9424 215.638C91.9424 215.638 102.065 238.45 113.415 234.878L113.564 226.468Z" fill="#263238"/>
<path opacity="0.3" d="M75.8284 178.871L68.5718 193.124L74.5632 192.454L75.8284 178.871Z" fill="black"/>
<g opacity="0.3">
<path d="M72.4795 216.68C77.8011 222.486 84.1646 227.361 91.1236 231.008C94.0634 232.533 97.301 233.873 100.576 233.464C104.186 232.98 107.274 230.375 108.949 227.175C110.661 223.974 110.4 222.411 110.81 218.839C111.256 214.857 111.256 209.535 111.479 205.926C111.517 205.293 111.517 204.549 111.517 203.842C111.517 202.241 112.559 200.865 114.047 200.418C114.047 200.418 111.852 199.376 110.4 199.599C108.912 199.785 107.795 201.013 107.051 202.279C102.958 209.014 104.744 218.913 96.9289 223.081C94.3984 224.458 91.4213 224.793 88.593 224.309C82.1923 223.267 77.3173 219.099 72.6283 215.006" fill="black"/>
</g>
<path d="M84.8343 192.119C84.8343 197.999 83.2341 202.762 81.299 202.762C79.3639 202.762 77.7637 197.999 77.7637 192.119C77.7637 186.239 79.3639 181.476 81.299 181.476C83.2341 181.476 84.8343 186.239 84.8343 192.119Z" fill="#FAFAFA"/>
<path d="M83.1968 376.96L84.0155 394.45C84.0155 394.45 66.4878 401.186 66.3018 404.423L100.315 404.051L100.166 376.736L83.1968 376.96Z" fill="#E8505B"/>
<g opacity="0.6">
<path d="M94.5101 392.887C95.1427 393.073 95.6265 393.78 95.4776 394.45C95.3288 395.12 94.5845 395.604 93.9146 395.455C93.2448 395.269 92.6866 394.413 92.8727 393.78C93.0959 393.11 94.0263 392.627 94.6217 392.924" fill="white"/>
</g>
<path opacity="0.6" d="M100.315 404.051L100.278 401.335L67.6417 402.674C67.6417 402.674 66.1531 403.344 66.302 404.424L100.315 404.051Z" fill="white"/>
<path d="M83.4575 394.301C83.4575 394.45 84.2762 394.525 85.0949 395.046C85.9509 395.567 86.3602 396.274 86.5091 396.199C86.6579 396.162 86.4346 395.194 85.3927 394.562C84.4251 393.929 83.4203 394.152 83.4575 394.301Z" fill="#263238"/>
<path d="M79.8846 395.827C79.8474 395.976 80.5917 396.236 81.1499 396.944C81.7453 397.613 81.8942 398.395 82.043 398.358C82.2291 398.395 82.3035 397.427 81.5965 396.571C80.8894 395.715 79.8846 395.641 79.8846 395.827Z" fill="#263238"/>
<path d="M77.9127 400.107C78.0616 400.144 78.2848 399.288 77.8383 398.395C77.4289 397.502 76.6474 397.13 76.573 397.278C76.4614 397.427 76.9824 397.911 77.3173 398.655C77.6894 399.4 77.7638 400.069 77.9127 400.107Z" fill="#263238"/>
<path d="M83.7181 390.282C83.7926 390.431 84.5368 390.208 85.4672 390.245C86.3975 390.282 87.1418 390.617 87.2162 390.468C87.3279 390.32 86.6208 389.724 85.5044 389.687C84.388 389.612 83.6065 390.171 83.7181 390.282Z" fill="#263238"/>
<path opacity="0.3" d="M83.3457 380.421L83.4946 383.547L100.204 383.212V380.421H83.3457Z" fill="black"/>
<path d="M83.6064 386.747C83.6064 386.821 84.2763 386.933 85.3183 386.747C85.8393 386.635 86.4347 386.449 87.0673 386.152C87.3898 386.028 87.7248 385.854 88.0721 385.631C88.2209 385.519 88.407 385.445 88.5559 385.221C88.7419 385.072 88.8536 384.626 88.6303 384.365C88.4442 384.105 88.1465 383.993 87.886 383.993C87.6627 383.956 87.4395 384.03 87.2534 384.068C86.8813 384.167 86.5339 384.291 86.2114 384.44C85.5788 384.737 85.0206 385.11 84.6484 385.482C83.8669 386.226 83.6064 386.859 83.6809 386.896C83.7553 386.933 84.1274 386.412 84.9089 385.817C85.3183 385.519 85.8021 385.184 86.4347 384.924C86.7324 384.8 87.0549 384.7 87.4022 384.626C87.7372 384.514 88.0721 384.514 88.1465 384.663C88.1837 384.738 88.1837 384.775 88.1093 384.886C88.0349 384.961 87.886 385.072 87.7372 385.147C87.4395 385.345 87.1417 385.531 86.844 385.705C86.2486 386.003 85.6904 386.189 85.2066 386.338C84.2391 386.635 83.6064 386.673 83.6064 386.747Z" fill="#263238"/>
<path d="M83.8295 387.008C83.8667 387.008 84.2016 386.412 84.2389 385.333C84.2761 384.812 84.2016 384.179 84.0156 383.472C83.8915 383.15 83.7427 382.815 83.569 382.468C83.3457 382.133 83.1224 381.686 82.4526 381.612C82.1177 381.612 81.8572 381.872 81.7455 382.095C81.6339 382.319 81.6339 382.505 81.5967 382.728C81.5223 383.1 81.5595 383.51 81.5967 383.844C81.7083 384.589 82.006 385.184 82.341 385.631C83.0108 386.487 83.7179 386.673 83.7179 386.635C83.7923 386.524 83.1969 386.226 82.6759 385.37C82.4154 384.961 82.1921 384.403 82.1177 383.807C82.0805 383.472 82.0805 383.137 82.1549 382.802C82.1921 382.43 82.341 382.133 82.4526 382.17C82.6387 382.17 82.9364 382.468 83.0852 382.728C83.2589 383.051 83.3953 383.361 83.4946 383.658C83.7179 384.254 83.8295 384.849 83.8295 385.333C83.9039 386.338 83.7179 386.97 83.8295 387.008Z" fill="#263238"/>
<path d="M116.131 366.354L129.863 377.22C129.863 377.22 123.425 394.822 125.77 397.092L147.8 371.192L127.072 353.403L116.131 366.354Z" fill="#E8505B"/>
<g opacity="0.6">
<path d="M135.557 368.251C136.115 367.879 136.971 367.991 137.38 368.549C137.79 369.107 137.641 369.963 137.083 370.373C136.525 370.745 135.52 370.633 135.148 370.038C134.813 369.442 135.036 368.438 135.669 368.177" fill="white"/>
</g>
<path opacity="0.6" d="M147.8 371.191L145.716 369.405L125.323 394.934C125.323 394.934 124.839 396.534 125.77 397.092L147.8 371.191Z" fill="white"/>
<path d="M129.379 377.518C129.491 377.629 130.086 377.034 131.017 376.773C131.947 376.476 132.766 376.587 132.84 376.439C132.915 376.29 131.984 375.843 130.868 376.215C129.714 376.55 129.23 377.443 129.379 377.518Z" fill="#263238"/>
<path d="M128.188 381.202C128.263 381.314 128.97 380.941 129.863 380.979C130.756 380.979 131.426 381.351 131.538 381.239C131.649 381.127 130.979 380.42 129.863 380.42C128.747 380.383 128.077 381.09 128.188 381.202Z" fill="#263238"/>
<path d="M130.124 385.482C130.235 385.407 129.752 384.7 128.784 384.44C127.816 384.142 127.035 384.514 127.109 384.663C127.147 384.812 127.854 384.737 128.635 384.998C129.454 385.184 130.012 385.593 130.124 385.482Z" fill="#263238"/>
<path d="M126.514 374.689C126.663 374.727 126.998 374.02 127.63 373.35C128.3 372.643 129.007 372.308 128.933 372.122C128.933 371.973 128.003 372.122 127.221 372.94C126.477 373.722 126.365 374.652 126.514 374.689Z" fill="#263238"/>
<path opacity="0.3" d="M118.848 368.475L121.304 370.447L131.985 357.608L129.863 355.785L118.848 368.475Z" fill="black"/>
<path d="M123.797 372.457C123.834 372.494 124.318 372.047 124.876 371.154C125.137 370.708 125.397 370.112 125.621 369.442C125.72 369.095 125.794 368.735 125.844 368.363C125.881 368.177 125.918 367.954 125.881 367.693C125.881 367.47 125.583 367.098 125.249 367.061C124.951 367.023 124.653 367.209 124.504 367.395C124.318 367.582 124.244 367.768 124.132 367.916C123.958 368.264 123.822 368.611 123.723 368.958C123.537 369.666 123.5 370.298 123.5 370.819C123.537 371.898 123.834 372.494 123.909 372.494C124.021 372.457 123.872 371.824 123.909 370.819C123.946 370.335 124.058 369.74 124.244 369.107C124.343 368.81 124.479 368.5 124.653 368.177C124.802 367.842 125.025 367.619 125.174 367.656C125.249 367.656 125.286 367.693 125.323 367.805C125.323 367.916 125.323 368.103 125.286 368.289C125.236 368.636 125.174 368.971 125.1 369.293C124.951 369.926 124.728 370.484 124.504 370.968C124.095 371.861 123.723 372.382 123.797 372.457Z" fill="#263238"/>
<path d="M124.095 372.457C124.169 372.419 123.909 371.787 123.127 371.043C122.755 370.67 122.234 370.298 121.564 370.001C121.242 369.852 120.882 369.74 120.485 369.666C120.113 369.591 119.629 369.48 119.145 369.926C118.922 370.187 118.922 370.559 119.034 370.782C119.145 371.005 119.294 371.154 119.406 371.303C119.666 371.638 119.964 371.861 120.262 372.047C120.894 372.457 121.564 372.606 122.085 372.643C123.202 372.717 123.797 372.308 123.76 372.271C123.723 372.159 123.127 372.419 122.123 372.233C121.639 372.159 121.081 371.973 120.56 371.601C120.299 371.452 120.039 371.229 119.852 370.968C119.592 370.67 119.48 370.373 119.592 370.298C119.704 370.187 120.076 370.149 120.373 370.224C120.721 370.274 121.056 370.36 121.378 370.484C121.974 370.745 122.495 371.043 122.867 371.34C123.648 371.936 124.02 372.494 124.095 372.457Z" fill="#263238"/>
<path d="M78.0246 302.942C78.0246 302.942 78.9177 261.151 78.0246 261.151C77.0943 261.151 70.6563 257.466 70.6563 257.466L62.6181 319.576C62.6181 319.576 61.8739 326.535 70.5074 331.485C79.141 336.397 117.732 370.671 117.732 370.671L130.794 354.78C130.794 354.78 105.377 328.321 95.0313 319.576C86.9187 312.729 78.0246 302.942 78.0246 302.942Z" fill="#263238"/>
<path d="M101.655 293.192L102.548 286.568C102.548 286.568 108.912 273.208 109.805 267.477C110.735 261.746 110.14 249.428 110.14 249.428H69.9863C69.9863 249.428 70.1352 294.755 74.973 307.482C74.973 307.482 77.4291 331.819 77.8012 333.866C78.5827 338.183 81.2621 382.505 81.2621 382.505L101.506 381.76C101.506 381.76 103.255 341.011 101.841 329.475C101.171 323.744 100.836 317.641 100.688 312.58C100.464 306.105 100.799 299.63 101.655 293.192Z" fill="#263238"/>
<path d="M71.0654 262.639C71.0654 262.639 71.0778 262.714 71.1026 262.862C71.1026 263.011 71.115 263.197 71.1399 263.421C71.1647 263.966 71.2019 264.723 71.2515 265.691C71.3259 267.663 71.4748 270.491 71.6609 273.989C72.0702 280.985 72.8145 290.624 73.9309 301.267C75.0101 311.91 76.2009 321.511 77.0568 328.47C77.5034 331.931 77.8383 334.722 78.0616 336.694C78.1857 337.662 78.2725 338.419 78.3221 338.964C78.3469 339.188 78.3717 339.374 78.3965 339.523C78.3965 339.671 78.3965 339.746 78.3965 339.746C78.3965 339.746 78.3841 339.684 78.3593 339.56C78.3345 339.386 78.2973 339.188 78.2477 338.964C78.1732 338.419 78.0616 337.674 77.9127 336.732C77.6523 334.759 77.2801 331.968 76.7963 328.507C75.866 321.548 74.6379 311.947 73.5215 301.304C72.4423 290.661 71.7353 280.985 71.4004 273.989C71.2143 270.491 71.1026 267.663 71.1026 265.691C71.0778 264.748 71.0654 263.991 71.0654 263.421C71.0654 263.197 71.0654 263.011 71.0654 262.862C71.0654 262.714 71.0654 262.639 71.0654 262.639Z" fill="#455A64"/>
<path d="M100.651 316.301C100.651 316.301 100.688 316.525 100.762 316.971C100.812 317.442 100.899 318.075 101.023 318.869C101.209 320.506 101.469 322.888 101.693 325.865C102.176 331.782 102.548 339.969 102.66 349.012C102.772 358.055 102.623 366.279 102.325 372.196C102.176 375.173 101.953 377.555 101.804 379.192C101.73 380.011 101.655 380.644 101.581 381.09C101.531 381.537 101.506 381.76 101.506 381.76C101.482 381.76 101.482 381.537 101.506 381.09C101.556 380.619 101.606 379.986 101.655 379.192C101.767 377.555 101.916 375.136 102.027 372.196C102.288 366.279 102.4 358.055 102.288 349.012C102.139 339.969 101.841 331.782 101.432 325.865C101.246 322.925 101.023 320.506 100.874 318.869C100.799 318.075 100.737 317.442 100.688 316.971C100.638 316.525 100.626 316.301 100.651 316.301Z" fill="#455A64"/>
<path d="M108.54 165.139C108.54 165.139 115.089 166.889 116.503 176.676C117.917 186.463 115.312 189.254 115.312 189.254C115.312 189.254 116.392 171.019 108.205 168.563L108.54 165.474" fill="#263238"/>
<path d="M63.7714 197.106L29.8325 196.473L30.2419 198.111L63.5853 198.595L63.7714 197.106Z" fill="#263238"/>
<path d="M104.893 168.191C103.627 167.856 102.288 168.042 101.097 168.526C98.343 169.679 93.3191 173.029 92.947 182.407C92.3516 197.59 92.3516 197.59 92.3516 197.59L114.047 200.418C114.047 200.418 115.908 171.131 104.893 168.191Z" fill="#FF3131"/>
<path d="M64.9623 200.344L92.4632 208.605L92.8726 197.515L109.358 199.934L108.428 217.946C108.242 223.23 104.558 227.733 99.385 228.924C96.5195 229.594 93.5052 229.184 90.9002 227.696L61.6875 211.098L64.9623 200.344Z" fill="#FFBE9D"/>
<path d="M114.047 200.418C114.047 200.418 114.047 200.331 114.047 200.158C114.047 199.984 114.035 199.736 114.01 199.413C113.985 198.768 113.948 197.85 113.898 196.659C113.824 194.241 113.712 190.78 113.601 186.5C113.526 184.379 113.452 182.034 113.377 179.541C113.377 178.921 113.365 178.288 113.34 177.643C113.315 177.321 113.278 176.998 113.228 176.676C113.154 176.341 113.117 176.043 113.042 175.708C112.707 174.443 112.112 173.178 111.256 172.098C109.544 169.94 106.79 168.265 103.739 168.228C102.213 168.191 100.725 168.638 99.3849 169.456C98.0452 170.275 96.9288 171.466 96.0357 172.768C94.696 174.703 93.9517 176.899 93.5423 179.095C93.0958 181.29 92.9841 183.486 92.8725 185.644C92.7608 189.924 92.6492 193.943 92.5376 197.59L92.3887 197.404C98.8639 198.297 104.26 199.041 108.056 199.562C109.954 199.823 111.442 200.009 112.484 200.158C112.98 200.232 113.365 200.294 113.638 200.344C113.911 200.393 114.047 200.418 114.047 200.418C114.072 200.418 113.948 200.406 113.675 200.381C113.402 200.356 113.03 200.319 112.559 200.269C111.517 200.12 110.028 199.934 108.167 199.711C104.334 199.227 98.9011 198.557 92.3515 197.739H92.2026V197.59C92.2771 193.906 92.3515 189.887 92.5004 185.607C92.612 183.486 92.7236 181.253 93.1702 179.02C93.5795 176.787 94.361 174.555 95.7007 172.545C96.6311 171.205 97.7847 169.977 99.1988 169.121C100.576 168.265 102.176 167.782 103.739 167.856C106.939 167.893 109.768 169.642 111.517 171.875C112.41 173.029 113.042 174.294 113.377 175.634C113.452 175.969 113.489 176.304 113.563 176.638C113.588 176.961 113.625 177.284 113.675 177.606C113.675 178.276 113.687 178.921 113.712 179.541C113.749 182.072 113.824 184.453 113.861 186.575C113.935 190.854 113.973 194.315 114.047 196.734C114.047 197.9 114.059 198.818 114.084 199.488C114.084 199.785 114.084 200.021 114.084 200.195C114.084 200.344 114.072 200.418 114.047 200.418Z" fill="#263238"/>
<path d="M65.5203 200.641L58.8963 195.766C57.7055 194.873 55.8448 195.059 54.319 194.91C51.3791 194.65 46.5041 196.436 46.3181 196.771L48.2904 198.334L35.4517 197.962C35.4517 197.962 36.5681 200.641 40.1406 200.902C40.1406 200.902 40.5499 203.805 44.3085 204.363C44.3085 204.363 45.2761 206.707 47.3228 207.414C47.3228 207.414 47.7322 210.019 51.0814 209.87L62.3199 211.173L65.5203 200.641Z" fill="#FFBE9D"/>
<path d="M48.179 201.386C48.179 201.497 46.3555 201.46 44.1227 201.348C41.8899 201.2 40.0664 201.014 40.0664 200.902C40.1036 200.79 41.8899 200.827 44.1599 200.939C46.3927 201.088 48.179 201.274 48.179 201.386Z" fill="#EB996E"/>
<path d="M51.4536 204.474C51.4536 204.586 49.8534 204.66 47.8811 204.66C45.9088 204.66 44.3086 204.586 44.3086 204.474C44.3086 204.363 45.9088 204.288 47.8811 204.288C49.8534 204.288 51.4536 204.363 51.4536 204.474Z" fill="#EB996E"/>
<path d="M54.9145 207.414C54.9145 207.526 53.3515 207.6 51.3792 207.6C49.4068 207.6 47.8066 207.526 47.8066 207.414C47.8066 207.303 49.4068 207.191 51.3792 207.191C53.3515 207.191 54.9145 207.303 54.9145 207.414Z" fill="#EB996E"/>
<path d="M94.2866 214.224C94.1749 214.262 93.6167 213.071 93.0585 211.508C92.5375 209.982 92.2398 208.68 92.3515 208.642C92.4631 208.605 92.9097 209.87 93.4307 211.396C93.9516 212.922 94.3982 214.187 94.2866 214.224Z" fill="#EB996E"/>
<path d="M96.2964 213.145C96.1847 213.22 95.2916 212.14 94.2124 210.838C93.096 209.498 92.2029 208.456 92.2773 208.345C92.3517 208.307 93.3937 209.238 94.5101 210.577C95.6265 211.917 96.3708 213.108 96.2964 213.145Z" fill="#EB996E"/>
<path fill-rule="evenodd" clip-rule="evenodd" d="M216.278 23.5295C246.186 2.08297 261.158 43.063 237.467 55.0186C214.844 92.2465 162.938 80.5116 233.09 55.3129C233.899 52.8482 234.414 50.2732 234.708 47.4774C234.929 44.7184 234.929 42.4377 234.745 41.6652C232.464 46.0427 226.873 55.6072 221.208 53.8782C214.145 50.8618 218.412 40.6719 223.636 34.4918C227.756 29.4888 234.708 27.0977 239.969 31.2178C242.434 33.2779 239.969 35.4115 239.196 33.2779C237.357 28.2749 232.133 31.0707 227.866 35.8897C222.679 41.6652 218.743 50.2364 222.385 51.855C226.579 53.6207 233.421 42.8055 234.745 38.3544C235.444 36 236.879 36.0368 237.982 35.8897C239.38 35.7425 239.086 35.0804 239.343 37.1036C239.969 42.2537 239.564 47.6246 238.203 52.7011C258.252 38.5015 241.33 6.90199 216.683 24.0812C216.021 24.5227 215.727 23.8973 216.278 23.5295ZM229.889 58.219C180.816 74.9936 213.078 88.7885 232.317 57.373L229.889 58.219Z" fill="#FF3131"/>
<path d="M220.619 41.1135C221.355 39.7156 220.214 39.2006 219.626 40.4881C218.154 43.431 213.666 52.7012 209.988 52.7012C209.031 52.7012 208.295 52.0759 208.847 49.1697C209.767 44.2403 217.308 30.9972 217.308 30.9972C214.917 30.0776 207.67 34.5655 204.249 37.582C202.078 39.4949 199.834 42.1435 198.4 43.9461C200.754 39.2006 204.322 32.763 206.456 30.9972C207.008 30.5926 207.081 30.7397 206.419 30.7397C205.573 30.7397 204.764 30.4454 203.955 30.3719C201.711 30.2247 200.828 31.4755 198.988 34.823C195.641 41.0399 192.845 47.4776 189.645 53.9152C189.056 55.0188 189.24 54.5405 190.012 54.3198C190.454 54.2095 190.969 54.1727 191.631 54.1727C193.139 54.1727 193.765 54.1727 194.317 53.1794C198.253 45.3439 201.711 41.4078 204.102 39.2006C209.583 34.1241 210.797 36.037 209.141 38.796C207.155 41.9596 205.831 44.3875 205.242 46.19C203.108 52.738 206.53 54.467 208.994 54.467C214.402 54.467 218.485 45.4911 220.619 41.1871V41.1135Z" fill="#FF3131"/>
<path d="M184.642 48.1764C184.789 47.6614 185.488 46.1531 185.488 46.1531L191.153 32.9468C191.889 31.2178 191.889 30.4821 189.645 30.4821L187.07 30.5189C185.157 30.5189 185.93 30.335 186.445 31.6225C186.629 32.1743 186.739 32.7997 186.481 33.4986L181.957 45.0127C180.485 48.6546 180.485 54.1726 185.782 54.1726C191.006 54.1726 195.016 45.1967 196.855 41.2605C197.444 39.8626 196.487 39.3476 195.935 40.6352C193.949 44.5713 191.631 48.9489 189.277 51.2664C188.505 52.0022 187.18 52.7379 186.114 52.5907C184.164 52.5172 184.017 50.5307 184.642 48.1764Z" fill="#FF3131"/>
<path d="M194.611 24.67C194.868 23.0514 193.765 21.7639 192.146 21.7639C190.564 21.7639 189.056 23.0514 188.762 24.67C188.504 26.2886 189.571 27.5762 191.19 27.5762C192.845 27.5762 194.317 26.2886 194.611 24.67Z" fill="#FF3131"/>
<path d="M184.715 41.187C185.378 39.7891 184.311 39.3109 183.722 40.5248C182.251 43.7988 177.726 52.7379 174.047 52.7379C173.128 52.7379 172.355 52.1126 172.833 49.2432C173.716 44.8656 179.676 34.0504 181.074 31.5122C181.294 31.0339 181.515 30.9971 180.816 30.9236C178.057 30.7764 171.399 34.8229 168.272 37.6923C166.138 39.5316 163.821 42.2538 162.386 44.0195C164.115 40.5248 166.285 37.1037 167.573 34.124C168.198 32.6893 167.757 31.5122 166.469 31.0339C164.115 30.1878 159.59 34.639 156.206 37.6923C154.036 39.5316 151.755 42.2538 150.32 44.0195C152.454 39.8627 155.397 34.3815 157.567 31.9168C159.039 30.2246 159.296 31.0707 157.162 30.6661C156.721 30.5925 156.28 30.4821 155.875 30.4821C153.668 30.335 152.748 31.5122 150.909 34.9333C147.672 40.8191 145.06 46.9992 141.97 53.2529C141.05 55.0555 141.197 54.2829 142.632 54.1726C142.926 54.1358 143.22 54.1358 143.625 54.1358C145.207 54.0622 145.832 54.0254 146.347 52.9954C150.32 45.1967 153.668 41.4077 156.022 39.2005C163.49 32.3215 161.209 37.4348 158.891 42.2538C157.677 44.8656 156.427 47.1832 155.875 50.2732C155.654 51.9654 156.243 53.5472 157.383 54.0254C158.192 54.3933 158.156 54.1726 158.34 53.5472C159.701 49.2064 165.255 41.9227 168.088 39.2005C173.569 34.124 174.857 36.0369 173.128 38.7959C171.141 41.9595 169.817 44.3874 169.228 46.1899C167.132 52.7379 170.516 54.4669 173.091 54.4669C178.462 54.4669 182.582 45.491 184.715 41.187Z" fill="#FF3131"/>
<path fill-rule="evenodd" clip-rule="evenodd" d="M137.997 53.6208C135.9 53.6208 134.355 52.8483 133.472 51.7815C131.522 53.2529 129.389 54.2094 127.329 54.1726C121.958 54.0255 121.185 47.6246 123.871 41.3341C126.63 34.8229 132.479 29.3418 137.261 29.4889C142.632 29.5625 143.441 36.0369 140.719 42.2906C139.689 44.7553 137.518 48.1028 134.796 50.6411C135.385 51.7079 136.452 52.4069 138.107 52.4069C142.632 52.4069 146.347 43.6885 148.003 40.3041C148.37 39.5316 149.584 39.8627 149.033 40.9295C147.855 43.5781 143.919 53.6208 137.997 53.6208ZM128.763 41.0766C126.004 46.8521 125.342 51.7815 127.917 52.554C129.242 52.8851 131.007 52.2229 132.699 50.7883C131.89 49.6479 131.559 48.3971 131.559 47.3303C131.669 45.7117 132.258 44.2771 134.024 44.2771C135.238 44.2771 136.157 45.2703 136.157 46.4107C136.157 46.705 136.084 46.8889 136.01 47.1832C136.783 46.0428 137.555 44.7185 138.217 43.3942C140.976 37.5819 141.307 32.6158 138.769 31.8065C135.753 30.9972 131.375 35.4483 128.763 41.0766Z" fill="#FF3131"/>
<path fill-rule="evenodd" clip-rule="evenodd" d="M181.883 74.1109C180.007 73.927 177.579 73.6695 174.746 73.5223C175.298 74.5156 176.218 75.5456 177.763 76.502C180.706 78.2678 185.598 79.9232 189.13 82.1671C198.989 88.2737 192.551 97.3231 184.348 102.216C174.599 108.065 157.015 107.587 152.932 97.5807C149.106 96.6242 144.949 94.5274 140.682 91.3637C140.278 91.0695 140.572 90.2969 141.16 90.628C145.17 93.0927 148.407 94.8217 152.344 95.5942C148.371 76.9435 180.927 72.713 177.027 87.8322C176.586 89.4876 175.593 91.2534 174.158 92.8352C172.723 94.417 170.81 95.8149 168.456 96.8449C165.108 98.2428 160.804 98.905 155.691 98.0957C159.333 105.931 173.385 106.299 181.699 101.958C189.792 97.7278 193.213 89.3773 187.364 84.6686C184.348 82.2407 177.91 80.5118 174.305 78.1206C172.098 76.686 170.994 74.9938 170.7 73.3384C155.838 72.7866 135.201 74.3684 135.091 88.053C135.054 88.4944 134.465 88.6048 134.465 88.053C134.502 72.897 155.286 71.0209 170.663 71.5727C171.105 68.2987 174.379 65.1718 178.535 63.7004C200.203 56.0856 206.052 76.5756 181.883 74.1109ZM182.104 72.382C204.764 74.6995 196.23 59.286 180.375 65.0247C176.733 66.2754 174.048 68.9608 174.231 71.7566C177.285 71.9037 179.97 72.1612 182.104 72.382ZM167.757 95.1895C169.891 94.3067 171.62 93.0927 172.87 91.658C174.121 90.3337 174.967 88.7887 175.335 87.3908C178.535 74.957 150.762 77.4217 155.066 96.2563C160.216 97.2128 164.446 96.6242 167.757 95.1895ZM205.5 101.223C204.065 101.223 203.035 100.671 202.447 99.935C201.049 100.965 199.614 101.627 198.216 101.554C194.574 101.443 194.023 97.0656 195.825 92.7984C197.775 88.3473 201.748 84.6318 205.058 84.6686C208.7 84.779 209.215 89.1933 207.413 93.4974C206.677 95.1527 205.206 97.4335 203.329 99.1625C203.697 99.8982 204.47 100.376 205.573 100.376C208.553 100.376 210.981 94.8585 212.232 92.357C214.181 88.1265 218.007 84.6318 221.208 84.6686C224.85 84.779 225.401 89.1933 223.562 93.4974C222.826 95.1527 221.355 97.4335 219.516 99.1625C219.883 99.8982 220.619 100.376 221.796 100.376C224.85 100.376 227.351 94.3802 228.528 92.0627C228.577 91.9891 228.639 91.9278 228.712 91.8788C229.301 90.7016 229.902 89.5244 230.515 88.3473C231.729 86.0297 232.391 85.2204 233.973 85.294C234.193 85.294 234.488 85.4043 234.782 85.4411C236.327 85.7354 236.033 85.1101 234.892 86.5447C233.421 88.3105 231.508 91.842 230.11 94.5642C231.103 93.387 232.648 91.5477 234.157 90.2234C236.18 88.4576 240.153 85.8826 242.25 85.6618C243.427 85.5147 243.022 85.7354 242.617 86.4711C241.403 88.7151 237.798 95.3367 237.247 98.1692C236.915 100.119 237.394 100.56 238.056 100.56C240.557 100.56 243.647 94.2699 244.641 92.2098C245.082 91.3637 245.818 91.658 245.34 92.6513V92.6881C243.868 95.631 241.109 101.774 237.357 101.774C235.702 101.774 233.384 100.634 234.782 96.146C235.187 94.8584 236.143 93.2398 237.467 91.0695C238.644 89.1933 237.762 87.869 234.046 91.3637C232.428 92.8352 230.073 95.5574 227.314 100.928C226.983 101.627 226.505 101.554 225.475 101.554C225.254 101.554 225.033 101.554 224.85 101.627C223.856 101.664 223.672 102.363 224.261 101.112C224.506 100.622 224.739 100.143 224.96 99.6775C224.003 100.597 222.9 101.223 221.686 101.223C220.214 101.223 219.221 100.671 218.596 99.935C217.272 100.965 215.8 101.627 214.402 101.554C211.864 101.48 210.834 99.3832 211.055 96.661C209.694 98.9417 207.854 101.223 205.5 101.223ZM199.173 92.5777C197.297 96.5874 196.855 99.9718 198.584 100.487C199.54 100.707 200.718 100.229 201.895 99.236C201.343 98.5003 201.122 97.6174 201.122 96.8817C201.159 95.8149 201.601 94.8217 202.814 94.8217C203.624 94.8217 204.249 95.5206 204.249 96.2931C204.249 96.4403 204.212 96.5874 204.176 96.7713C204.691 96.0356 205.242 95.116 205.647 94.1595C207.56 90.2234 207.817 86.8022 206.052 86.2872C203.955 85.6618 201.012 88.7887 199.173 92.5777ZM215.359 92.5777C213.483 96.5874 213.041 99.9718 214.807 100.487C215.69 100.707 216.904 100.229 218.044 99.236C217.492 98.5003 217.272 97.6174 217.308 96.8817C217.308 95.8149 217.75 94.8217 219.001 94.8217C219.773 94.8217 220.398 95.5206 220.398 96.2931C220.398 96.4403 220.362 96.5874 220.325 96.7713C220.84 96.0356 221.392 95.116 221.833 94.1595C223.709 90.2234 223.967 86.8022 222.201 86.2872C220.104 85.6618 217.161 88.7887 215.359 92.5777Z" fill="#FF3131"/>
<path fill-rule="evenodd" clip-rule="evenodd" d="M122.215 72.0508C148.223 68.2618 175.041 50.9354 196.561 60.5367C197.26 60.831 196.855 61.6035 196.082 61.2724C176.917 52.8851 150.467 70.8737 123.319 75.9134C83.5528 83.2339 67.2196 43.5781 88.1511 17.2023C87.0475 12.7879 86.4957 6.23993 87.9304 1.01626C88.1511 -0.197687 89.6593 -0.602338 89.2915 1.38413C88.5189 5.7985 89.1443 10.9854 89.88 14.7744C97.4948 4.9892 108.053 0.574827 119.236 1.86235C146.789 4.9892 136.746 38.9063 107.685 34.6758C100.327 33.6458 93.8162 30.2983 90.1375 22.7202C74.4665 43.1367 89.1443 76.8331 122.215 72.0508ZM91.5722 20.4395C94.7726 28.5693 101.026 32.1744 108.715 32.9837C134.208 35.8162 140.461 7.52746 119.898 4.54776C109.34 3.00273 98.5616 9.73464 91.5722 20.4395Z" fill="#FF3131"/>
</svg>
