<svg width="19" height="19" viewBox="0 0 19 19" fill="none" xmlns="http://www.w3.org/2000/svg">
<path d="M8.60387 2.7923H2.68975C2.2416 2.7923 1.81181 2.97032 1.49492 3.28721C1.17803 3.6041 1 4.0339 1 4.48205V16.3103C1 16.7584 1.17803 17.1882 1.49492 17.5051C1.81181 17.822 2.2416 18 2.68975 18H14.518C14.9661 18 15.3959 17.822 15.7128 17.5051C16.0297 17.1882 16.2077 16.7584 16.2077 16.3103V10.3962" stroke="white" stroke-width="1.5" stroke-linecap="round" stroke-linejoin="round"/>
<path d="M14.9415 1.52494C15.2776 1.18883 15.7335 1 16.2088 1C16.6841 1 17.14 1.18883 17.4761 1.52494C17.8122 1.86105 18.0011 2.31691 18.0011 2.79225C18.0011 3.26758 17.8122 3.72345 17.4761 4.05956L9.44981 12.0859L6.07031 12.9307L6.91519 9.55124L14.9415 1.52494Z" stroke="white" stroke-width="1.5" stroke-linecap="round" stroke-linejoin="round"/>
</svg>
