<svg width="21" height="22" viewBox="0 0 21 22" fill="none" xmlns="http://www.w3.org/2000/svg">
<path d="M19.1135 0.251094C19.5489 0.354455 19.9579 0.509769 20.2915 0.824226C20.7416 1.24861 20.9937 1.76815 20.9959 2.38503C21.0036 4.6267 21.0052 6.86837 20.9964 9.11004C20.9926 10.0627 20.3385 10.8945 19.4242 11.1581C19.3656 11.1751 19.3066 11.1915 19.236 11.2112C19.236 11.9314 19.2382 12.6484 19.2333 13.3659C19.2328 13.4649 19.2185 13.5753 19.1737 13.6606C19.0446 13.9073 18.7537 13.9346 18.5103 13.7279C17.9219 13.2281 17.3362 12.7249 16.7488 12.2234C16.4004 11.9259 16.0532 11.6279 15.7026 11.3337C15.654 11.2926 15.5878 11.2489 15.5282 11.2473C15.2285 11.2385 14.9288 11.2434 14.6018 11.2434C14.6018 11.3348 14.6018 11.4141 14.6018 11.4928C14.6018 13.1056 14.6023 14.7189 14.6018 16.3316C14.6012 17.695 13.6737 18.6252 12.3136 18.6258C10.0785 18.6269 7.84393 18.6274 5.60882 18.6231C5.46226 18.6225 5.35398 18.6624 5.24296 18.7581C4.34224 19.5342 3.43551 20.3036 2.53261 21.0769C2.37948 21.2082 2.22253 21.3066 2.01417 21.2131C1.79924 21.1168 1.76151 20.9336 1.76315 20.7209C1.76752 20.0176 1.76479 19.3138 1.76479 18.6116C1.57338 18.5377 1.38307 18.4825 1.2097 18.3939C0.581883 18.0729 0.193049 17.5626 0.041563 16.8725C0.0317192 16.8271 0.0142189 16.7839 0 16.739C0 14.3328 0 11.9265 0 9.5202C0.0103908 9.50325 0.0262503 9.48739 0.0300785 9.46879C0.281097 8.30011 1.10197 7.634 2.29636 7.63346C3.58755 7.63291 4.87874 7.63346 6.16992 7.63346C6.24211 7.63346 6.3143 7.63346 6.39852 7.63346C6.39852 7.52517 6.39852 7.44369 6.39852 7.36275C6.39852 5.73031 6.39415 4.09732 6.40016 2.46487C6.40344 1.609 6.78024 0.95165 7.5251 0.530551C7.75698 0.399299 8.03042 0.341876 8.28472 0.250547C9.5152 0.250547 10.7457 0.250547 11.9762 0.250547C11.9975 0.26586 12.0183 0.282266 12.0402 0.297032C12.2223 0.417346 12.2977 0.58852 12.248 0.76571C12.1944 0.954931 12.0396 1.06923 11.8132 1.06978C10.7812 1.07196 9.74927 1.07087 8.71675 1.07087C7.76791 1.07087 7.21775 1.62267 7.21775 2.57316C7.21775 4.69889 7.2172 6.82462 7.21775 8.95035C7.21775 9.85872 7.7794 10.422 8.68558 10.4226C10.989 10.4231 13.2925 10.4247 15.596 10.4193C15.8082 10.4187 15.9739 10.4789 16.1336 10.6172C16.8144 11.2084 17.5035 11.7914 18.1898 12.3766C18.2511 12.4291 18.3151 12.4788 18.4004 12.5477C18.4064 12.4673 18.4141 12.4105 18.4141 12.3536C18.4152 11.8614 18.4124 11.3692 18.4157 10.877C18.4174 10.5894 18.5667 10.4395 18.8549 10.4209C19.6353 10.3712 20.1767 9.80841 20.1778 9.03129C20.181 6.84431 20.1805 4.65678 20.1778 2.46979C20.1767 1.65549 19.5942 1.0736 18.7821 1.07087C17.7157 1.06759 16.6498 1.07087 15.5834 1.06923C15.3575 1.06868 15.2022 0.954384 15.1486 0.765163C15.0983 0.587426 15.1743 0.416799 15.3565 0.296485C15.3783 0.281719 15.3997 0.26586 15.421 0.25C16.6526 0.251094 17.883 0.251094 19.1135 0.251094ZM6.40891 8.46855C6.35313 8.46144 6.32688 8.45542 6.30118 8.45542C4.91374 8.45487 3.52684 8.44831 2.1394 8.45816C1.41424 8.46362 0.825792 9.05863 0.823605 9.78763C0.817042 12.0156 0.817589 14.2431 0.823605 16.4711C0.825245 17.1596 1.35353 17.724 2.03604 17.8C2.51402 17.8536 2.58511 17.9334 2.58511 18.4191C2.58511 18.4874 2.58511 18.5558 2.58511 18.6241C2.58511 19.0513 2.58511 19.4778 2.58511 19.9416C2.67972 19.8661 2.74371 19.818 2.80441 19.7666C3.4902 19.1809 4.17927 18.599 4.8596 18.0067C5.0253 17.8629 5.19647 17.8022 5.41523 17.8027C7.71815 17.8082 10.0211 17.8066 12.324 17.806C13.217 17.8055 13.7809 17.24 13.7814 16.3442C13.782 14.7178 13.7814 13.0913 13.7814 11.4649C13.7814 11.3933 13.7814 11.3216 13.7814 11.2144C11.834 11.2144 9.91935 11.2144 7.99979 11.2144C8.01893 11.2675 8.04026 11.3315 8.06378 11.3944C8.54285 12.6648 9.02301 13.9341 9.50098 15.205C9.60981 15.4943 9.52231 15.7246 9.27676 15.8126C9.04598 15.8952 8.84254 15.7749 8.73261 15.4883C8.64949 15.2718 8.56472 15.0557 8.4887 14.837C8.4537 14.7358 8.40995 14.685 8.288 14.6866C7.63229 14.6937 6.97603 14.6937 6.31977 14.6866C6.2 14.6855 6.15297 14.7314 6.11633 14.8343C6.02719 15.0847 5.93586 15.3352 5.83086 15.5791C5.73461 15.8022 5.5164 15.8892 5.30859 15.8061C5.09804 15.7218 5.00343 15.514 5.07397 15.286C5.08983 15.234 5.10952 15.1826 5.12921 15.1318C5.49398 14.1758 5.85875 13.2199 6.22297 12.2639C6.44883 11.6722 6.67415 11.0799 6.90931 10.463C6.41438 9.91286 6.35587 9.21285 6.40891 8.46855ZM8.11683 13.8608C7.84995 13.1537 7.58854 12.4619 7.30689 11.717C7.02197 12.4663 6.75946 13.157 6.49204 13.8608C7.04494 13.8608 7.5683 13.8608 8.11683 13.8608Z" fill="black"/>
<path d="M13.8226 0.25116C13.8548 0.274129 13.8882 0.296004 13.9199 0.31952C14.0785 0.436006 14.1485 0.588586 14.0867 0.780542C14.026 0.968669 13.8871 1.07203 13.6891 1.06765C13.5005 1.06383 13.3687 0.959919 13.3118 0.780542C13.2511 0.588586 13.3205 0.436006 13.4791 0.31952C13.5114 0.296004 13.5442 0.274129 13.5765 0.25116C13.6585 0.25116 13.7405 0.25116 13.8226 0.25116Z" fill="black"/>
<path d="M13.7003 7.91526C13.1709 8.40527 12.5797 8.76348 11.9005 8.96364C11.6855 9.02707 11.4641 9.07629 11.2426 9.1102C10.927 9.15833 10.7356 9.03746 10.6968 8.79191C10.6547 8.52613 10.8127 8.3473 11.1414 8.29808C11.8206 8.19636 12.4189 7.918 12.9472 7.48323C13.015 7.42744 13.079 7.36619 13.1572 7.29674C12.6054 6.51142 12.3134 5.6457 12.2986 4.6635C12.0016 4.6635 11.7173 4.6635 11.4334 4.6635C11.283 4.6635 11.1326 4.66842 10.9823 4.66077C10.711 4.646 10.5398 4.48029 10.542 4.24623C10.5447 4.01107 10.7197 3.84701 10.9916 3.84536C11.6336 3.84099 12.2762 3.84372 12.9188 3.84372C13.0336 3.84372 13.149 3.84372 13.2895 3.84372C13.2895 3.48606 13.2857 3.147 13.2906 2.80848C13.295 2.50988 13.5099 2.32722 13.7834 2.37863C13.9824 2.41636 14.106 2.57605 14.1088 2.81285C14.1126 3.147 14.1099 3.48169 14.1099 3.84372C14.1957 3.84372 14.2685 3.84372 14.3418 3.84372C15.0254 3.84372 15.7084 3.84208 16.392 3.84482C16.654 3.84591 16.8191 3.97498 16.853 4.19045C16.893 4.44256 16.7059 4.65202 16.4117 4.66077C16.0568 4.67061 15.7013 4.66405 15.3458 4.66459C15.272 4.66459 15.1976 4.66459 15.1041 4.66459C15.0828 5.63312 14.8028 6.50376 14.2428 7.294C14.8006 7.82667 15.4497 8.16081 16.2039 8.29206C16.2509 8.30027 16.2985 8.30574 16.345 8.31613C16.6031 8.373 16.7344 8.54308 16.7048 8.77879C16.6758 9.00793 16.4883 9.15942 16.2318 9.11786C15.937 9.06973 15.6417 9.00574 15.3568 8.91551C14.735 8.71808 14.1957 8.3741 13.7003 7.91526ZM13.12 4.67225C13.1392 5.38374 13.3142 6.01813 13.7024 6.62024C14.0792 6.00336 14.2723 5.37226 14.2712 4.67225C13.8818 4.67225 13.5154 4.67225 13.12 4.67225Z" fill="black"/>
</svg>
