<svg width="35" height="35" viewBox="0 0 35 35" fill="none" xmlns="http://www.w3.org/2000/svg">
<circle cx="17.5" cy="17.5" r="16.7375" fill="white" stroke="#9E9E9E" stroke-width="1.525"/>
<path d="M12.0758 17.4664C12.0743 18.8605 10.9292 20.0021 9.53365 20C8.13954 19.9979 6.99789 18.8534 7 17.4579C7.00212 16.0624 8.14519 14.9228 9.5414 14.9242C10.9369 14.9264 12.0772 16.0701 12.0758 17.4664Z" fill="#9E9E9E"/>
<path d="M20.5377 17.4664C20.5356 18.8605 19.3904 20.0021 17.9949 20C16.6008 19.9979 15.4598 18.8527 15.4619 17.4579C15.464 16.0624 16.6071 14.9228 18.004 14.925C19.3995 14.9264 20.5398 16.0701 20.5377 17.4664Z" fill="#9E9E9E"/>
<path d="M23.9238 17.4579C23.9259 16.0624 25.069 14.9229 26.4652 14.9243C27.8607 14.9264 29.001 16.0695 28.9996 17.4657C28.9982 18.8598 27.853 20.0014 26.4575 19.9993C25.0627 19.9979 23.9217 18.8534 23.9238 17.4579Z" fill="#9E9E9E"/>
</svg>
