<svg width="27" height="25" viewBox="0 0 27 25" fill="none" xmlns="http://www.w3.org/2000/svg">
<path d="M0 11.5227C0.0834616 10.9619 0.142092 10.3963 0.255213 9.84177C0.775986 7.28688 2.00722 5.12446 3.93442 3.37315C5.98164 1.51354 8.40065 0.493379 11.159 0.283691C17.2903 -0.181211 22.8609 4.21673 23.8376 10.2943C23.8514 10.3791 23.8624 10.4646 23.8748 10.5502C23.9224 10.8757 23.7507 11.1302 23.4506 11.1799C23.1637 11.2275 22.9354 11.0468 22.8588 10.735C22.6753 9.98386 22.5346 9.21684 22.2836 8.48845C21.7228 6.86405 20.7716 5.47969 19.5293 4.29399C19.4859 4.2526 19.4397 4.21535 19.4024 4.18293C18.9223 4.52023 18.4526 4.85063 17.956 5.20034C17.9884 5.28242 18.0305 5.3914 18.0746 5.49969C18.7333 7.10685 19.1099 8.78022 19.2513 10.5081C19.2782 10.8357 19.092 11.0613 18.8016 11.0978C18.525 11.1323 18.2877 10.935 18.2298 10.6205C18.2222 10.5784 18.2181 10.535 18.2146 10.4922C18.1119 9.31272 17.8884 8.15598 17.5297 7.02752C17.3814 6.56124 17.2 6.106 17.0441 5.67421C16.2778 5.88803 15.5521 6.13152 14.8086 6.28603C14.0698 6.43984 13.3118 6.50537 12.5372 6.61367C12.5372 8.28497 12.5372 9.99352 12.5372 11.7297C12.9345 11.7297 13.329 11.7297 13.7229 11.7297C14.2402 11.7297 14.7575 11.7269 15.2749 11.7303C15.6266 11.7331 15.8584 11.9449 15.8556 12.2504C15.8529 12.5567 15.6225 12.7615 15.2666 12.7629C14.3623 12.7657 13.458 12.7636 12.5358 12.7636C12.5358 14.4873 12.5358 16.1959 12.5358 17.9168C12.8427 17.9417 13.1414 17.9644 13.4401 17.9893C13.7946 18.0189 14.0202 18.2376 14.0043 18.5356C13.9877 18.8487 13.7401 19.0419 13.3683 19.0212C13.0952 19.006 12.8227 18.9805 12.533 18.9577C12.533 20.3793 12.533 21.7713 12.533 23.2239C13.1035 23.1432 13.6636 23.0777 14.2181 22.9797C14.5644 22.9183 14.9031 22.8114 15.2438 22.719C15.6087 22.6197 15.8977 22.7404 15.9819 23.0342C16.0702 23.3412 15.9074 23.6067 15.548 23.7095C11.586 24.8393 7.92678 24.2096 4.6504 21.7099C2.07274 19.744 0.602855 17.0878 0.114501 13.8872C0.0682868 13.5831 0.0386269 13.2761 0.000689765 12.9699C-6.42394e-10 12.4884 0 12.0056 0 11.5227ZM6.98663 5.62592C6.14029 7.59175 5.7692 9.61415 5.70367 11.7083C7.64329 11.7083 9.55808 11.7083 11.4646 11.7083C11.4646 9.98524 11.4646 8.28359 11.4646 6.56814C9.91675 6.50123 8.42962 6.21912 6.98663 5.62592ZM11.4639 17.9265C11.4639 16.1945 11.4639 14.4866 11.4639 12.7815C9.536 12.7815 7.62742 12.7815 5.7016 12.7815C5.77471 14.8957 6.1396 16.927 6.99008 18.868C8.43169 18.2728 9.91262 17.9927 11.4639 17.9265ZM6.04372 19.2909C5.13668 17.2195 4.74283 15.0323 4.66212 12.7802C3.44607 12.7802 2.26174 12.7802 1.05396 12.7802C1.24916 15.7765 2.43073 18.2804 4.58211 20.3165C5.07874 19.9682 5.54916 19.6378 6.04372 19.2909ZM1.05396 11.7124C2.28381 11.7124 3.46814 11.7124 4.59039 11.7124C4.74558 10.5798 4.87043 9.46791 5.05667 8.36636C5.24291 7.26342 5.6071 6.20739 6.04027 5.20103C5.54709 4.85476 5.07667 4.52506 4.58004 4.17604C2.42935 6.21498 1.24779 8.71952 1.05396 11.7124ZM11.4667 5.52935C11.4667 4.10844 11.4667 2.72615 11.4667 1.30937C9.50979 1.72185 8.39237 3.07793 7.4474 4.68646C8.75312 5.21413 10.0782 5.46935 11.4667 5.52935ZM11.4653 23.1522C11.4653 21.7506 11.4653 20.3676 11.4653 18.9646C10.0733 19.0287 8.74208 19.2771 7.46326 19.8054C8.37375 21.6195 10.0747 23.0404 11.4653 23.1522ZM16.5323 4.69405C15.6853 2.93101 13.7229 1.30454 12.533 1.3611C12.533 2.74339 12.533 4.12568 12.533 5.52935C13.9174 5.46866 15.2411 5.2162 16.5323 4.69405ZM5.41121 20.987C6.1596 21.5919 7.61363 22.3776 8.02335 22.4369C7.52465 21.7478 6.99836 21.0194 6.4562 20.2703C6.12856 20.4945 5.78299 20.7325 5.41121 20.987ZM6.45551 4.22363C7.00595 3.46282 7.53086 2.73719 8.04128 2.03225C7.1301 2.37782 6.25065 2.86065 5.40362 3.50145C5.78023 3.76011 6.1258 3.99739 6.45551 4.22363ZM15.9832 2.06673C16.4902 2.77029 17.0055 3.48489 17.5394 4.2257C17.8677 3.99877 18.216 3.75735 18.5754 3.50903C17.9401 2.96964 16.5088 2.18399 15.9832 2.06673Z" fill="black"/>
<path d="M26.4865 17.4657C26.4838 20.8462 23.7433 23.579 20.36 23.5749C17.0167 23.5708 14.2798 20.82 14.2832 17.4677C14.2867 14.1044 17.0305 11.3688 20.398 11.3716C23.7489 11.3743 26.4893 14.1175 26.4865 17.4657ZM25.4519 17.4712C25.4595 14.7128 23.1908 12.4214 20.4366 12.4062C17.6368 12.3904 15.331 14.6521 15.3199 17.4236C15.3089 20.2613 17.5713 22.5327 20.4152 22.5382C23.1757 22.5451 25.4436 20.2627 25.4519 17.4712Z" fill="black"/>
<path d="M20.9602 15.5918C20.9602 16.0312 20.9526 16.4712 20.9671 16.9099C20.9699 16.9989 21.0389 17.1175 21.1141 17.1665C21.3948 17.35 21.6928 17.5059 21.9804 17.6797C22.2708 17.8549 22.3584 18.1453 22.2094 18.404C22.0583 18.6661 21.7624 18.7392 21.47 18.575C21.0575 18.3433 20.6505 18.1011 20.2381 17.868C20.0311 17.7507 19.9263 17.5776 19.9263 17.3417C19.9256 16.325 19.9221 15.3076 19.929 14.2909C19.9311 13.9515 20.1477 13.7377 20.4512 13.7398C20.7568 13.7418 20.9547 13.9536 20.9589 14.2992C20.9644 14.7296 20.9602 15.1607 20.9602 15.5918Z" fill="black"/>
</svg>
