<svg width="390" height="844" viewBox="0 0 390 844" fill="none" xmlns="http://www.w3.org/2000/svg">
<g opacity="0.15">
<path d="M-478.969 581.12C-484.727 579.577 -490.467 577.849 -496.167 575.971C-524.808 566.515 -551.216 550.978 -570.474 532.266C-581.13 521.935 -589.551 510.74 -595.502 498.997C-601.951 486.263 -605.528 472.898 -606.103 459.256C-606.871 440.631 -601.78 421.159 -591.338 402.962C-581.815 386.299 -568.066 370.96 -551.593 358.514C-519.555 334.397 -481.109 321.508 -443.914 309.015L-187.325 222.943C-125.874 202.317 -61.3961 173.245 -49.0395 113.951C-36.0599 51.7386 -91.0958 -3.69489 -147.7 -28.8189C-170.272 -38.8435 -194.377 -46.3522 -217.689 -53.6165C-253.577 -64.7595 -290.665 -76.2879 -322.476 -97.186L-322.307 -97.459C-290.556 -76.5767 -253.467 -65.0483 -217.609 -53.9133C-194.268 -46.641 -170.163 -39.1323 -147.591 -29.1077C-132.92 -22.6 -118.993 -14.383 -106.143 -4.6412C-92.7042 5.51297 -81.1624 16.8129 -71.8484 28.9474C-50.8271 56.2753 -42.8401 85.7095 -48.7347 114.001C-51.7109 128.314 -58.0114 141.736 -67.4573 153.838C-75.8824 164.623 -87.0915 174.758 -100.782 183.941C-127.898 202.156 -161.237 214.505 -187.24 223.22L-443.837 309.322C-480.994 321.793 -519.44 334.682 -551.411 358.785C-586.968 385.586 -607.307 423.145 -605.783 459.246C-603.274 519.215 -545.12 559.451 -496.088 575.674C-394.258 609.385 -284.637 586.238 -178.592 563.85C-170.461 562.116 -162.069 560.357 -153.848 558.646C-105.47 548.578 -41.8999 537.14 20.5605 538.035C51.1425 538.467 79.7436 541.9 105.568 548.215C134.177 555.181 160.604 566.016 184.117 580.364C219.493 601.963 249.014 632.237 277.598 661.496C291.725 675.97 306.358 690.929 321.533 704.697C397.223 773.395 498.401 823.188 622.268 852.655C732.437 878.867 847.191 886.425 958.193 893.741L958.173 894.053C847.171 886.737 732.387 879.172 622.218 852.96C613.488 850.875 604.849 848.688 596.36 846.413C484.139 816.344 391.732 768.838 321.313 704.925C306.138 691.156 291.513 676.167 277.386 661.693C248.832 632.442 219.295 602.228 183.948 580.637C85.0504 520.195 -42.2941 535.762 -153.801 558.945C-162.021 560.655 -170.414 562.415 -178.545 564.149C-278.659 585.295 -382.003 607.102 -478.969 581.12Z" fill="#FF3131"/>
<path d="M-472.403 588.669C-474.856 588.012 -477.302 587.325 -479.74 586.608C-508.406 578.195 -535.094 564.3 -554.87 547.518C-565.812 538.255 -574.735 528.102 -581.366 517.355C-588.535 505.763 -593.069 493.478 -594.853 480.784C-597.371 462.995 -594.808 444.881 -587.24 426.964C-580.276 410.475 -569.106 394.667 -554.928 381.288C-525.131 353.071 -484.359 335.302 -452.177 322.993C-398.802 302.589 -343.637 283.46 -290.264 264.963C-261.55 255.034 -231.854 244.763 -202.759 234.363C-142.194 212.768 -78.5701 182.608 -65.8011 122.725C-52.2739 59.4187 -106.638 1.71574 -162.886 -25.0942C-187.487 -36.8076 -214.055 -45.4534 -239.748 -53.8013C-274.108 -64.9484 -309.609 -76.465 -340.675 -95.5096L-340.445 -95.8933C-309.438 -76.8646 -273.937 -65.348 -239.615 -54.1792C-213.914 -45.861 -187.316 -37.2072 -162.715 -25.4938C-148.023 -18.4714 -134.076 -9.73976 -121.345 0.447207C-107.981 11.1219 -96.5966 22.8887 -87.4316 35.4604C-66.8508 63.7201 -59.1973 93.9238 -65.3776 122.807C-68.4371 137.193 -74.7613 150.704 -84.1283 162.986C-92.4744 173.952 -103.553 184.312 -117.062 193.767C-144.124 212.728 -176.98 225.651 -202.617 234.783C-231.704 245.153 -261.408 255.454 -290.122 265.383C-343.487 283.85 -398.652 302.979 -452.035 323.413C-484.18 335.7 -524.876 353.426 -554.635 381.621C-584.795 410.123 -599.311 446.252 -594.449 480.702C-586.649 535.885 -530.026 571.384 -479.599 586.2C-385.301 613.949 -284.308 594.979 -186.671 576.668C-173.803 574.231 -160.509 571.749 -147.545 569.433C-82.3464 557.732 -25.9548 553.851 24.8084 557.56C54.4441 559.743 82.604 564.584 108.477 572.026C136.575 580.064 162.956 591.427 186.924 605.738C230.248 631.63 266.291 662.379 304.457 694.937C315.456 704.342 326.846 714.074 338.306 723.539C417.875 789.395 520.121 839.6 633.938 868.698C740.673 895.739 851.835 905.42 959.359 914.794L959.307 915.225C851.784 905.851 740.591 896.162 633.857 869.121C630.561 868.281 627.291 867.426 624.046 866.556C572.432 852.727 523.216 834.577 477.554 812.544C426.036 787.669 379.089 757.848 338.025 723.877C326.572 714.382 315.175 704.68 304.175 695.275C266.009 662.717 229.997 631.976 186.724 606.13C160.675 590.561 132.551 578.699 101.921 570.492C33.1815 552.073 -48.2181 552.053 -147.463 569.837C-160.434 572.183 -173.728 574.665 -186.589 577.072C-281.758 594.962 -380.127 613.395 -472.403 588.669Z" fill="#FF3131"/>
<path d="M-454.745 599.699C-457.614 598.931 -460.46 598.115 -463.282 597.253C-493.65 588.066 -519.127 576.181 -539.056 561.871C-562.888 544.796 -577.876 524.748 -583.632 502.305C-587.933 485.47 -587.762 468.21 -583.133 450.936C-578.672 434.286 -570.312 418.52 -558.3 404.084C-536.914 378.289 -504.023 355.737 -460.439 336.971C-409.123 314.87 -355.102 295.498 -302.873 276.759C-275.029 266.755 -246.271 256.424 -218.202 245.813C-162.017 224.539 -95.8097 192.335 -82.5922 131.491C-68.45 67.0771 -122.172 7.09672 -178.08 -21.3398C-204.899 -34.9837 -234.167 -44.8302 -262.502 -54.3629C-295.098 -65.3238 -328.836 -76.6543 -358.875 -93.8331L-358.584 -94.3276C-328.604 -77.1647 -294.896 -65.8422 -262.329 -54.8892C-233.965 -45.3486 -204.667 -35.4941 -177.818 -21.8423C-147.303 -6.31754 -120.74 16.3557 -103.044 41.9656C-82.8366 71.1432 -75.5918 102.16 -82.0579 131.634C-85.1846 146.034 -91.4814 159.68 -100.769 172.142C-109.066 183.28 -120.015 193.866 -133.341 203.592C-160.591 223.49 -194.695 237.51 -217.995 246.345C-246.064 256.957 -274.852 267.28 -302.695 277.284C-354.924 296.023 -408.915 315.403 -460.224 337.474C-503.703 356.204 -536.557 378.735 -557.881 404.419C-582.293 433.792 -591.494 469.437 -583.086 502.165C-568.991 557.126 -501.894 584.998 -463.139 596.718C-380.194 621.838 -290.306 605.969 -203.356 590.616C-182.925 587.025 -161.754 583.281 -141.234 580.19C-80.7155 571.116 -23.3951 570.061 29.0862 577.093C57.6808 580.906 85.3838 587.215 111.423 595.815C138.864 604.885 165.228 616.785 189.762 631.121C245.34 663.636 296.304 697.938 355.081 742.38C440.654 807.078 541.119 856.329 645.601 884.77C646.887 885.115 648.174 885.459 649.46 885.804C749.987 912.74 854.865 924.269 956.322 935.389L960.517 935.877L960.442 936.398L956.238 935.939C854.781 924.819 749.903 913.29 649.316 886.338C648.011 885.988 646.764 885.654 645.458 885.304C540.917 856.847 440.392 807.58 354.738 742.829C295.991 698.394 245.027 664.093 189.479 631.586C98.7527 578.518 -12.4865 561.404 -141.162 580.751C-161.681 583.842 -182.815 587.563 -203.283 591.177C-287.296 606.012 -374.103 621.307 -454.745 599.699Z" fill="#FF3131"/>
<path d="M-460.091 604.693C-484.132 598.251 -505.951 589.096 -523.823 577.914C-547.905 562.84 -564.242 544.624 -572.382 523.834C-578.635 507.875 -580.9 491.394 -579.079 474.863C-577.271 458.265 -571.417 442.115 -561.665 426.85C-543.153 397.772 -510.157 370.794 -468.732 350.941C-419.402 327.353 -366.523 307.612 -315.406 288.511C-288.479 278.484 -260.659 268.093 -233.636 257.233C-178.286 235.036 -112.976 201.669 -99.3617 140.295C-84.6401 74.6682 -137.728 12.4401 -193.266 -17.6151C-222.471 -33.3935 -254.788 -44.5659 -286.039 -55.3253C-316.696 -65.9256 -348.383 -76.834 -377.075 -92.1566L-376.752 -92.7698C-348.119 -77.4631 -316.432 -66.5547 -285.805 -55.9624C-254.524 -45.195 -222.207 -34.0226 -192.95 -18.1986C-162.415 -1.68219 -136.026 21.9944 -118.627 48.4787C-98.8226 78.5664 -91.9489 110.374 -98.7008 140.44C-112.402 202.141 -177.863 235.594 -233.364 257.878C-260.416 268.73 -288.266 279.114 -315.163 289.149C-366.272 308.22 -419.152 327.961 -468.422 351.565C-509.734 371.353 -542.668 398.22 -561.097 427.225C-580.449 457.541 -584.215 491.778 -571.744 523.591C-556.451 562.681 -510.856 593.158 -446.688 607.266C-367.488 624.638 -283.271 612.244 -201.863 600.242C-179.843 597.012 -157.053 593.639 -134.931 590.977C-77.4672 584.043 -20.8153 585.958 33.4311 596.612C88.7025 607.478 142.245 627.646 192.57 656.495C211.564 667.406 230.257 677.663 248.365 687.605C291.045 711.034 331.361 733.194 371.854 761.222C465.454 826.002 561.47 872.98 657.272 900.813C754.86 929.22 856.691 942.859 955.177 956.046L961.684 956.931L961.598 957.607L955.091 956.723C856.576 943.527 754.714 929.881 657.097 901.466C607.957 887.185 557.918 867.479 508.363 842.876C462.142 819.961 416.106 792.675 371.45 761.782C330.987 733.761 290.692 711.64 248.02 688.181C229.941 678.247 211.249 667.99 192.225 657.071C151.91 633.957 109.971 616.548 66.6678 604.945C2.32085 587.704 -65.036 583.239 -134.853 591.635C-156.983 594.326 -179.735 597.677 -201.755 600.907C-283.26 612.915 -367.515 625.331 -446.833 607.927C-451.303 606.92 -455.728 605.862 -460.091 604.693Z" fill="#FF3131"/>
<path d="M710.659 929.751C696.62 925.989 682.615 921.982 668.728 917.656C621.889 903.102 574.394 883.632 523.58 858.151C480.896 836.756 436.601 811.4 388.162 780.733C353.493 758.751 318.85 742.725 282.129 725.791C253.794 712.696 224.491 699.182 195.001 682.563C142.26 652.876 90.9837 631.375 40.5569 617.863C-16.6074 602.546 -72.6478 597.518 -128.522 602.556C-155.157 604.963 -182.616 608.548 -209.157 612.03C-282.669 621.63 -358.653 631.555 -430.376 618.572C-459.832 613.224 -486.829 604.399 -508.418 593.08C-533.065 580.113 -550.818 564.095 -561.139 545.392C-569.537 530.195 -574.237 514.493 -575.083 498.774C-575.99 482.212 -572.619 465.715 -565.045 449.675C-557.415 433.428 -545.641 417.624 -530.044 402.748C-515 388.392 -496.675 375.329 -477.002 364.949C-429.639 339.912 -377.893 319.771 -327.842 300.257C-301.883 290.162 -275.031 279.702 -249.079 268.682C-194.554 245.532 -130.179 211.024 -116.123 149.069C-100.727 81.8734 -151.401 18.8287 -208.459 -13.8608C-240.285 -32.0908 -275.963 -44.6092 -310.47 -56.7501C-338.879 -66.7163 -368.273 -77.042 -395.245 -90.4723L-394.89 -91.2043C-367.948 -77.7819 -338.613 -67.4721 -310.204 -57.5059C-275.667 -45.357 -239.959 -32.8307 -208.083 -14.5551C-177.519 2.92328 -151.311 27.6328 -134.21 54.9917C-114.846 86.011 -108.306 118.589 -115.344 149.246C-118.658 163.754 -124.922 177.632 -134.044 190.425C-142.213 201.915 -152.93 212.945 -165.923 223.206C-192.928 244.568 -226.122 259.819 -248.763 269.403C-274.753 280.444 -301.605 290.905 -327.534 301.008C-377.577 320.492 -429.293 340.641 -476.619 365.656C-517.274 387.146 -549.237 417.869 -564.335 449.993C-578.959 481.066 -577.611 513.907 -560.432 545.009C-534.168 592.542 -467.598 610.984 -430.229 617.784C-358.632 630.765 -282.707 620.825 -209.263 611.238C-182.722 607.756 -155.263 604.171 -128.598 601.772C-100.56 599.233 -72.1174 599.219 -44.0378 601.749C-17.0448 604.178 10.5035 609.046 37.7978 616.169C89.1946 629.623 140.762 651.107 195.378 681.869C224.846 698.45 254.142 711.994 282.454 725.051C319.198 742.023 353.908 758.035 388.599 780.055C493.647 846.631 582.745 890.1 668.964 916.893C762.443 945.917 859.963 961.517 954.249 976.602L962.85 977.984L962.732 978.779L954.132 977.398C873.812 964.56 791.182 951.327 710.659 929.751Z" fill="#FF3131"/>
<path d="M747.38 953.81C724.883 947.782 702.506 941.182 680.337 933.81C636.538 919.306 590.226 899.58 538.735 873.536C491.258 849.49 444.772 822.815 404.913 799.664C370.803 779.868 336.483 766.791 300.142 752.949C266.629 740.184 231.991 726.99 197.748 708.049C86.4211 646.503 -10.6349 606.85 -122.251 613.462C-153.311 615.287 -185.461 619.047 -216.537 622.713C-282.093 630.405 -349.883 638.358 -413.919 629.216C-444.13 624.907 -470.799 617.825 -493.14 608.244C-518.448 597.391 -537.534 583.497 -549.867 566.958C-572.668 536.418 -578.916 504.65 -568.425 472.501C-562.85 455.258 -552.169 437.474 -537.546 421.129C-523.127 404.951 -505.03 390.364 -485.265 378.927C-439.818 352.613 -389.174 331.954 -340.181 311.998C-315.22 301.826 -289.395 291.281 -264.521 280.132C-210.823 256.029 -147.345 220.358 -132.914 157.835C-116.863 89.3834 -166.919 24.1504 -223.675 -10.144C-258.34 -31.0752 -297.786 -45.0806 -335.93 -58.6094C-361.818 -67.773 -388.543 -77.2563 -413.445 -88.7958L-413.058 -89.6465C-388.186 -78.1149 -361.49 -68.6396 -335.632 -59.4839C-297.429 -45.9392 -257.953 -31.9259 -223.185 -10.9035C-192.631 7.55863 -166.566 33.2794 -149.793 61.5049C-130.832 93.4342 -124.693 126.795 -132.016 158.044C-135.377 172.604 -141.664 186.57 -150.677 199.552C-158.797 211.214 -169.384 222.47 -182.187 232.972C-202.631 249.794 -228.67 265.053 -264.14 280.966C-289.052 292.137 -314.869 302.652 -339.838 312.853C-388.793 332.788 -439.399 353.425 -484.808 379.717C-525.326 403.185 -556.276 437.964 -567.543 472.769C-577.925 504.63 -571.732 536.128 -549.12 566.427C-526.173 597.134 -478.11 619.11 -413.769 628.302C-349.882 637.404 -282.16 629.465 -216.641 621.795C-185.535 618.136 -153.385 614.377 -122.287 612.529C-68.7251 609.353 -14.9342 616.959 42.1863 635.764C87.8253 650.76 135.932 672.812 198.216 707.252C232.378 726.14 266.986 739.326 300.469 752.083C336.833 765.962 371.182 779.047 405.373 798.897C496.032 851.501 585.269 901.338 680.627 932.965C770.084 962.629 863.309 980.133 953.481 997.042L964.046 999.045L963.867 999.952L953.331 997.956C885.458 985.209 815.823 972.149 747.38 953.81Z" fill="#FF3131"/>
<path d="M792.526 980.858C758.72 971.8 725.087 961.738 691.938 949.993C614.273 922.502 539.514 882.143 467.201 843.108C452.2 834.984 436.717 826.637 421.625 818.616C386.866 800.173 350.096 788.762 314.565 777.714C277.001 766.058 238.207 754.009 200.524 733.542C195.881 731.004 191.245 728.479 186.616 725.966C120.742 690.087 57.3122 655.531 -10.3886 637.391C-44.2241 628.325 -79.1274 623.362 -115.942 624.346C-151.423 625.336 -188.302 629.292 -223.964 633.098C-281.58 639.291 -341.159 645.69 -397.432 639.869C-428.199 636.683 -455.319 631.166 -477.975 623.473C-504.026 614.679 -524.415 602.917 -538.573 588.562C-552.153 574.776 -561.522 561.068 -567.265 546.645C-573.787 530.265 -575.3 512.999 -571.805 495.326C-564.469 457.973 -534.487 418.735 -493.565 392.927C-449.916 365.367 -400.336 344.169 -352.4 323.643C-328.474 313.417 -303.721 302.839 -279.956 291.552C-227.122 266.517 -164.541 229.684 -149.676 166.609C-133.022 96.8558 -182.467 29.464 -238.869 -6.38962C-276.679 -30.4223 -320.372 -45.9153 -362.634 -60.9295C-385.559 -69.0445 -409.29 -77.4711 -431.616 -87.1114L-431.234 -88.0591C-408.901 -78.4485 -385.199 -70.0297 -362.274 -61.9148C-319.982 -46.8926 -276.23 -31.3837 -238.31 -7.28954C-207.764 12.1563 -181.843 38.8883 -165.385 68.0476C-146.848 100.849 -141.05 135.009 -148.659 166.85C-152.103 181.483 -158.384 195.546 -167.319 208.708C-175.389 220.542 -185.867 231.986 -198.458 242.768C-218.793 260.128 -244.535 275.944 -279.51 292.499C-303.305 303.778 -328.057 314.356 -351.991 324.612C-399.89 345.115 -449.432 366.292 -493.006 393.808C-533.702 419.487 -563.486 458.459 -570.78 495.537C-577.328 528.521 -566.551 558.702 -537.83 587.807C-511.264 614.744 -463.985 631.929 -397.34 638.812C-341.164 644.639 -281.652 638.254 -224.074 632.082C-188.404 628.247 -151.495 624.299 -115.955 623.324C-89.2587 622.588 -63.0829 624.862 -35.8797 630.306C-11.5062 635.151 13.2503 642.484 39.7551 652.672C89.2094 671.713 136.759 697.624 187.116 725.05C191.745 727.563 196.38 730.088 201.024 732.626C238.596 753.032 277.361 765.073 314.865 776.713C350.456 787.776 387.255 799.196 422.125 817.7C437.188 825.713 452.7 834.068 467.701 842.192C539.963 881.182 614.692 921.533 692.298 949.007C777.81 979.269 866.836 998.67 952.922 1017.41C957.026 1018.32 961.123 1019.22 965.212 1020.1L965.001 1021.12C960.892 1020.23 956.785 1019.34 952.681 1018.43C899.895 1006.96 846.01 995.189 792.526 980.858Z" fill="#FF3131"/>
<path d="M858.656 1014.83C806.686 1000.91 754.496 985.428 703.577 966.154C642.422 943.055 582.478 911.756 524.514 881.496C496.164 866.678 466.861 851.383 438.367 837.577C402.465 820.195 364.41 810.73 327.64 801.577C286.482 791.344 243.929 780.737 203.3 759.035C183.458 748.437 163.989 737.399 145.155 726.722C62.7005 679.943 -15.2061 635.782 -109.641 635.259C-149.536 635.035 -191.168 639.277 -231.448 643.34C-281.121 648.385 -332.459 653.588 -380.975 650.514C-450.01 646.14 -497.848 632.94 -527.271 610.137C-562.433 582.869 -578.109 552.806 -575.164 518.189C-573.531 498.681 -565.728 477.868 -552.589 458.039C-539.573 438.432 -522.043 420.734 -501.857 406.897C-459.94 378.205 -411.431 356.37 -364.505 335.224C-341.652 324.964 -318.024 314.308 -295.398 303.002C-247.427 279.018 -181.89 239.7 -166.467 175.375C-149.142 104.307 -197.978 34.7561 -254.055 -2.66478C-295.354 -30.1773 -343.851 -47.212 -390.717 -63.6826C-410.308 -70.5862 -430.544 -77.6944 -449.815 -85.4348L-449.373 -86.4933C-430.123 -78.7904 -409.887 -71.6822 -390.356 -64.7946C-343.37 -48.2921 -294.814 -31.2415 -253.412 -3.63784C-222.86 16.7323 -197.128 44.5271 -180.968 74.5608C-162.826 108.243 -157.436 143.216 -165.331 175.648C-168.85 190.324 -175.134 204.514 -183.981 217.826C-191.965 229.812 -202.32 241.511 -214.752 252.527C-234.947 270.433 -260.393 286.805 -294.879 304.032C-317.542 315.36 -341.17 326.016 -364.032 336.305C-410.911 357.4 -459.354 379.221 -501.195 407.869C-542.185 435.95 -570.753 479.289 -574.01 518.276C-576.903 552.461 -561.393 582.193 -526.548 609.217C-497.331 631.838 -449.7 644.982 -380.88 649.33C-332.492 652.403 -281.191 647.221 -231.585 642.189C-191.268 638.105 -149.606 633.872 -109.643 634.082C-14.888 634.595 63.1511 678.855 145.746 725.703C164.58 736.381 184.02 747.411 203.832 758C244.35 779.641 286.844 790.232 327.912 800.441C364.772 809.618 402.857 819.091 438.869 836.534C467.363 850.34 496.696 865.644 525.046 880.461C582.98 910.713 642.902 941.975 703.99 965.088C785.565 995.916 870.446 1017.13 952.514 1037.69C957.145 1038.85 961.777 1040 966.408 1041.16L966.136 1042.3C961.485 1041.13 956.843 1039.98 952.212 1038.82C921.328 1031.09 890.028 1023.24 858.656 1014.83Z" fill="#FF3131"/>
<path d="M967.241 1063.46C962.137 1062.01 957.024 1060.55 951.9 1059.1C873.768 1036.79 793.001 1013.75 715.178 982.337C665.917 962.457 617.036 937.239 569.781 912.839C532.102 893.423 493.175 873.321 455.109 856.537C417.856 840.161 378.348 832.438 340.162 825.005C295.565 816.332 249.459 807.35 206.046 784.52C177.026 769.236 149.346 752.276 122.595 735.883C50.1338 691.463 -18.3064 649.489 -103.34 646.173C-147.629 644.422 -194.084 649.089 -239.029 653.587C-280.705 657.754 -323.784 662.053 -364.488 661.167C-413.685 660.041 -475.357 655.731 -515.94 631.719C-534.693 620.618 -549.398 608.184 -559.637 594.752C-571.874 578.685 -578.204 560.638 -578.523 541.052C-578.892 520.467 -572.502 498.162 -560.063 476.555C-547.847 455.301 -530.567 436.042 -510.128 420.904C-469.884 391.096 -422.383 368.514 -376.461 346.717C-354.739 336.409 -332.318 325.748 -310.841 314.452C-263.644 289.561 -199.077 248.997 -183.229 184.149C-165.277 111.69 -213.502 39.9808 -269.278 1.08169C-314.379 -30.4079 -368.351 -48.9732 -420.506 -66.9564C-436.209 -72.3412 -452.402 -77.9204 -467.986 -83.7504L-467.541 -84.9355C-451.978 -79.1432 -435.757 -73.5559 -420.083 -68.1791C-367.839 -50.1721 -313.786 -31.5532 -268.545 0.00581964C-237.994 21.33 -212.406 50.136 -196.529 81.1116C-178.812 115.666 -173.786 151.401 -181.982 184.483C-185.576 199.203 -191.854 213.49 -200.615 226.953C-208.549 239.11 -218.796 250.998 -231.038 262.255C-251.092 280.708 -276.25 297.667 -310.249 315.565C-331.734 326.89 -354.192 337.574 -375.914 347.882C-421.769 369.665 -469.224 392.196 -509.385 421.931C-551.312 453.037 -577.955 499.755 -577.24 541.014C-576.667 576.987 -556.395 606.278 -515.288 630.59C-474.956 654.471 -413.499 658.754 -364.459 659.87C-323.822 660.77 -280.803 656.455 -239.157 652.281C-194.181 647.79 -147.667 643.139 -103.311 644.877C-17.9051 648.229 50.6755 690.273 123.277 734.762C149.998 751.147 177.649 768.099 206.64 783.375C249.882 806.127 295.899 815.085 340.407 823.735C378.682 831.191 418.258 838.9 455.613 855.368C493.739 872.168 532.704 892.248 570.374 911.694C617.599 936.086 666.451 961.296 715.661 981.13C793.424 1012.53 874.161 1035.56 952.264 1057.86C957.387 1059.31 962.501 1060.77 967.604 1062.22L967.241 1063.46Z" fill="#FF3131"/>
<path d="M968.375 1084.63C962.83 1082.85 957.287 1081.06 951.747 1079.25C877.542 1055.24 800.815 1030.41 726.788 998.49C686.976 981.333 647.074 960.717 608.487 940.77C563.76 917.62 517.518 893.714 471.852 875.497C433.166 860.073 392.124 854.039 352.458 848.213C304.493 841.183 254.916 833.879 208.823 810.013C173.488 791.701 140.867 769.791 109.36 748.592C43.7646 704.549 -18.1521 662.923 -97.0606 657.049C-145.724 653.458 -197.072 658.818 -246.747 663.989C-280.362 667.516 -315.12 671.15 -347.993 671.79C-401.282 672.876 -461.722 672.396 -504.608 653.301C-525.952 643.797 -543.176 632.215 -555.861 618.891C-570.927 603.052 -579.679 584.547 -581.873 563.886C-584.201 542.299 -579.261 518.523 -567.516 495.108C-556.078 472.246 -539.114 451.438 -518.428 434.904C-479.76 403.974 -433.23 380.622 -388.249 358.064C-367.743 347.781 -346.529 337.114 -326.305 325.864C-279.861 300.103 -216.249 258.233 -199.998 192.953C-181.373 119.052 -228.996 45.2133 -284.464 4.80638C-333.894 -31.1834 -394.109 -51.2625 -452.374 -70.6603C-463.5 -74.373 -475.011 -78.189 -486.156 -82.066L-485.709 -83.3778C-474.556 -79.5305 -463.045 -75.7144 -451.92 -72.0017C-393.573 -52.5504 -333.231 -32.4692 -283.647 3.65737C-253.089 25.9059 -227.712 55.7369 -212.112 87.6247C-194.798 123.089 -190.143 159.615 -198.625 193.289C-202.324 208.044 -208.566 222.437 -217.278 236.072C-225.132 248.409 -235.241 260.493 -247.331 272.014C-267.208 290.991 -292.099 308.498 -325.626 327.127C-345.88 338.369 -367.093 349.036 -387.629 359.312C-432.543 381.856 -478.968 405.172 -517.544 436C-559.778 469.792 -585.082 521.131 -580.47 563.753C-576.461 601.505 -550.732 631.208 -504.035 651.992C-461.407 670.985 -401.153 671.447 -348.029 670.38C-315.215 669.725 -280.495 666.112 -246.88 662.586C-197.167 657.392 -145.722 652.027 -96.9699 655.642C-17.6893 661.552 44.3976 703.255 110.118 747.427C141.633 768.596 174.202 790.461 209.477 808.757C255.341 832.53 304.838 839.78 352.667 846.838C392.431 852.657 433.532 858.708 472.358 874.201C518.114 892.442 564.386 916.356 609.142 939.514C647.699 959.452 687.571 980.061 727.353 997.21C801.3 1029.08 878.026 1053.9 952.202 1077.91C957.742 1079.72 963.275 1081.51 968.801 1083.28L968.375 1084.63Z" fill="#FF3131"/>
<path d="M969.48 1105.8C963.568 1103.64 957.667 1101.49 951.775 1099.33C881.429 1073.61 808.675 1047.03 738.388 1014.67C706.592 1000.01 674.482 983.203 643.436 966.931C592.995 940.532 540.833 913.195 488.594 894.457C448.423 880.067 405.878 875.602 364.718 871.317C339.071 868.612 312.553 865.833 286.896 860.676C258.096 854.9 233.459 846.644 211.577 835.468C171.582 815.081 135.876 788.654 101.356 763.149C40.8996 718.446 -16.2147 676.23 -90.7896 667.955C-143.834 662.076 -200.166 668.582 -254.66 674.88C-280.163 677.813 -306.488 680.843 -331.506 682.442C-340.214 683.004 -349.043 683.66 -357.61 684.291C-408.582 688.13 -456.725 691.74 -493.358 674.83C-512.329 666.088 -534.028 655.534 -551.304 641.298C-570.147 625.783 -581.243 607.954 -585.232 586.749C-589.518 564.16 -585.962 538.9 -574.947 513.699C-569.691 501.682 -562.906 490.013 -554.708 479.007C-546.495 467.943 -537.075 457.838 -526.728 448.904C-489.51 416.854 -443.957 392.636 -399.893 369.228C-380.648 359.02 -360.725 348.42 -341.748 337.313C-296.071 310.616 -233.451 267.462 -216.789 201.719C-197.462 126.384 -244.513 50.4083 -299.68 8.52317C-353.949 -32.6761 -421.475 -54.0781 -486.741 -74.7788C-492.516 -76.6126 -498.499 -78.5021 -504.334 -80.3519L-503.877 -81.82C-498.042 -79.9702 -492.059 -78.0807 -486.284 -76.2469C-420.87 -55.5065 -353.233 -34.0429 -298.75 7.30899C-268.223 30.5036 -242.99 61.3459 -227.703 94.1675C-210.806 130.475 -206.492 167.8 -215.297 202.087C-219.042 216.894 -225.316 231.405 -233.903 245.168C-241.738 257.67 -251.717 269.98 -263.617 281.742C-283.081 300.958 -308.363 319.569 -340.995 338.66C-359.972 349.767 -379.895 360.366 -399.178 370.596C-443.167 393.961 -488.637 418.106 -525.734 450.061C-568.837 487.215 -592.149 542.046 -583.729 586.484C-575.162 631.915 -534.06 654.349 -492.731 673.439C-456.438 690.194 -408.489 686.596 -357.711 682.769C-349.173 682.13 -340.345 681.474 -331.607 680.92C-306.648 679.305 -280.294 676.282 -254.85 673.334C-200.267 667.06 -143.838 660.548 -90.6076 666.445C-72.5665 668.447 -55.1176 672.423 -37.2517 678.642C-21.2971 684.157 -5.3564 691.387 11.4963 700.675C42.8162 717.942 71.7046 739.298 102.264 761.897C136.755 787.394 172.408 813.776 212.285 834.131C260.787 858.865 313.695 864.421 364.878 869.769C406.12 874.108 448.761 878.567 489.102 893.035C541.431 911.796 593.652 939.149 644.145 965.594C675.169 981.828 707.249 998.631 739.053 1013.26C809.273 1045.63 881.967 1072.2 952.291 1097.88C958.203 1100.04 964.102 1102.2 969.988 1104.37L969.48 1105.8Z" fill="#FF3131"/>
<path d="M970.585 1126.96C964.357 1124.4 958.129 1121.84 951.902 1119.28C885.4 1091.92 816.602 1063.62 749.998 1030.83C725.352 1018.69 700.34 1005.31 676.14 992.331C620.804 962.712 563.577 932.077 505.336 913.417C463.731 900.106 419.663 897.173 377.069 894.318C349.693 892.486 321.417 890.571 294.147 885.969C263.541 880.758 237.45 872.59 214.353 860.961C170.732 839.03 133.04 808.38 96.6069 778.736C40.1581 732.849 -13.1505 689.489 -84.5181 678.86C-142.086 670.274 -203.53 678.528 -262.898 686.51C-280.946 688.927 -297.979 691.235 -315.019 693.095C-325.832 694.269 -336.797 695.658 -347.366 696.993C-396.589 703.208 -443.049 709.083 -481.997 696.42C-510.551 687.115 -531.459 677.409 -547.759 665.82C-557.886 658.621 -566.382 650.555 -572.98 641.82C-580.257 632.172 -585.493 621.321 -588.59 609.612C-594.783 586.066 -592.641 559.315 -582.348 532.297C-572.633 506.843 -555.82 482.209 -535.028 462.903C-499.177 429.66 -454.525 404.533 -411.354 380.185C-393.416 370.104 -374.867 359.646 -357.22 348.755C-312.302 321.09 -250.614 276.669 -233.551 210.493C-213.572 133.678 -259.999 55.6112 -314.903 12.2696C-374.743 -34.9713 -453.233 -58.1976 -522.534 -78.6755L-522.045 -80.2623C-487.936 -70.2002 -449.265 -58.7569 -413.158 -44.2785C-373.06 -28.1901 -340.584 -10.1354 -313.852 10.9605C-283.319 35.0795 -258.259 66.9251 -243.286 100.681C-226.783 137.868 -222.87 175.977 -231.94 210.893C-235.768 225.773 -242.028 240.351 -250.566 254.287C-258.314 266.939 -268.214 279.429 -279.924 291.433C-299.173 311.152 -324.175 330.379 -356.335 350.201C-374.041 361.076 -392.59 371.534 -410.537 381.645C-453.624 405.919 -498.201 431.003 -533.894 464.13C-577.786 504.826 -599.13 563.111 -586.988 609.214C-573.909 658.94 -523.732 681.102 -481.478 694.841C-442.908 707.371 -396.591 701.554 -347.592 695.342C-336.993 694.015 -326.028 692.626 -315.207 691.422C-298.175 689.592 -281.142 687.284 -263.123 684.859C-203.629 676.879 -142.08 668.59 -84.2667 677.21C-66.9884 679.804 -50.316 684.303 -33.3751 691.005C-18.2187 697.007 -3.14939 704.639 12.735 714.335C42.2231 732.384 69.1572 754.266 97.6495 777.456C134.01 807.018 171.62 837.613 215.101 859.476C266.254 885.238 322.636 888.989 377.164 892.657C419.884 895.515 464.041 898.471 505.854 911.838C564.244 930.538 621.522 961.218 676.939 990.891C701.117 1003.83 726.1 1017.2 750.716 1029.33C817.291 1062.12 886.058 1090.41 952.539 1117.74C958.761 1120.31 964.987 1122.88 971.214 1125.44L970.585 1126.96Z" fill="#FF3131"/>
<path d="M971.69 1148.13C965.196 1145.13 958.705 1142.13 952.216 1139.12C889.483 1110.16 824.605 1080.18 761.607 1046.98C754.766 1043.39 747.919 1039.77 741.069 1036.13C669.842 998.501 596.193 959.585 522.048 932.369C476.75 915.746 427.535 914.807 379.908 913.879C352.435 913.357 324.017 912.804 296.685 909.266C266.006 905.277 239.985 897.795 217.129 886.454C170.516 863.339 131.597 828.607 93.9628 795.015C40.7976 747.558 -9.39387 702.775 -78.2468 689.766C-140.613 677.954 -207.252 688.855 -271.701 699.421C-280.551 700.867 -289.691 702.331 -298.524 703.718C-307.261 705.099 -316.11 706.545 -324.698 707.966C-376.606 716.484 -425.652 724.529 -470.598 717.989C-498.428 713.935 -523.953 704.837 -544.356 691.704C-567.98 676.467 -583.991 656.557 -591.919 632.483C-600.049 607.973 -599.269 579.775 -589.676 550.979C-580.757 524.103 -564.297 497.815 -543.337 476.933C-508.738 442.431 -464.948 416.246 -422.596 390.916C-406.077 381.027 -388.985 370.782 -372.67 360.234C-328.503 331.573 -267.762 285.817 -250.342 219.259C-229.645 140.95 -275.499 60.7467 -330.089 15.9942C-390.134 -33.2103 -467.058 -56.9395 -540.704 -76.9911L-540.213 -78.7046C-504.191 -68.8935 -465.822 -57.7535 -429.192 -42.8489C-388.951 -26.4673 -356.166 -7.66215 -328.955 14.6121C-313.883 26.985 -300.213 41.1456 -288.356 56.7292C-276.214 72.6753 -266.296 89.6796 -258.877 107.223C-242.77 145.291 -239.228 184.191 -248.62 219.72C-252.516 234.614 -258.778 249.319 -267.221 263.376C-274.912 276.171 -284.681 288.886 -296.231 301.124C-315.295 321.338 -339.979 341.159 -371.696 361.704C-388.027 372.312 -405.148 382.548 -421.697 392.429C-463.944 417.723 -507.622 443.844 -542.083 478.191C-586.62 522.595 -605.972 584.373 -590.248 631.945C-575.693 675.927 -530.884 707.434 -470.315 716.219C-425.673 722.71 -376.762 714.692 -324.989 706.202C-316.401 704.781 -307.552 703.335 -298.786 701.962C-289.96 700.605 -280.842 699.103 -271.992 697.657C-240.25 692.452 -207.416 687.094 -174.681 684.476C-137.603 681.56 -105.967 682.688 -77.9044 688.013C-61.2165 691.148 -45.2098 696.232 -28.9564 703.482C-14.4636 709.942 -0.0954854 718.055 14.9906 728.237C43.003 747.163 69.5273 770.812 95.1481 793.678C132.709 827.187 171.518 861.858 217.909 884.85C268.506 909.955 325.157 911.042 379.938 912.105C427.692 913.035 477.092 913.993 522.658 930.688C596.921 957.935 670.622 996.897 741.87 1034.57C748.746 1038.19 755.602 1041.81 762.438 1045.42C825.377 1078.6 890.233 1108.55 952.966 1137.51C959.455 1140.52 965.946 1143.52 972.44 1146.51L971.69 1148.13Z" fill="#FF3131"/>
<path d="M972.765 1169.28C966.061 1165.81 959.356 1162.34 952.652 1158.87C893.657 1128.3 832.645 1096.71 773.178 1063.15L765.721 1058.93C692.944 1017.83 617.685 975.3 538.82 951.337C492.487 937.268 442.753 937.557 394.665 937.874C365.064 938.054 334.479 938.225 305.173 935.049C272.221 931.469 244.346 923.904 219.876 911.939C170.774 887.903 131.08 849.177 92.7355 811.705C42.3493 762.543 -5.19778 716.083 -71.9676 700.642C-139.547 685.015 -214.902 700.548 -281.364 714.232L-282.008 714.378C-293.115 716.651 -304.336 719.116 -315.221 721.512C-365.517 732.561 -413.038 742.987 -459.229 739.549C-489.169 737.316 -517.244 729.189 -540.442 716.038C-553.059 708.872 -563.999 700.31 -573.033 690.573C-582.703 680.124 -590.188 668.289 -595.248 655.354C-605.255 629.896 -605.874 600.273 -596.966 569.639C-588.815 541.475 -572.7 513.505 -551.637 490.932C-518.171 455.078 -475.181 427.723 -433.615 401.292C-418.577 391.706 -403.011 381.816 -388.143 371.676C-344.697 342.026 -284.924 294.897 -267.103 228.033C-245.71 148.193 -290.97 65.8902 -345.304 19.7109C-406.407 -32.1947 -487.539 -57.4332 -558.845 -75.2988L-558.381 -77.1469C-511.547 -65.4247 -476.641 -54.4175 -445.226 -41.4193C-404.781 -24.7288 -371.71 -5.21066 -344.058 18.2635C-328.957 31.1215 -315.325 45.7808 -303.536 61.8551C-291.491 78.2841 -281.723 95.7257 -274.438 113.774C-258.747 152.684 -255.569 192.346 -265.263 228.526C-269.242 243.493 -275.52 258.257 -283.876 272.465C-291.518 285.432 -301.178 298.335 -312.568 310.807C-331.401 331.465 -355.775 351.91 -387.066 373.237C-401.943 383.407 -417.546 393.318 -432.584 402.904C-474.074 429.292 -516.944 456.552 -550.235 492.231C-587.724 532.415 -615.664 598.222 -593.499 654.645C-571.744 710.1 -509.817 733.883 -459.1 737.643C-413.162 741.077 -365.776 730.679 -315.615 719.656C-304.76 717.253 -293.508 714.796 -282.393 712.493L-281.758 712.377C-247.681 705.348 -212.461 698.085 -176.846 694.457C-136.394 690.345 -101.938 691.752 -71.5339 698.786C-55.3633 702.546 -39.8799 708.158 -24.2031 716.017C-10.2632 722.997 3.53031 731.592 17.9665 742.299C44.7328 762.196 69.7974 786.663 94.0553 810.341C132.334 847.701 171.896 886.327 220.717 910.224C274.794 936.707 335.718 936.331 394.637 935.958C440.168 935.688 487.167 935.398 531.48 947.271C534.111 947.976 536.743 948.724 539.373 949.513C618.438 973.562 693.785 1016.11 766.674 1057.28L774.131 1061.5C833.537 1095.04 894.55 1126.63 953.523 1157.16C960.227 1160.63 966.942 1164.11 973.666 1167.58L972.765 1169.28Z" fill="#FF3131"/>
<path d="M973.87 1190.45C966.991 1186.44 960.119 1182.45 953.254 1178.46C897.944 1146.37 840.73 1113.19 784.788 1079.31C779.569 1076.15 774.342 1072.98 769.109 1069.79C701.711 1028.8 631.988 986.386 555.622 970.314C510.033 960.707 461.968 961.888 415.506 963.022C382.779 963.828 348.963 964.661 316.583 961.679C280.296 958.318 249.557 950.399 222.652 937.432C170.877 912.33 130.309 869.744 91.0881 828.537C43.3198 778.391 -1.75997 731.033 -65.7558 711.532C-128.284 692.487 -198.7 707.752 -265.484 725.009C-277.686 728.165 -290.049 731.565 -302 734.852C-325.985 741.5 -350.787 748.342 -375.049 753.293C-402.265 758.821 -426.115 761.401 -447.89 761.101C-463.33 760.909 -478.646 759.064 -493.459 755.699C-508.895 752.167 -523.38 746.982 -536.52 740.343C-550.444 733.304 -562.702 724.675 -572.939 714.679C-583.909 703.978 -592.55 691.705 -598.607 678.217C-610.469 651.848 -612.413 620.757 -604.213 588.375C-596.801 558.931 -581.068 529.3 -559.945 504.962C-527.497 467.562 -485.254 438.958 -444.375 411.292C-430.887 402.15 -416.939 392.717 -403.585 383.126C-360.912 352.442 -302.032 303.896 -283.865 236.807C-264.429 165.223 -294.542 81.4751 -360.528 23.4574C-425.17 -33.4047 -510.184 -58.2836 -577.015 -73.6143L-576.579 -75.597C-530.842 -65.1231 -494.204 -53.811 -461.253 -40.0192C-420.612 -22.99 -387.204 -2.7134 -359.16 21.9152C-344.023 35.2284 -330.429 50.3865 -318.686 66.9893C-306.798 83.8851 -297.127 101.81 -290.03 120.317C-274.726 160.078 -271.918 200.531 -281.906 237.332C-285.99 252.334 -292.24 267.233 -300.561 281.546C-308.145 294.656 -317.668 307.755 -328.898 320.461C-347.499 341.562 -371.555 362.601 -402.406 384.778C-415.797 394.391 -429.745 403.824 -443.233 412.966C-483.999 440.566 -526.159 469.097 -558.417 506.262C-596.208 549.833 -622.71 619.652 -596.759 677.376C-570.155 736.58 -499.937 758.385 -447.855 759.075C-399.642 759.714 -350.279 746.092 -302.534 732.928C-290.575 729.611 -278.212 726.211 -266.002 723.025C-235.624 715.196 -200.334 706.487 -165.566 702.697C-127.087 698.47 -94.2253 700.722 -65.1716 709.589C-49.6435 714.322 -34.8301 720.772 -19.8589 729.365C-6.50365 736.983 6.63207 746.134 20.367 757.321C45.8734 778.121 69.6114 803.027 92.5426 827.145C131.646 868.194 172.083 910.681 223.525 935.599C283.007 964.229 350.347 962.582 415.443 961.001C462.032 959.869 510.224 958.69 556.028 968.323C632.751 984.491 702.613 1026.97 770.182 1068.05C775.396 1071.22 780.612 1074.39 785.831 1077.55C841.773 1111.44 898.95 1144.64 954.259 1176.73C961.124 1180.71 967.999 1184.69 974.883 1188.68L973.87 1190.45Z" fill="#FF3131"/>
<path d="M974.953 1211.57L796.367 1095.45C737.827 1057.37 672.319 1014.78 600.196 995.459C591.024 993.002 581.779 990.938 572.394 989.282C525.761 981.081 476.623 983.534 429.096 985.91C394.438 987.63 358.617 989.42 324.439 986.974C305.983 985.687 289.476 983.3 273.907 979.669C256.415 975.618 240.549 970.127 225.428 962.926C201.478 951.514 178.109 934.85 153.927 911.956C132.408 891.588 112.324 868.361 92.8903 845.912C49.103 795.274 3.83133 742.934 -59.4765 722.408C-123.756 701.589 -194.499 718.549 -248.959 735.64C-261.217 739.481 -273.653 743.625 -285.668 747.627C-334.351 763.817 -384.683 780.583 -436.55 782.654C-469.994 784 -504.098 777.597 -532.577 764.686C-564.28 750.274 -588.291 728.285 -601.936 701.088C-615.616 673.787 -618.9 641.287 -611.423 607.089C-604.714 576.471 -589.392 545.17 -568.245 518.962C-536.699 479.825 -495.066 449.817 -454.806 420.777C-442.983 412.27 -430.79 403.449 -419.057 394.568C-377.089 362.836 -319.154 312.829 -300.656 245.574C-280.593 172.598 -310.046 86.8642 -375.743 27.1744C-427.565 -19.954 -497.314 -51.4631 -595.185 -71.9297L-594.747 -74.0391C-549.745 -64.6211 -511.308 -53.0178 -477.287 -38.5894C-457.809 -30.3163 -439.541 -20.9679 -423.016 -10.814C-405.229 0.0916294 -388.821 12.3455 -374.271 25.5966C-359.126 39.3572 -345.511 55.0299 -333.873 72.1452C-322.068 89.4645 -312.561 107.886 -305.613 126.83C-290.696 167.442 -288.267 208.716 -298.578 246.13C-306.574 275.258 -321.854 302.721 -345.256 330.106C-363.619 351.621 -387.327 373.263 -417.767 396.281C-429.507 405.192 -441.73 414.005 -453.523 422.52C-493.692 451.457 -535.183 481.408 -566.576 520.331C-601.738 563.939 -631.606 637.182 -600.018 700.107C-568.46 763.024 -492.274 782.738 -436.64 780.499C-385.065 778.444 -334.875 761.736 -286.356 745.565C-274.311 741.572 -261.876 737.428 -249.618 733.587C-212.519 721.928 -182.196 715.133 -154.248 712.219C-118.535 708.46 -87.3121 711.132 -58.809 720.391C-43.4416 725.368 -28.8205 732.181 -14.1626 741.23C-1.09095 749.313 11.7452 758.988 25.0519 770.824C49.7711 792.781 72.5314 819.079 94.5091 844.5C133.317 889.382 173.412 935.754 226.363 960.981C288.755 990.741 360.041 987.193 428.976 983.746C476.63 981.373 525.894 978.922 572.772 987.156C609.744 993.659 648.057 1007.27 689.845 1028.8C728.115 1048.5 764.987 1072.48 797.553 1093.64L976.101 1209.78L974.953 1211.57Z" fill="#FF3131"/>
</g>
<g opacity="0.1">
<path d="M-369.969 -71.8797C-375.727 -73.4226 -381.467 -75.1515 -387.167 -77.0288C-415.808 -86.4846 -442.216 -102.022 -461.474 -120.734C-472.13 -131.065 -480.551 -142.26 -486.502 -154.003C-492.951 -166.737 -496.528 -180.102 -497.103 -193.744C-497.871 -212.369 -492.78 -231.841 -482.338 -250.038C-472.815 -266.701 -459.066 -282.04 -442.593 -294.486C-410.555 -318.603 -372.109 -331.492 -334.914 -343.985L-78.3246 -430.057C-16.8736 -450.683 47.6039 -479.755 59.9606 -539.049C72.9402 -601.261 17.9042 -656.695 -38.7001 -681.819C-61.2721 -691.843 -85.3772 -699.352 -108.689 -706.616C-144.576 -717.759 -181.665 -729.288 -213.475 -750.186L-213.307 -750.459C-181.556 -729.577 -144.467 -718.048 -108.609 -706.913C-85.268 -699.641 -61.1629 -692.132 -38.5909 -682.108C-23.92 -675.6 -9.99342 -667.383 2.85655 -657.641C16.2959 -647.487 27.8376 -636.187 37.1516 -624.053C58.173 -596.725 66.1599 -567.291 60.2653 -538.999C57.2891 -524.686 50.9886 -511.264 41.5427 -499.162C33.1177 -488.377 21.9085 -478.242 8.21843 -469.059C-18.8983 -450.844 -52.237 -438.495 -78.2398 -429.78L-334.837 -343.678C-371.994 -331.207 -410.44 -318.318 -442.411 -294.215C-477.968 -267.414 -498.307 -229.855 -496.783 -193.754C-494.273 -133.785 -436.12 -93.5494 -387.088 -77.3256C-285.258 -43.6146 -175.637 -66.7622 -69.5922 -89.15C-61.461 -90.8841 -53.0686 -92.6435 -44.8484 -94.3537C3.53039 -104.422 67.1001 -115.86 129.561 -114.965C160.143 -114.533 188.744 -111.1 214.568 -104.785C243.177 -97.8191 269.604 -86.9843 293.117 -72.6358C328.493 -51.0366 358.014 -20.7632 386.598 8.49568C400.725 22.9696 415.358 37.929 430.533 51.6975C506.223 120.395 607.401 170.188 731.268 199.655C841.437 225.867 956.191 233.425 1067.19 240.741L1067.17 241.053C956.171 233.737 841.387 226.172 731.218 199.96C722.488 197.875 713.849 195.688 705.36 193.413C593.139 163.344 500.732 115.838 430.313 51.9248C415.138 38.1563 400.513 23.1672 386.386 8.69333C357.832 -20.5576 328.295 -50.7717 292.948 -72.3629C194.05 -132.805 66.7059 -117.238 -44.8012 -94.0548C-53.0214 -92.3445 -61.4139 -90.5851 -69.545 -88.8511C-169.659 -67.7051 -273.003 -45.8979 -369.969 -71.8797Z" fill="#FF3131"/>
<path d="M-363.403 -64.3306C-365.856 -64.988 -368.302 -65.6752 -370.74 -66.3919C-399.406 -74.8047 -426.094 -88.6998 -445.869 -105.482C-456.812 -114.745 -465.734 -124.898 -472.366 -135.645C-479.535 -147.237 -484.069 -159.522 -485.853 -172.216C-488.371 -190.005 -485.808 -208.119 -478.24 -226.036C-471.276 -242.525 -460.106 -258.333 -445.928 -271.712C-416.131 -299.929 -375.359 -317.698 -343.177 -330.007C-289.802 -350.411 -234.637 -369.54 -181.264 -388.037C-152.55 -397.966 -122.854 -408.237 -93.7593 -418.637C-33.1939 -440.232 30.4299 -470.392 43.1989 -530.275C56.7262 -593.581 2.36193 -651.284 -53.886 -678.094C-78.4868 -689.808 -105.055 -698.453 -130.748 -706.801C-165.108 -717.948 -200.609 -729.465 -231.675 -748.51L-231.445 -748.893C-200.438 -729.865 -164.937 -718.348 -130.615 -707.179C-104.914 -698.861 -78.3162 -690.207 -53.7153 -678.494C-39.0233 -671.471 -25.0756 -662.74 -12.3449 -652.553C1.01858 -641.878 12.4034 -630.111 21.5684 -617.54C42.1493 -589.28 49.8028 -559.076 43.6224 -530.193C40.563 -515.807 34.2387 -502.296 24.8717 -490.014C16.5256 -479.048 5.44682 -468.688 -8.06149 -459.233C-35.1237 -440.272 -67.9801 -427.349 -93.6173 -418.217C-122.704 -407.847 -152.408 -397.546 -181.122 -387.617C-234.487 -369.15 -289.652 -350.021 -343.035 -329.587C-375.18 -317.3 -415.876 -299.574 -445.635 -271.379C-475.795 -242.877 -490.311 -206.748 -485.449 -172.298C-477.649 -117.115 -421.026 -81.6157 -370.599 -66.7995C-276.301 -39.0514 -175.308 -58.021 -77.6714 -76.3316C-64.8029 -78.7686 -51.5088 -81.2506 -38.5454 -83.5667C26.6536 -95.2676 83.0452 -99.1489 133.808 -95.4402C163.444 -93.2572 191.604 -88.4157 217.477 -80.9742C245.576 -72.9362 271.956 -61.573 295.924 -47.2615C339.249 -21.3696 375.291 9.3788 413.457 41.9368C424.456 51.3419 435.846 61.0739 447.306 70.5389C526.875 136.395 629.121 186.6 742.938 215.698C849.673 242.739 960.835 252.42 1068.36 261.794L1068.31 262.225C960.784 252.851 849.591 243.162 742.857 216.121C739.562 215.281 736.291 214.426 733.046 213.556C681.432 199.727 632.216 181.577 586.554 159.544C535.036 134.669 488.089 104.848 447.025 70.8771C435.572 61.3824 424.175 51.68 413.175 42.2749C375.009 9.7169 338.997 -21.0235 295.724 -46.8698C269.675 -62.4387 241.551 -74.3008 210.921 -82.5081C142.182 -100.927 60.782 -100.947 -38.4627 -83.1629C-51.4341 -80.817 -64.7282 -78.335 -77.5888 -75.9278C-172.758 -58.0378 -271.127 -39.6053 -363.403 -64.3306Z" fill="#FF3131"/>
<path d="M-345.745 -53.3005C-348.614 -54.0693 -351.46 -54.885 -354.282 -55.7474C-384.65 -64.9341 -410.127 -76.8187 -430.056 -91.1293C-453.888 -108.204 -468.876 -128.252 -474.632 -150.695C-478.933 -167.53 -478.762 -184.79 -474.133 -202.064C-469.672 -218.714 -461.312 -234.48 -449.3 -248.916C-427.914 -274.711 -395.023 -297.263 -351.439 -316.029C-300.123 -338.13 -246.102 -357.502 -193.873 -376.241C-166.029 -386.245 -137.271 -396.576 -109.202 -407.187C-53.0169 -428.461 13.1904 -460.665 26.4079 -521.509C40.55 -585.923 -13.1722 -645.903 -69.0797 -674.34C-95.899 -687.984 -125.167 -697.83 -153.502 -707.363C-186.098 -718.324 -219.836 -729.654 -249.875 -746.833L-249.584 -747.328C-219.604 -730.165 -185.896 -718.842 -153.329 -707.889C-124.965 -698.349 -95.6669 -688.494 -68.8179 -674.842C-38.3034 -659.318 -11.7403 -636.644 5.95584 -611.034C26.1634 -581.857 33.4082 -550.84 26.9421 -521.366C23.8154 -506.966 17.5187 -493.32 8.23059 -480.858C-0.0661813 -469.72 -11.0146 -459.134 -24.3411 -449.408C-51.5905 -429.51 -85.6952 -415.49 -108.995 -406.655C-137.064 -396.043 -165.852 -385.72 -193.695 -375.716C-245.924 -356.977 -299.915 -337.597 -351.224 -315.526C-394.703 -296.796 -427.557 -274.265 -448.881 -248.581C-473.293 -219.208 -482.494 -183.563 -474.086 -150.835C-459.991 -95.874 -392.894 -68.002 -354.139 -56.2815C-271.194 -31.1616 -181.306 -47.0311 -94.3558 -62.3836C-73.9249 -65.9754 -52.7536 -69.7186 -32.2342 -72.8095C28.2846 -81.8835 85.605 -82.9392 138.086 -75.9071C166.681 -72.0944 194.384 -65.7848 220.423 -57.1851C247.864 -48.1147 274.228 -36.2151 298.762 -21.8792C354.34 10.6363 405.304 44.9376 464.081 89.3804C549.654 154.078 650.119 203.329 754.601 231.77C755.887 232.115 757.174 232.459 758.46 232.804C858.987 259.74 963.865 271.269 1065.32 282.389L1069.52 282.877L1069.44 283.398L1065.24 282.939C963.781 271.819 858.903 260.29 758.317 233.338C757.011 232.988 755.764 232.654 754.458 232.304C649.917 203.847 549.392 154.58 463.738 89.8293C404.991 45.3945 354.027 11.0931 298.479 -21.4144C207.753 -74.4818 96.5135 -91.5956 -32.1616 -72.2493C-52.681 -69.1584 -73.8147 -65.4368 -94.2832 -61.8233C-178.295 -46.988 -265.103 -31.6927 -345.745 -53.3005Z" fill="#FF3131"/>
<path d="M-351.091 -48.3071C-375.132 -54.7489 -396.951 -63.9037 -414.823 -75.0864C-438.905 -90.1601 -455.242 -108.376 -463.382 -129.166C-469.635 -145.125 -471.9 -161.606 -470.079 -178.137C-468.271 -194.735 -462.417 -210.885 -452.665 -226.15C-434.153 -255.228 -401.157 -282.206 -359.732 -302.059C-310.402 -325.647 -257.523 -345.388 -206.406 -364.489C-179.479 -374.516 -151.659 -384.907 -124.636 -395.767C-69.2857 -417.964 -3.97565 -451.331 9.63834 -512.705C24.3599 -578.332 -28.7282 -640.56 -84.2657 -670.615C-113.471 -686.394 -145.788 -697.566 -177.039 -708.325C-207.696 -718.926 -239.383 -729.834 -268.075 -745.157L-267.752 -745.77C-239.119 -730.463 -207.432 -719.555 -176.804 -708.962C-145.524 -698.195 -113.207 -687.023 -83.9502 -671.199C-53.4152 -654.682 -27.0255 -631.006 -9.62732 -604.521C10.1774 -574.434 17.0511 -542.626 10.2993 -512.56C-3.40222 -450.859 -68.8628 -417.406 -124.364 -395.122C-151.416 -384.27 -179.266 -373.886 -206.163 -363.851C-257.272 -344.78 -310.152 -325.039 -359.422 -301.435C-400.734 -281.647 -433.668 -254.78 -452.097 -225.775C-471.449 -195.459 -475.215 -161.222 -462.744 -129.409C-447.451 -90.3188 -401.856 -59.8421 -337.688 -45.7338C-258.488 -28.3615 -174.271 -40.7562 -92.8631 -52.7584C-70.8433 -55.988 -48.0533 -59.3612 -25.9312 -62.0226C31.5328 -68.9567 88.1847 -67.0421 142.431 -56.3878C197.703 -45.5225 251.245 -25.3544 301.57 3.495C320.564 14.406 339.257 24.6634 357.366 34.6055C400.045 58.0344 440.361 80.1937 480.854 108.222C574.454 173.002 670.47 219.98 766.272 247.813C863.86 276.22 965.691 289.859 1064.18 303.046L1070.68 303.931L1070.6 304.607L1064.09 303.723C965.576 290.527 863.714 276.881 766.097 248.466C716.957 234.185 666.918 214.479 617.364 189.876C571.142 166.961 525.106 139.675 480.45 108.781C439.987 80.7613 399.692 58.6396 357.02 35.181C338.941 25.247 320.249 14.9896 301.225 4.07061C260.91 -19.0427 218.971 -36.4515 175.668 -48.0547C111.321 -65.2964 43.964 -69.7612 -25.8528 -61.3654C-47.9828 -58.6743 -70.7352 -55.3228 -92.755 -52.0932C-174.26 -40.0852 -258.515 -27.6687 -337.833 -45.0729C-342.303 -46.0797 -346.728 -47.138 -351.091 -48.3071Z" fill="#FF3131"/>
<path d="M819.659 276.751C805.62 272.989 791.615 268.982 777.728 264.656C730.889 250.102 683.394 230.632 632.58 205.151C589.896 183.756 545.601 158.4 497.162 127.734C462.493 105.751 427.85 89.7248 391.129 72.7913C362.795 59.6958 333.491 46.1816 304.001 29.5635C251.26 -0.124089 199.984 -21.6255 149.557 -35.1373C92.3927 -50.4544 36.3522 -55.4817 -19.5221 -50.4439C-46.1568 -48.0372 -73.6162 -44.4519 -100.157 -40.9704C-173.669 -31.3696 -249.653 -21.4452 -321.376 -34.4284C-350.832 -39.7761 -377.829 -48.6005 -399.418 -59.9204C-424.065 -72.8868 -441.818 -88.9049 -452.139 -107.608C-460.537 -122.805 -465.237 -138.507 -466.083 -154.226C-466.99 -170.788 -463.619 -187.285 -456.045 -203.325C-448.415 -219.572 -436.641 -235.376 -421.044 -250.252C-405.999 -264.608 -387.675 -277.671 -368.002 -288.051C-320.639 -313.088 -268.893 -333.229 -218.842 -352.743C-192.883 -362.838 -166.031 -373.298 -140.079 -384.318C-85.5545 -407.468 -21.1793 -441.976 -7.12318 -503.931C8.27326 -571.127 -42.4011 -634.171 -99.4594 -666.861C-131.285 -685.091 -166.963 -697.609 -201.47 -709.75C-229.879 -719.716 -259.273 -730.042 -286.245 -743.472L-285.89 -744.204C-258.948 -730.782 -229.613 -720.472 -201.204 -710.506C-166.667 -698.357 -130.959 -685.831 -99.0825 -667.555C-68.519 -650.077 -42.3107 -625.367 -25.2104 -598.008C-5.84624 -566.989 0.694034 -534.411 -6.34353 -503.754C-9.65844 -489.246 -15.9218 -475.368 -25.044 -462.575C-33.2125 -451.085 -43.9299 -440.055 -56.9226 -429.794C-83.9283 -408.432 -117.122 -393.181 -139.763 -383.597C-165.753 -372.556 -192.605 -362.095 -218.534 -351.992C-268.577 -332.508 -320.293 -312.359 -367.619 -287.344C-408.274 -265.854 -440.237 -235.131 -455.335 -203.007C-469.959 -171.933 -468.611 -139.093 -451.432 -107.991C-425.168 -60.4579 -358.598 -42.016 -321.229 -35.2159C-249.632 -22.235 -173.707 -32.1753 -100.263 -41.7622C-73.7222 -45.2438 -46.2627 -48.8291 -19.5984 -51.2278C8.43976 -53.7674 36.8826 -53.7808 64.9622 -51.2513C91.9552 -48.822 119.504 -43.9536 146.798 -36.8309C198.195 -23.3773 249.762 -1.89343 304.378 28.8692C333.846 45.4497 363.142 58.9937 391.454 72.0515C428.198 89.0226 462.908 105.035 497.599 127.055C602.647 193.631 691.745 237.1 777.964 263.893C871.443 292.917 968.963 308.517 1063.25 323.602L1071.85 324.984L1071.73 325.779L1063.13 324.398C982.812 311.561 900.182 298.327 819.659 276.751Z" fill="#FF3131"/>
<path d="M856.38 300.81C833.883 294.782 811.506 288.182 789.337 280.81C745.538 266.306 699.226 246.58 647.735 220.536C600.258 196.49 553.772 169.815 513.913 146.664C479.803 126.868 445.483 113.791 409.142 99.9494C375.629 87.1843 340.991 73.9902 306.748 55.0487C195.421 -6.497 98.3651 -46.1501 -13.2508 -39.5382C-44.3105 -37.7128 -76.4612 -33.953 -107.537 -30.2869C-173.093 -22.5945 -240.883 -14.6416 -304.919 -23.7836C-335.13 -28.0931 -361.799 -35.1753 -384.14 -44.7563C-409.448 -55.6095 -428.534 -69.5034 -440.867 -86.0416C-463.668 -116.582 -469.916 -148.35 -459.425 -180.499C-453.85 -197.742 -443.169 -215.526 -428.546 -231.871C-414.127 -248.049 -396.03 -262.636 -376.265 -274.073C-330.818 -300.387 -280.174 -321.046 -231.181 -341.002C-206.22 -351.174 -180.395 -361.719 -155.521 -372.868C-101.823 -396.971 -38.3452 -432.642 -23.9144 -495.165C-7.86323 -563.617 -57.9194 -628.85 -114.675 -663.144C-149.34 -684.075 -188.786 -698.081 -226.93 -711.609C-252.818 -720.773 -279.543 -730.256 -304.445 -741.796L-304.058 -742.646C-279.186 -731.115 -252.49 -721.64 -226.632 -712.484C-188.429 -698.939 -148.953 -684.926 -114.185 -663.903C-83.6307 -645.441 -57.5661 -619.721 -40.7935 -591.495C-21.8322 -559.566 -15.6927 -526.205 -23.016 -494.956C-26.3765 -480.396 -32.6637 -466.43 -41.6772 -453.448C-49.7965 -441.786 -60.3835 -430.53 -73.1865 -420.028C-93.6312 -403.206 -119.67 -387.947 -155.14 -372.034C-180.052 -360.863 -205.869 -350.348 -230.838 -340.147C-279.793 -320.212 -330.399 -299.575 -375.808 -273.283C-416.325 -249.815 -447.276 -215.036 -458.543 -180.231C-468.925 -148.37 -462.731 -116.872 -440.12 -86.5731C-417.173 -55.8661 -369.11 -33.8896 -304.769 -24.6978C-240.882 -15.5957 -173.16 -23.5348 -107.641 -31.2054C-76.5354 -34.8636 -44.3847 -38.6234 -13.2873 -40.4705C40.2749 -43.6465 94.0658 -36.041 151.186 -17.2363C196.825 -2.23979 244.932 19.812 307.216 54.2516C341.378 73.1396 375.987 86.3257 409.469 99.0829C445.833 112.962 480.182 126.047 514.373 145.897C605.032 198.501 694.269 248.338 789.627 279.965C879.084 309.629 972.309 327.133 1062.48 344.042L1073.05 346.045L1072.87 346.952L1062.33 344.956C994.458 332.209 924.823 319.149 856.38 300.81Z" fill="#FF3131"/>
<path d="M901.526 327.858C867.72 318.8 834.088 308.738 800.938 296.993C723.273 269.502 648.515 229.143 576.201 190.108C561.2 181.984 545.718 173.637 530.625 165.616C495.866 147.173 459.096 135.762 423.565 124.714C386.001 113.058 347.207 101.009 309.524 80.5416C304.881 78.0038 300.245 75.4786 295.616 72.966C229.742 37.0871 166.312 2.5314 98.6115 -15.609C64.7759 -24.6752 29.8726 -29.6376 -6.94198 -28.6543C-42.4225 -27.6636 -79.302 -23.7076 -114.964 -19.9025C-172.58 -13.7089 -232.159 -7.30983 -288.432 -13.1311C-319.199 -16.317 -346.319 -21.8341 -368.975 -29.5271C-395.026 -38.3208 -415.415 -50.0826 -429.573 -64.4377C-443.153 -78.2242 -452.522 -91.9323 -458.265 -106.355C-464.787 -122.735 -466.3 -140.001 -462.805 -157.674C-455.469 -195.027 -425.487 -234.265 -384.565 -260.073C-340.916 -287.633 -291.336 -308.831 -243.4 -329.357C-219.474 -339.583 -194.721 -350.161 -170.956 -361.448C-118.122 -386.483 -55.5409 -423.316 -40.6759 -486.391C-24.0215 -556.144 -73.4674 -623.536 -129.869 -659.39C-167.679 -683.422 -211.372 -698.915 -253.634 -713.93C-276.559 -722.044 -300.29 -730.471 -322.616 -740.111L-322.234 -741.059C-299.901 -731.448 -276.199 -723.03 -253.274 -714.915C-210.982 -699.893 -167.23 -684.384 -129.31 -660.29C-98.7642 -640.844 -72.8434 -614.112 -56.3846 -584.952C-37.8479 -552.151 -32.0498 -517.991 -39.6589 -486.15C-43.1026 -471.517 -49.3839 -457.454 -58.3185 -444.292C-66.3885 -432.458 -76.8669 -421.014 -89.4584 -410.232C-109.793 -392.872 -135.535 -377.056 -170.51 -360.501C-194.305 -349.222 -219.057 -338.644 -242.991 -328.388C-290.89 -307.885 -340.432 -286.708 -384.006 -259.192C-424.702 -233.513 -454.486 -194.541 -461.78 -157.463C-468.328 -124.479 -457.551 -94.2976 -428.83 -65.1929C-402.264 -38.2563 -354.985 -21.0706 -288.34 -14.1879C-232.164 -8.36083 -172.652 -14.7461 -115.074 -20.918C-79.4037 -24.7527 -42.4945 -28.7009 -6.95462 -29.6757C19.7414 -30.4117 45.9171 -28.1378 73.1203 -22.6938C97.4939 -17.8489 122.25 -10.5156 148.755 -0.32798C198.209 18.7129 245.759 44.6237 296.116 72.0502C300.745 74.5628 305.381 77.088 310.024 79.6258C347.596 100.032 386.361 112.073 423.865 123.713C459.456 134.776 496.256 146.196 531.125 164.7C546.188 172.713 561.7 181.068 576.701 189.192C648.963 228.182 723.692 268.533 801.298 296.007C886.81 326.269 975.836 345.67 1061.92 364.41C1066.03 365.319 1070.12 366.215 1074.21 367.099L1074 368.124C1069.89 367.235 1065.79 366.336 1061.68 365.427C1008.89 353.955 955.01 342.189 901.526 327.858Z" fill="#FF3131"/>
<path d="M967.656 361.833C915.686 347.908 863.496 332.428 812.577 313.154C751.422 290.055 691.478 258.756 633.514 228.496C605.164 213.678 575.861 198.383 547.367 184.577C511.465 167.195 473.41 157.73 436.64 148.577C395.482 138.344 352.929 127.737 312.3 106.035C292.458 95.4375 272.989 84.3993 254.155 73.7221C171.701 26.943 93.7939 -17.2179 -0.640853 -17.7406C-40.5358 -17.9646 -82.168 -13.7232 -122.448 -9.66039C-172.121 -4.61516 -223.459 0.588368 -271.975 -2.4862C-341.01 -6.85999 -388.848 -20.0599 -418.271 -42.8633C-453.433 -70.1309 -469.109 -100.194 -466.164 -134.811C-464.531 -154.319 -456.728 -175.132 -443.589 -194.961C-430.573 -214.568 -413.043 -232.266 -392.857 -246.103C-350.94 -274.795 -302.431 -296.63 -255.505 -317.776C-232.652 -328.036 -209.024 -338.692 -186.398 -349.998C-138.427 -373.982 -72.8897 -413.3 -57.467 -477.625C-40.142 -548.693 -88.9777 -618.244 -145.055 -655.665C-186.354 -683.177 -234.851 -700.212 -281.717 -716.683C-301.308 -723.586 -321.544 -730.694 -340.815 -738.435L-340.373 -739.493C-321.123 -731.79 -300.887 -724.682 -281.356 -717.795C-234.37 -701.292 -185.814 -684.242 -144.412 -656.638C-113.86 -636.268 -88.1284 -608.473 -71.9676 -578.439C-53.8258 -544.757 -48.4365 -509.784 -56.3312 -477.352C-59.8502 -462.676 -66.1337 -448.486 -74.9814 -435.174C-82.9645 -423.188 -93.3204 -411.489 -105.752 -400.473C-125.947 -382.567 -151.393 -366.195 -185.879 -348.968C-208.542 -337.64 -232.17 -326.984 -255.032 -316.695C-301.911 -295.6 -350.354 -273.779 -392.195 -245.131C-433.185 -217.05 -461.753 -173.711 -465.01 -134.724C-467.903 -100.539 -452.393 -70.8066 -417.548 -43.7828C-388.331 -21.1618 -340.7 -8.01752 -271.88 -3.66975C-223.491 -0.597271 -172.191 -5.7791 -122.585 -10.8105C-82.2675 -14.8951 -40.6057 -19.1284 -0.643442 -18.9183C94.112 -18.405 172.151 25.8549 254.746 72.7034C273.58 83.3806 293.02 94.4109 312.832 105C353.35 126.641 395.844 137.232 436.912 147.441C473.772 156.618 511.857 166.091 547.869 183.534C576.363 197.34 605.696 212.644 634.046 227.461C691.98 257.713 751.902 288.975 812.99 312.088C894.565 342.916 979.446 364.133 1061.51 384.692C1066.15 385.848 1070.78 387.004 1075.41 388.16L1075.14 389.296C1070.48 388.135 1065.84 386.976 1061.21 385.82C1030.33 378.085 999.028 370.239 967.656 361.833Z" fill="#FF3131"/>
<path d="M1076.24 410.46C1071.14 409.008 1066.02 407.553 1060.9 406.095C982.768 383.792 902.001 360.751 824.178 329.337C774.917 309.457 726.036 284.239 678.781 259.839C641.102 240.423 602.175 220.321 564.109 203.537C526.856 187.161 487.348 179.438 449.162 172.005C404.565 163.332 358.459 154.35 315.046 131.52C286.026 116.236 258.346 99.2761 231.595 82.883C159.134 38.4634 90.6936 -3.51082 5.65997 -6.82703C-38.6292 -8.57829 -85.0835 -3.91122 -130.029 0.587422C-171.705 4.75353 -214.784 9.0525 -255.488 8.1665C-304.685 7.04079 -366.357 2.73119 -406.94 -21.281C-425.693 -32.3817 -440.398 -44.8156 -450.637 -58.2477C-462.874 -74.3146 -469.204 -92.3617 -469.523 -111.948C-469.892 -132.533 -463.502 -154.838 -451.063 -176.445C-438.847 -197.699 -421.567 -216.958 -401.128 -232.096C-360.884 -261.904 -313.383 -284.486 -267.46 -306.283C-245.739 -316.591 -223.318 -327.252 -201.841 -338.548C-154.644 -363.439 -90.0775 -404.003 -74.2286 -468.851C-56.2765 -541.31 -104.502 -613.019 -160.278 -651.918C-205.379 -683.408 -259.351 -701.973 -311.506 -719.956C-327.209 -725.341 -343.402 -730.92 -358.986 -736.75L-358.541 -737.935C-342.978 -732.143 -326.757 -726.556 -311.083 -721.179C-258.839 -703.172 -204.786 -684.553 -159.545 -652.994C-128.994 -631.67 -103.406 -602.864 -87.529 -571.888C-69.8119 -537.334 -64.7856 -501.599 -72.982 -468.517C-76.5763 -453.797 -82.854 -439.51 -91.6147 -426.047C-99.5485 -413.89 -109.796 -402.002 -122.038 -390.745C-142.092 -372.292 -167.25 -355.333 -201.249 -337.435C-222.734 -326.11 -245.192 -315.426 -266.914 -305.118C-312.769 -283.335 -360.224 -260.804 -400.385 -231.069C-442.312 -199.963 -468.955 -153.245 -468.24 -111.986C-467.667 -76.0127 -447.395 -46.7222 -406.287 -22.4104C-365.956 1.47083 -304.499 5.75442 -255.459 6.87007C-214.822 7.76982 -171.803 3.45495 -130.157 -0.719055C-85.181 -5.20975 -38.6673 -9.86091 5.68924 -8.1234C91.0949 -4.77114 159.676 37.2726 232.277 81.7616C258.998 98.1468 286.649 115.099 315.64 130.375C358.882 153.127 404.899 162.085 449.407 170.735C487.682 178.191 527.258 185.9 564.613 202.368C602.739 219.168 641.704 239.248 679.374 258.694C726.6 283.086 775.451 308.296 824.661 328.13C902.424 359.528 983.161 382.561 1061.26 404.857C1066.39 406.314 1071.5 407.769 1076.6 409.222L1076.24 410.46Z" fill="#FF3131"/>
<path d="M1077.38 431.633C1071.83 429.85 1066.29 428.057 1060.75 426.255C986.542 402.236 909.815 377.414 835.788 345.49C795.976 328.333 756.074 307.717 717.487 287.77C672.76 264.62 626.518 240.714 580.852 222.497C542.166 207.073 501.124 201.039 461.458 195.213C413.493 188.183 363.916 180.879 317.823 157.013C282.488 138.701 249.867 116.791 218.36 95.5923C152.765 51.549 90.8479 9.92301 11.9394 4.04896C-36.7239 0.457584 -88.0719 5.81752 -137.747 10.9894C-171.362 14.5159 -206.12 18.1499 -238.993 18.7895C-292.282 19.8756 -352.721 19.3955 -395.608 0.301148C-416.952 -9.20338 -434.176 -20.7852 -446.861 -34.1094C-461.927 -49.9481 -470.679 -68.4534 -472.873 -89.1142C-475.201 -110.701 -470.261 -134.477 -458.516 -157.892C-447.078 -180.754 -430.114 -201.562 -409.428 -218.096C-370.76 -249.026 -324.23 -272.378 -279.249 -294.936C-258.743 -305.219 -237.529 -315.886 -217.305 -327.136C-170.861 -352.897 -107.249 -394.767 -90.9979 -460.047C-72.3731 -533.948 -119.996 -607.787 -175.464 -648.194C-224.894 -684.183 -285.109 -704.262 -343.374 -723.66C-354.5 -727.373 -366.011 -731.189 -377.156 -735.066L-376.709 -736.378C-365.556 -732.53 -354.045 -728.714 -342.92 -725.002C-284.573 -705.55 -224.231 -685.469 -174.647 -649.343C-144.089 -627.094 -118.712 -597.263 -103.112 -565.375C-85.7977 -529.911 -81.1425 -493.385 -89.6246 -459.711C-93.3238 -444.956 -99.566 -430.563 -108.277 -416.928C-116.132 -404.591 -126.241 -392.507 -138.331 -380.986C-158.208 -362.009 -183.099 -344.502 -216.626 -325.873C-236.88 -314.631 -258.093 -303.964 -278.629 -293.688C-323.543 -271.144 -369.968 -247.828 -408.544 -217C-450.778 -183.208 -476.082 -131.869 -471.47 -89.2471C-467.461 -51.4946 -441.732 -21.7918 -395.035 -1.00847C-352.407 17.9847 -292.153 18.4467 -239.029 17.3801C-206.215 16.7246 -171.495 13.1124 -137.88 9.58587C-88.1672 4.39225 -36.7221 -0.973422 12.0302 2.64175C91.3107 8.55192 153.398 50.2553 219.118 94.4273C250.633 115.596 283.202 137.461 318.477 155.757C364.341 179.53 413.838 186.78 461.667 193.838C501.431 199.657 542.532 205.708 581.358 221.201C627.114 239.442 673.386 263.356 718.142 286.514C756.699 306.452 796.571 327.061 836.353 344.21C910.3 376.081 987.026 400.902 1061.2 424.913C1066.74 426.716 1072.28 428.506 1077.8 430.283L1077.38 431.633Z" fill="#FF3131"/>
<path d="M1078.48 452.797C1072.57 450.64 1066.67 448.486 1060.77 446.335C990.429 420.615 917.675 394.026 847.388 361.673C815.592 347.014 783.482 330.203 752.436 313.931C701.995 287.532 649.833 260.195 597.594 241.457C557.423 227.067 514.878 222.602 473.718 218.317C448.071 215.612 421.553 212.833 395.896 207.676C367.096 201.9 342.459 193.644 320.577 182.468C280.582 162.081 244.876 135.654 210.356 110.149C149.9 65.4464 92.7853 23.2303 18.2105 14.9546C-34.8342 9.07586 -91.1656 15.5818 -145.66 21.8801C-171.163 24.8126 -197.488 27.8431 -222.506 29.4421C-231.214 30.0037 -240.043 30.6602 -248.61 31.2912C-299.582 35.1295 -347.725 38.7396 -384.358 21.83C-403.329 13.0883 -425.028 2.5343 -442.304 -11.7019C-461.147 -27.2166 -472.243 -45.0457 -476.232 -66.251C-480.518 -88.8402 -476.962 -114.1 -465.947 -139.301C-460.691 -151.318 -453.906 -162.987 -445.708 -173.993C-437.495 -185.057 -428.075 -195.162 -417.728 -204.096C-380.51 -236.146 -334.957 -260.364 -290.893 -283.772C-271.648 -293.98 -251.725 -304.58 -232.748 -315.687C-187.071 -342.384 -124.451 -385.538 -107.789 -451.281C-88.462 -526.617 -135.513 -602.592 -190.68 -644.477C-244.949 -685.676 -312.475 -707.078 -377.741 -727.779C-383.516 -729.613 -389.499 -731.502 -395.334 -733.352L-394.877 -734.82C-389.042 -732.97 -383.059 -731.081 -377.284 -729.247C-311.87 -708.506 -244.233 -687.043 -189.75 -645.691C-159.223 -622.496 -133.99 -591.654 -118.703 -558.833C-101.806 -522.525 -97.4918 -485.2 -106.297 -450.913C-110.042 -436.106 -116.316 -421.595 -124.903 -407.832C-132.738 -395.33 -142.717 -383.02 -154.617 -371.258C-174.081 -352.042 -199.363 -333.431 -231.995 -314.34C-250.972 -303.233 -270.895 -292.634 -290.178 -282.404C-334.167 -259.039 -379.637 -234.894 -416.734 -202.939C-459.837 -165.785 -483.149 -110.954 -474.729 -66.5164C-466.162 -21.0847 -425.06 1.34865 -383.731 20.4392C-347.438 37.194 -299.489 33.5957 -248.711 29.7691C-240.173 29.1301 -231.345 28.4736 -222.607 27.9199C-197.648 26.305 -171.294 23.2824 -145.85 20.334C-91.2667 14.0596 -34.8384 7.54781 18.3924 13.4446C36.4335 15.4475 53.8825 19.4231 71.7483 25.6418C87.7029 31.1574 103.644 38.3872 120.496 47.6745C151.816 64.942 180.705 86.2979 211.264 108.897C245.755 134.394 281.408 160.776 321.285 181.131C369.787 205.865 422.695 211.421 473.878 216.769C515.12 221.108 557.761 225.567 598.102 240.035C650.431 258.796 702.652 286.149 753.145 312.594C784.169 328.828 816.249 345.631 848.053 360.261C918.273 392.628 990.967 419.2 1061.29 444.883C1067.2 447.039 1073.1 449.203 1078.99 451.374L1078.48 452.797Z" fill="#FF3131"/>
<path d="M1079.59 473.961C1073.36 471.401 1067.13 468.842 1060.9 466.283C994.4 438.92 925.602 410.624 858.998 377.826C834.352 365.687 809.34 352.305 785.14 339.331C729.804 309.712 672.577 279.077 614.336 260.417C572.731 247.106 528.663 244.173 486.069 241.318C458.693 239.486 430.417 237.571 403.147 232.968C372.541 227.758 346.45 219.59 323.353 207.961C279.732 186.03 242.04 155.38 205.607 125.736C149.158 79.8489 95.8495 36.4894 24.4819 25.8602C-33.0862 17.2743 -94.5303 25.5277 -153.898 33.5105C-171.946 35.9274 -188.979 38.2347 -206.019 40.0946C-216.832 41.2693 -227.797 42.6576 -238.366 43.9928C-287.589 50.2083 -334.049 56.0827 -372.997 43.4199C-401.551 34.1146 -422.459 24.4088 -438.759 12.8201C-448.886 5.62105 -457.382 -2.445 -463.98 -11.1797C-471.257 -20.8277 -476.493 -31.6787 -479.59 -43.3881C-485.783 -66.9336 -483.641 -93.6855 -473.348 -120.703C-463.633 -146.157 -446.82 -170.791 -426.028 -190.097C-390.177 -223.34 -345.525 -248.467 -302.354 -272.815C-284.416 -282.896 -265.867 -293.354 -248.22 -304.245C-203.302 -331.91 -141.614 -376.331 -124.551 -442.507C-104.572 -519.322 -150.999 -597.389 -205.903 -640.73C-265.743 -687.971 -344.233 -711.198 -413.534 -731.675L-413.045 -733.262C-378.936 -723.2 -340.265 -711.757 -304.158 -697.279C-264.06 -681.19 -231.584 -663.135 -204.852 -642.04C-174.319 -617.921 -149.259 -586.075 -134.286 -552.319C-117.783 -515.132 -113.87 -477.023 -122.94 -442.107C-126.768 -427.227 -133.028 -412.649 -141.566 -398.713C-149.314 -386.061 -159.214 -373.571 -170.924 -361.567C-190.173 -341.848 -215.175 -322.621 -247.335 -302.799C-265.041 -291.924 -283.59 -281.466 -301.537 -271.355C-344.624 -247.081 -389.2 -221.997 -424.894 -188.87C-468.786 -148.174 -490.13 -89.8891 -477.988 -43.786C-464.909 5.94032 -414.732 28.1015 -372.478 41.8411C-333.908 54.3708 -287.591 48.5536 -238.592 42.3418C-227.993 41.0145 -217.028 39.6262 -206.207 38.4219C-189.175 36.5916 -172.142 34.2843 -154.123 31.8594C-94.6293 23.8788 -33.0803 15.5899 24.7333 24.2098C42.0117 26.8036 58.684 31.3027 75.6249 38.0052C90.7813 44.0068 105.851 51.6393 121.735 61.3352C151.223 79.3843 178.157 101.266 206.65 124.456C243.01 154.018 280.62 184.613 324.101 206.476C375.254 232.238 431.636 235.989 486.164 239.657C528.884 242.515 573.041 245.471 614.854 258.838C673.244 277.537 730.522 308.218 785.94 337.891C810.117 350.827 835.1 364.202 859.716 376.333C926.291 409.123 995.058 437.411 1061.54 464.735C1067.76 467.315 1073.99 469.884 1080.21 472.444L1079.59 473.961Z" fill="#FF3131"/>
<path d="M1080.69 495.125C1074.2 492.134 1067.7 489.133 1061.22 486.122C998.483 457.16 933.605 427.179 870.607 393.98C863.766 390.386 856.919 386.771 850.069 383.132C778.842 345.501 705.193 306.585 631.048 279.369C585.75 262.746 536.535 261.807 488.908 260.879C461.435 260.357 433.017 259.804 405.685 256.266C375.006 252.277 348.985 244.795 326.129 233.454C279.516 210.339 240.597 175.607 202.963 142.015C149.798 94.5581 99.6062 49.7752 30.7532 36.7659C-31.6129 24.9538 -98.252 35.8554 -162.701 46.4211C-171.551 47.8672 -180.691 49.3309 -189.524 50.7178C-198.261 52.0988 -207.11 53.5449 -215.698 54.9657C-267.606 63.4839 -316.652 71.5286 -361.598 64.9885C-389.428 60.9352 -414.953 51.8374 -435.356 38.7039C-458.98 23.4666 -474.991 3.55714 -482.919 -20.5169C-491.049 -45.0268 -490.269 -73.2252 -480.676 -102.021C-471.757 -128.897 -455.297 -155.185 -434.337 -176.067C-399.738 -210.569 -355.948 -236.754 -313.596 -262.084C-297.077 -271.973 -279.985 -282.217 -263.67 -292.766C-219.503 -321.427 -158.762 -367.183 -141.342 -433.741C-120.645 -512.05 -166.499 -592.253 -221.089 -637.006C-281.134 -686.21 -358.058 -709.939 -431.704 -729.991L-431.213 -731.705C-395.191 -721.893 -356.822 -710.753 -320.192 -695.849C-279.951 -679.467 -247.166 -660.662 -219.955 -638.388C-204.883 -626.015 -191.213 -611.854 -179.356 -596.271C-167.214 -580.325 -157.296 -563.32 -149.877 -545.777C-133.77 -507.709 -130.228 -468.809 -139.62 -433.28C-143.516 -418.386 -149.778 -403.681 -158.221 -389.624C-165.912 -376.829 -175.681 -364.114 -187.231 -351.876C-206.295 -331.662 -230.979 -311.841 -262.696 -291.296C-279.027 -280.688 -296.148 -270.452 -312.697 -260.571C-354.944 -235.277 -398.622 -209.156 -433.083 -174.809C-477.62 -130.405 -496.972 -68.6274 -481.248 -21.0553C-466.693 22.9268 -421.883 54.4339 -361.315 63.2194C-316.673 69.7096 -267.762 61.6924 -215.989 53.2017C-207.401 51.7809 -198.552 50.3348 -189.786 48.9617C-180.96 47.6046 -171.842 46.1033 -162.992 44.6571C-131.25 39.4519 -98.4162 34.0935 -65.681 31.4765C-28.6028 28.5598 3.03331 29.6884 31.0957 35.0127C47.7836 38.1481 63.7902 43.2323 80.0437 50.4822C94.5364 56.9423 108.905 65.0549 123.991 75.2368C152.003 94.1629 178.527 117.812 204.148 140.678C241.709 174.187 280.518 208.858 326.909 231.85C377.506 256.955 434.157 258.042 488.938 259.105C536.692 260.035 586.092 260.993 631.658 277.688C705.921 304.935 779.622 343.897 850.87 381.566C857.746 385.189 864.602 388.808 871.438 392.421C934.377 425.605 999.233 455.548 1061.97 484.51C1068.45 487.521 1074.95 490.522 1081.44 493.513L1080.69 495.125Z" fill="#FF3131"/>
<path d="M1081.77 516.281C1075.06 512.81 1068.36 509.338 1061.65 505.866C1002.66 475.298 941.645 443.712 882.179 410.155L874.722 405.93C801.944 364.829 726.685 322.3 647.82 298.337C601.487 284.268 551.753 284.557 503.665 284.874C474.064 285.054 443.479 285.225 414.173 282.049C381.222 278.469 353.346 270.904 328.876 258.939C279.774 234.903 240.08 196.178 201.736 158.705C151.349 109.543 103.802 63.0833 37.0325 47.6418C-30.5466 32.0153 -105.902 47.5478 -172.364 61.2325L-173.008 61.3782C-184.114 63.651 -195.336 66.1157 -206.221 68.5115C-256.517 79.5613 -304.038 89.9868 -350.229 86.5489C-380.169 84.316 -408.244 76.189 -431.442 63.0383C-444.059 55.8719 -454.999 47.3101 -464.033 37.5729C-473.703 27.1244 -481.188 15.2889 -486.248 2.35394C-496.255 -23.1042 -496.874 -52.7274 -487.966 -83.3606C-479.815 -111.525 -463.7 -139.495 -442.637 -162.068C-409.171 -197.922 -366.181 -225.277 -324.615 -251.708C-309.577 -261.294 -294.011 -271.184 -279.142 -281.324C-235.696 -310.974 -175.924 -358.103 -158.103 -424.967C-136.71 -504.807 -181.97 -587.11 -236.304 -633.289C-297.407 -685.195 -378.539 -710.433 -449.844 -728.299L-449.381 -730.147C-402.547 -718.425 -367.641 -707.417 -336.226 -694.419C-295.781 -677.729 -262.71 -658.211 -235.058 -634.736C-219.957 -621.878 -206.325 -607.219 -194.536 -591.145C-182.491 -574.716 -172.722 -557.274 -165.438 -539.226C-149.747 -500.316 -146.569 -460.654 -156.263 -424.474C-160.242 -409.507 -166.52 -394.743 -174.876 -380.535C-182.518 -367.568 -192.178 -354.664 -203.568 -342.193C-222.401 -321.535 -246.775 -301.09 -278.066 -279.763C-292.943 -269.593 -308.545 -259.682 -323.584 -250.096C-365.074 -223.708 -407.944 -196.448 -441.235 -160.769C-478.724 -120.585 -506.664 -54.7778 -484.499 1.64547C-462.744 57.1004 -400.817 80.8829 -350.1 84.643C-304.162 88.0766 -256.776 77.6786 -206.615 66.6564C-195.76 64.2527 -184.508 61.7959 -173.393 59.4935L-172.758 59.3774C-138.681 52.348 -103.461 45.0846 -67.8463 41.4575C-27.394 37.3454 7.06236 38.7525 37.4662 45.7858C53.6367 49.546 69.1202 55.1581 84.7969 63.0169C98.7368 69.9968 112.53 78.5918 126.967 89.2993C153.733 109.196 178.797 133.663 203.055 157.341C241.334 194.701 280.896 233.327 329.717 257.224C383.794 283.707 444.718 283.331 503.637 282.958C549.168 282.688 596.167 282.398 640.48 294.271C643.111 294.976 645.743 295.724 648.373 296.513C727.438 320.562 802.785 363.114 875.674 404.276L883.131 408.501C942.537 442.043 1003.55 473.628 1062.52 504.159C1069.23 507.631 1075.94 511.105 1082.67 514.582L1081.77 516.281Z" fill="#FF3131"/>
<path d="M1082.87 537.446C1075.99 533.439 1069.12 529.445 1062.25 525.464C1006.94 493.37 949.73 460.194 893.788 426.308C888.569 423.149 883.342 419.978 878.109 416.794C810.711 375.799 740.988 333.386 664.622 317.313C619.033 307.707 570.968 308.888 524.506 310.022C491.779 310.828 457.963 311.661 425.583 308.679C389.296 305.318 358.557 297.399 331.652 284.432C279.877 259.33 239.309 216.744 200.088 175.537C152.32 125.391 107.24 78.0332 43.2443 58.5315C-19.2835 39.4869 -89.7003 54.7522 -156.483 72.0091C-168.686 75.1654 -181.049 78.5649 -193 81.8521C-216.985 88.4997 -241.787 95.3422 -266.049 100.293C-293.265 105.821 -317.115 108.401 -338.889 108.101C-354.33 107.909 -369.646 106.064 -384.459 102.699C-399.895 99.167 -414.38 93.9816 -427.52 87.3431C-441.444 80.3038 -453.702 71.6751 -463.939 61.6791C-474.909 50.9777 -483.55 38.7054 -489.607 25.217C-501.469 -1.15181 -503.413 -32.2434 -495.213 -64.6252C-487.801 -94.0686 -472.068 -123.7 -450.945 -148.038C-418.497 -185.438 -376.254 -214.042 -335.375 -241.708C-321.887 -250.85 -307.939 -260.283 -294.585 -269.874C-251.912 -300.558 -193.032 -349.104 -174.865 -416.193C-155.429 -487.777 -185.542 -571.525 -251.528 -629.543C-316.17 -686.405 -401.184 -711.284 -468.015 -726.614L-467.579 -728.597C-421.842 -718.123 -385.204 -706.811 -352.253 -693.019C-311.612 -675.99 -278.204 -655.713 -250.16 -631.085C-235.023 -617.772 -221.429 -602.613 -209.686 -586.011C-197.798 -569.115 -188.127 -551.19 -181.03 -532.683C-165.726 -492.922 -162.918 -452.469 -172.906 -415.668C-176.99 -400.666 -183.24 -385.767 -191.561 -371.454C-199.145 -358.344 -208.668 -345.245 -219.898 -332.539C-238.499 -311.438 -262.555 -290.399 -293.406 -268.222C-306.797 -258.609 -320.745 -249.176 -334.233 -240.034C-374.999 -212.434 -417.159 -183.903 -449.417 -146.738C-487.208 -103.167 -513.71 -33.3483 -487.759 24.3761C-461.155 83.5797 -390.937 105.385 -338.855 106.075C-290.642 106.714 -241.279 93.0923 -193.534 79.9276C-181.575 76.6107 -169.212 73.2112 -157.002 70.0253C-126.624 62.1958 -91.3337 53.4875 -56.5664 49.6971C-18.0872 45.4698 14.7747 47.722 43.8284 56.5885C59.3565 61.3219 74.1699 67.7724 89.1411 76.3647C102.496 83.9833 115.632 93.1335 129.367 104.321C154.873 125.121 178.611 150.027 201.543 174.145C240.646 215.194 281.083 257.681 332.525 282.599C392.007 311.229 459.347 309.582 524.443 308.001C571.032 306.869 619.224 305.69 665.028 315.323C741.751 331.491 811.613 373.973 879.182 415.046C884.396 418.224 889.612 421.393 894.831 424.552C950.773 458.437 1007.95 491.636 1063.26 523.729C1070.12 527.711 1077 531.695 1083.88 535.681L1082.87 537.446Z" fill="#FF3131"/>
<path d="M1083.95 558.572L905.367 442.454C846.827 404.373 781.319 361.784 709.196 342.459C700.024 340.001 690.779 337.938 681.394 336.282C634.761 328.081 585.623 330.534 538.097 332.91C503.439 334.63 467.617 336.42 433.439 333.974C414.983 332.687 398.476 330.3 382.907 326.669C365.415 322.618 349.55 317.127 334.428 309.925C310.478 298.514 287.109 281.85 262.927 258.956C241.408 238.588 221.324 215.361 201.89 192.912C158.103 142.274 112.831 89.9338 49.5236 69.4076C-14.7557 48.5894 -85.4991 65.5486 -139.959 82.6402C-152.217 86.4812 -164.653 90.6249 -176.668 94.6266C-225.351 110.817 -275.683 127.583 -327.55 129.654C-360.994 131 -395.098 124.597 -423.577 111.686C-455.28 97.274 -479.291 75.2847 -492.935 48.0883C-506.616 20.787 -509.9 -11.7135 -502.423 -45.9111C-495.714 -76.5292 -480.392 -107.83 -459.245 -134.038C-427.699 -173.175 -386.066 -203.183 -345.806 -232.223C-333.983 -240.73 -321.789 -249.551 -310.057 -258.432C-268.089 -290.164 -210.154 -340.171 -191.656 -407.426C-171.593 -480.402 -201.046 -566.136 -266.743 -625.826C-318.565 -672.954 -388.314 -704.463 -486.185 -724.93L-485.747 -727.039C-440.745 -717.621 -402.308 -706.018 -368.287 -691.589C-348.809 -683.316 -330.541 -673.968 -314.016 -663.814C-296.229 -652.908 -279.821 -640.655 -265.271 -627.403C-250.126 -613.643 -236.511 -597.97 -224.873 -580.855C-213.068 -563.535 -203.561 -545.114 -196.613 -526.17C-181.696 -485.558 -179.267 -444.284 -189.578 -406.87C-197.574 -377.742 -212.854 -350.279 -236.256 -322.894C-254.619 -301.379 -278.327 -279.737 -308.767 -256.719C-320.507 -247.808 -332.73 -238.995 -344.523 -230.48C-384.692 -201.543 -426.183 -171.592 -457.576 -132.669C-492.738 -89.0607 -522.606 -15.818 -491.018 47.1068C-459.46 110.024 -383.274 129.738 -327.64 127.499C-276.065 125.444 -225.875 108.736 -177.356 92.5653C-165.311 88.5716 -152.876 84.4279 -140.618 80.5868C-103.519 68.9275 -73.1956 62.1332 -45.248 59.2195C-9.53455 55.4599 21.688 58.1318 50.191 67.3915C65.5584 72.3681 80.1795 79.1806 94.8374 88.2298C107.909 96.3131 120.745 105.988 134.052 117.824C158.771 139.781 181.531 166.079 203.509 191.5C242.317 236.382 282.412 282.754 335.363 307.981C397.755 337.741 469.041 334.193 537.976 330.746C585.63 328.373 634.894 325.922 681.772 334.156C718.744 340.659 757.057 354.265 798.845 375.801C837.115 395.503 873.987 419.476 906.553 440.64L1085.1 556.78L1083.95 558.572Z" fill="#FF3131"/>
</g>
</svg>
