<svg width="174" height="48" viewBox="0 0 174 48" fill="none" xmlns="http://www.w3.org/2000/svg">
<path d="M0.192037 9.00758V2.88676H29.0302V9.00758H18.2802V38H10.942V9.00758H0.192037ZM30.9075 38V11.6651H37.9885V16.26H38.2628C38.7429 14.6255 39.5487 13.391 40.6803 12.5566C41.8119 11.7108 43.1149 11.2879 44.5894 11.2879C44.9551 11.2879 45.3495 11.3107 45.7724 11.3565C46.1953 11.4022 46.5668 11.465 46.8868 11.5451V18.0259C46.5439 17.923 46.0696 17.8316 45.4638 17.7516C44.858 17.6716 44.3036 17.6316 43.8007 17.6316C42.7263 17.6316 41.7661 17.8659 40.9203 18.3345C40.0859 18.7917 39.423 19.4318 38.9315 20.2548C38.4514 21.0778 38.2114 22.0264 38.2114 23.1009V38H30.9075ZM50.663 38V11.6651H57.9669V38H50.663ZM54.3321 8.27033C53.2462 8.27033 52.3147 7.91029 51.5374 7.19019C50.7716 6.45866 50.3887 5.58426 50.3887 4.56698C50.3887 3.56114 50.7716 2.69817 51.5374 1.97807C52.3147 1.24654 53.2462 0.88078 54.3321 0.88078C55.4179 0.88078 56.3438 1.24654 57.1096 1.97807C57.8868 2.69817 58.2755 3.56114 58.2755 4.56698C58.2755 5.58426 57.8868 6.45866 57.1096 7.19019C56.3438 7.91029 55.4179 8.27033 54.3321 8.27033ZM63.8176 47.8756V11.6651H71.0186V16.0885H71.3443C71.6644 15.3799 72.1273 14.6598 72.7331 13.9282C73.3503 13.1853 74.1504 12.568 75.1334 12.0766C76.1278 11.5736 77.3623 11.3222 78.8368 11.3222C80.757 11.3222 82.5287 11.8251 84.1518 12.8309C85.7748 13.8254 87.0722 15.3284 88.0437 17.3401C89.0153 19.3404 89.501 21.8493 89.501 24.8668C89.501 27.8044 89.0267 30.2847 88.078 32.3078C87.1407 34.3195 85.8606 35.8454 84.2375 36.8856C82.6258 37.9143 80.8199 38.4286 78.8196 38.4286C77.4023 38.4286 76.1964 38.1943 75.202 37.7257C74.219 37.257 73.4132 36.6684 72.7845 35.9597C72.1559 35.2396 71.6758 34.5138 71.3443 33.7823H71.1215V47.8756H63.8176ZM70.9672 24.8325C70.9672 26.3985 71.1843 27.7644 71.6187 28.9302C72.053 30.0961 72.6817 31.0048 73.5046 31.6563C74.3276 32.2964 75.3277 32.6164 76.505 32.6164C77.6938 32.6164 78.6996 32.2907 79.5226 31.6392C80.3455 30.9762 80.9685 30.0618 81.3914 28.8959C81.8257 27.7186 82.0429 26.3642 82.0429 24.8325C82.0429 23.3123 81.8315 21.975 81.4085 20.8206C80.9856 19.6661 80.3627 18.7632 79.5397 18.1116C78.7168 17.4601 77.7052 17.1344 76.505 17.1344C75.3163 17.1344 74.3105 17.4487 73.4875 18.0774C72.676 18.706 72.053 19.5976 71.6187 20.752C71.1843 21.9064 70.9672 23.2666 70.9672 24.8325ZM95.7076 38V2.88676H99.9596V34.2281H116.282V38H95.7076ZM133.358 38.5486C130.821 38.5486 128.632 37.9886 126.792 36.8684C124.963 35.7368 123.551 34.1595 122.557 32.1364C121.574 30.1018 121.082 27.7358 121.082 25.0383C121.082 22.3408 121.574 19.9633 122.557 17.9059C123.551 15.8371 124.934 14.2254 126.706 13.071C128.489 11.9051 130.569 11.3222 132.947 11.3222C134.318 11.3222 135.673 11.5508 137.01 12.008C138.348 12.4652 139.565 13.2081 140.662 14.2368C141.759 15.2541 142.634 16.6029 143.285 18.2831C143.937 19.9633 144.263 22.0322 144.263 24.4896V26.2041H123.963V22.7065H140.148C140.148 21.2206 139.851 19.8947 139.256 18.7289C138.673 17.563 137.839 16.6429 136.753 15.9685C135.679 15.2941 134.41 14.9569 132.947 14.9569C131.335 14.9569 129.941 15.357 128.763 16.1571C127.598 16.9458 126.7 17.9745 126.072 19.2432C125.443 20.512 125.129 21.8721 125.129 23.3238V25.6555C125.129 27.6443 125.472 29.3303 126.157 30.7133C126.855 32.0849 127.82 33.1308 129.055 33.8509C130.289 34.5595 131.724 34.9139 133.358 34.9139C134.421 34.9139 135.381 34.7653 136.239 34.4681C137.107 34.1595 137.856 33.7023 138.485 33.0965C139.113 32.4793 139.599 31.7135 139.942 30.799L143.851 31.8963C143.44 33.2222 142.748 34.3881 141.777 35.3939C140.805 36.3884 139.605 37.1656 138.176 37.7257C136.747 38.2743 135.141 38.5486 133.358 38.5486ZM161.116 38.5486C158.739 38.5486 156.653 37.9829 154.858 36.8513C153.075 35.7197 151.681 34.1366 150.675 32.1021C149.68 30.0675 149.183 27.6901 149.183 24.9697C149.183 22.2265 149.68 19.8319 150.675 17.7859C151.681 15.7399 153.075 14.1511 154.858 13.0195C156.653 11.888 158.739 11.3222 161.116 11.3222C163.494 11.3222 165.574 11.888 167.357 13.0195C169.152 14.1511 170.546 15.7399 171.541 17.7859C172.546 19.8319 173.049 22.2265 173.049 24.9697C173.049 27.6901 172.546 30.0675 171.541 32.1021C170.546 34.1366 169.152 35.7197 167.357 36.8513C165.574 37.9829 163.494 38.5486 161.116 38.5486ZM161.116 34.9139C162.922 34.9139 164.408 34.451 165.574 33.5251C166.74 32.5993 167.603 31.382 168.163 29.8732C168.723 28.3644 169.003 26.7299 169.003 24.9697C169.003 23.2095 168.723 21.5692 168.163 20.049C167.603 18.5288 166.74 17.3001 165.574 16.3628C164.408 15.4256 162.922 14.9569 161.116 14.9569C159.31 14.9569 157.824 15.4256 156.659 16.3628C155.493 17.3001 154.63 18.5288 154.07 20.049C153.51 21.5692 153.23 23.2095 153.23 24.9697C153.23 26.7299 153.51 28.3644 154.07 29.8732C154.63 31.382 155.493 32.5993 156.659 33.5251C157.824 34.451 159.31 34.9139 161.116 34.9139Z" fill="#FF3131"/>
</svg>
